<svg width="220" height="251" viewBox="0 0 220 251" fill="none" xmlns="http://www.w3.org/2000/svg">
<path d="M24 78.5L26 62L17.5 45C19.1667 38.8333 22.6 26.6 23 27C23.4 27.4 33.1667 25.1667 38 24L48 40L43.5 78.5H24Z" fill="#FFFDFB" stroke="#2C2C2C"/>
<path d="M14.8454 11.8472V7.40972C15.585 10.2859 18.0996 15.7424 22.2413 14.559C26.3829 13.3757 28.0757 5.02662 28.4044 1C30.9683 11.4528 35.3894 14.7234 37.2795 15.0521C37.6903 14.8877 39.0052 14.1646 40.9774 12.5868C42.9496 11.009 43.7714 7.32755 43.9357 5.68403C44.4288 7.65625 45.1683 7.40972 47.6336 12.5868C49.6059 16.7285 49.1128 20.8866 48.6197 22.4479C51.3809 22.0535 54.8651 17.0243 56.2621 14.559C61.1927 29.1042 58.4809 32.8021 56.2621 37.4861C54.0434 42.1701 47.3871 41.4306 49.6059 44.3889C51.3809 46.7556 52.6464 55.4005 53.0572 59.4271C53.0572 61.1528 52.0218 61.9417 56.7552 88.7639C61.4885 115.586 80.9149 118.347 90.0364 116.375C90.4473 117.197 90.1843 120.073 85.8454 125.003C81.5066 129.934 72.2042 131.002 68.0954 130.92C65.3836 130.427 64.8906 133.385 68.0954 133.385C74.0645 133.385 83.0515 132.071 86.8316 130.92C87.6416 130.674 88.8037 130.674 88.3107 132.153C78.6961 142.753 68.5885 140.37 59.7135 141.028C58.7274 140.699 57.3468 140.584 59.7135 142.753C62.0802 144.923 73.3547 145.301 78.6961 145.219C80.0931 145.876 79.9288 147.585 68.0954 149.163C56.2621 150.741 45.9079 147.191 42.21 145.219C41.6348 145.219 40.6322 145.465 41.2239 146.451C41.9635 147.684 49.0494 152.368 56.7552 152.368C60.453 152.368 63.9044 152.755 63.9044 152.861C63.9044 153.601 56.7552 155.195 52.5642 154.833C23.967 152.368 20.5156 134.618 19.776 125.25C19.0364 115.882 29.1441 100.597 47.3871 104.049C49.1562 104.468 50.0383 102.125 47.6336 101.337C46.2677 100.889 42.21 100.351 36.5399 101.337C30.8697 102.323 17.8038 108.24 17.0642 125.743C16.3246 143.247 32.842 158.531 57.4947 158.531C78.4511 158.531 88.3107 148.67 92.7482 132.399C94.5561 119.58 97.9254 102.816 100.637 90.7361C103.349 78.6562 112.224 58.934 132.439 54.9896C152.654 51.0451 164.241 51.0451 181.745 61.8924C197.213 71.4785 203.932 96.8993 210.095 110.951C220.203 139.302 219.464 178.5 219.217 182.691C218.97 186.882 218.97 188.361 216.998 188.115C215.026 187.868 215.026 185.649 213.793 175.788C210.095 154.833 207.384 149.656 201.467 134.865C195.55 120.073 189.387 113.663 179.279 103.309C169.172 92.9549 152.654 90.7361 147.724 90.9826C143.779 91.1799 145.094 93.6944 146.245 94.9271C153.065 99.8576 167.791 113.713 172.13 129.688C177.554 149.656 170.651 167.653 168.679 170.858C166.707 174.062 164.981 172.337 164.241 170.858C163.502 169.378 163.748 161.49 162.023 149.656C160.297 137.823 155.859 130.674 149.943 123.771C144.026 116.868 137.616 115.142 135.644 115.882C134.066 116.474 133.836 118.265 133.918 119.087C144.273 129.688 148.217 143 148.464 154.833C148.71 166.667 145.505 173.569 143.04 180.719C140.575 187.868 137.863 188.115 136.384 187.375C134.904 186.635 136.384 184.17 136.877 180.719C137.37 177.267 137.616 167.899 135.151 153.847C133.075 142.014 128.988 139.795 127.016 138.562C124.298 136.864 120.54 139.549 119.866 141.521C117.105 149.607 112.306 157.052 110.252 159.764C100.982 171.4 83.0515 174.309 75.2448 174.309C71.6947 178.451 72.4508 196.414 73.2725 204.878C73.6012 207.426 72.9767 212.521 67.8489 212.521C61.4392 212.521 53.3417 204.878 47.8802 193.045C46.401 189.84 43.6892 183.431 40.4843 177.267C37.2795 171.104 32.842 171.844 19.776 163.462C6.71002 155.08 1.53289 137.083 1.03983 125.99C0.546779 114.896 4.73776 104.049 7.69608 98.3785C9.95294 94.0528 21.9947 79.9711 28.4044 73.7257C35.0607 67.4803 47.7322 52.3764 45.1683 41.9236C41.9634 28.8576 36.1251 28.8576 32.5954 28.8576C28.651 28.8576 26.1857 30.8299 23.7204 34.5278C21.301 38.1568 22.7343 43.1562 23.7204 45.8681C24.7065 48.5799 29.3905 53.0174 27.1718 59.4271C24.953 65.8368 19.7759 67.0694 15.0919 67.316C10.4079 67.5625 7.9426 64.8507 6.70997 61.8924C5.47735 58.934 6.93993 53.1271 8.18914 51.0451C10.4079 47.3472 13.6128 45.8681 12.3801 44.3889C11.394 43.2056 8.51784 43.0741 7.20303 43.1562C4.83636 42.959 2.60117 45.5394 1.7794 46.8542C1.69722 46.6898 1.63148 45.8681 2.02593 43.8958C2.51898 41.4306 5.47732 39.7049 7.9426 37.4861C10.4079 35.2674 15.585 34.5278 15.585 34.5278L16.3246 34.0347C17.5572 33.5417 16.8176 33.0486 11.6405 31.3229C6.46341 29.5972 6.95647 25.6528 6.95647 22.941C6.95647 20.2292 14.8454 14.559 14.8454 11.8472Z" fill="#FFFDFB" stroke="#2C2C2C"/>
<path d="M20.351 71.1644C9.18898 69.819 16.9074 55.9456 21.5204 50.0591L23.4696 54.1509C27.4328 60.3964 31.0712 72.4566 20.351 71.1644Z" stroke="#2C2C2C"/>
<circle cx="27.1717" cy="37.4862" r="1.22569" fill="#2C2C2C" stroke="#2C2C2C"/>
<path d="M11.8871 40.9376C10.3257 40.691 6.80859 40.5924 5.23081 42.1702C3.65303 43.748 2.27247 45.9503 1.77942 46.8543" stroke="#2C2C2C"/>
<path d="M49.5 42.5C50.8148 35.2685 46.894 18.8486 31.1162 19.2431C21.2551 19.9826 17.5572 23.4337 16.078 32.5552" stroke="#2C2C2C"/>
<path d="M165.72 172.09C169.172 162.969 172.327 140.338 157.339 122.785C142.35 105.232 127.262 105.774 121.839 108.486C116.827 110.992 113.259 114.995 112.47 121.306C112.224 123.274 112.807 126.47 113.066 130.427M75.2448 174.063C111.693 161.112 113.845 142.329 113.066 130.427M136.384 187.375C137.123 186.635 150.189 162.969 136.384 136.097C122.578 109.226 113.493 120.566 113.066 130.427" stroke="#2C2C2C"/>
<path d="M216.752 187.621C215.93 160.257 212 107.393 178.54 86.2984C142.378 63.5001 112.224 89.2566 112.717 119.826" stroke="#2C2C2C"/>
<path d="M88.3106 131.167C85.7632 133.961 77.6605 139.647 65.6299 138.069C50.5917 136.097 33.3348 131.66 34.3209 105.035M79.189 145.712C70.5605 148.013 50.2693 147.393 39.2515 139.302C23.4737 127.715 25.6925 116.375 25.939 110.458" stroke="#2C2C2C"/>
<path d="M89.7899 116.375C86.4207 120.812 76.6253 128.751 64.3975 125.003C46.1545 119.413 43.1961 108.24 42.4565 103.802" stroke="#2C2C2C"/>
<path d="M65.1371 212.028C65.8767 219.095 67.2572 233.821 66.8628 236.187C66.3697 239.146 50.3454 238.406 47.8801 243.09C45.9079 246.837 45.9079 248.925 46.1544 249.5C47.3871 247.528 51.2329 243.731 56.7551 244.323C63.6579 245.062 73.026 242.104 75.7378 245.062C77.9072 247.429 78.2852 249.007 78.203 249.5C79.8466 248.267 82.1475 244.915 78.203 241.365C73.2725 236.927 72.7794 239.885 71.7933 235.448C71.0044 231.898 71.1359 218.684 71.0537 211.535" stroke="#2C2C2C"/>
</svg>
