<svg width="263" height="133" viewBox="0 0 263 133" fill="none" xmlns="http://www.w3.org/2000/svg">
<path d="M4.9169 9.4507C10.8385 10.4376 61.9397 12.6034 86.75 13.5629C87.0242 12.6034 87.5724 10.5199 87.5724 9.86195C87.5724 9.204 88.3949 8.76536 88.8061 8.62828C91.8217 8.76536 98.182 8.95726 99.4979 8.62828C100.814 8.29931 101.417 7.12047 101.554 6.57218V2.04874C154.327 1.50045 260.121 0.568345 261.108 1.2263C262.095 1.88425 262.068 2.87119 261.93 3.28241L259.874 4.9273V12.7405H257.407V20.1425C233.556 20.9649 213.818 21.3762 200.658 32.0679C174.634 53.2127 171.05 69.9003 174.34 81.8258C176.972 91.3661 191.886 93.4771 199.014 93.34L215.051 112.256V131.584H183.798C183.25 131.172 181.748 128.492 177.219 123.359C171.05 116.368 160.085 116.368 155.424 116.368H139.798C123.319 116.368 112.657 125.278 109.367 130.35H78.9368V111.023C82.7748 104.854 91.6846 92.3531 96.6193 91.6951C101.554 91.0371 105.529 89.2278 106.9 88.4053C117.317 75.9316 126.31 51.0664 78.9368 51.3954C31.564 51.7243 8.4808 29.0523 2.86079 17.6751C1.07883 14.5224 -1.0047 8.46377 4.9169 9.4507Z" fill="#FFFDFB" stroke="#2C2C2C"/>
<path d="M94.5632 32.4791H101.965M92.9183 36.1801H100.732M92.9183 39.8811H100.732M92.9183 43.9934H99.0867M94.5632 29.1894H100.732M93.7408 25.0771H92.0959M92.9183 32.4791H90.0398M165.705 48.5168C163.648 51.9436 159.783 61.8404 160.77 74.0125M118.825 54.2739C121.978 56.33 128.201 62.9096 127.872 72.7789M127.872 58.7973C129.517 59.3456 132.725 62.7451 132.396 71.9564M137.33 64.5544C137.879 65.2398 138.893 67.5975 138.564 71.5452M146.377 64.9657C146.24 67.0218 146.048 71.463 146.377 72.7789M157.069 58.7973C156.247 61.6759 154.848 68.5844 155.835 73.1901M146.377 86.3492V115.957M148.022 86.3492V114.724M149.256 87.9941V115.957M152.134 86.7604V113.49M154.19 104.854V86.7604M154.19 106.91V116.368M157.48 87.5829V107.733M157.48 110.611V116.368M142.265 86.3492V105.265M142.676 106.91V116.368M132.807 87.9941V95.8073M133.218 99.0971V116.78M129.517 88.8165V99.9195M129.517 103.209V117.602M111.012 108.966L111.423 127.471M112.657 106.499V124.182M182.153 129.527V113.901M180.92 110.2V125.826M90.8622 122.537V130.35M104.433 111.845V120.069M192.023 112.667V118.836M206.827 123.359V131.584M174.34 66.1993C170.913 74.4238 169.083 92.9003 189.555 99.9195C203.948 104.854 203.537 104.854 205.593 105.265M167.349 82.6482C168.583 86.2121 172.12 93.6689 176.396 94.9849M176.808 86.3492C178.59 89.2277 183.469 95.1493 188.733 95.8073" stroke="#2C2C2C"/>
<path d="M109.778 130.35C109.778 129.363 109.778 117.328 109.778 111.434M109.778 111.434H78.9368M109.778 111.434C113.205 103.072 124.007 86.3492 139.798 86.3492C145.555 86.3492 150.078 86.3492 155.424 86.7604C157.474 86.9181 165.293 87.9941 172.284 97.8634C177.877 105.759 182.016 110.748 183.387 112.256M183.387 112.256L183.798 131.172M183.387 112.256H215.051M176.396 16.8527C177.054 16.5237 230.678 16.7156 257.407 16.8527M113.068 11.5069C113.702 11.1897 202.792 12.121 252.061 12.6796M257.407 12.7405C255.685 12.7208 253.901 12.7005 252.061 12.6796M259.874 4.51611H254.94M137.741 4.51611H252.061M257.407 4.92734V10.2732M254.94 4.51611V11.0957M254.94 4.51611H252.061M252.061 4.51611V12.6796" stroke="#2C2C2C"/>
<path d="M250.416 4.51611V11.0957M247.949 4.51611V9.45078M178.041 44.4046C173.929 47.6944 165.951 58.2217 166.938 74.0126M257.407 19.3201C202.715 16.8528 194.49 24.2548 171.462 43.171M129.928 84.7044C134.041 80.8663 145.472 74.5061 158.303 79.7697M144.321 83.0595C145.829 81.6887 150.736 79.7697 158.303 83.0595M111 59C114.975 61.6044 121.375 68.091 121.704 78.9473C122.033 89.8035 105.118 102.387 96.6193 107.322M115.124 67.433C115.81 67.7072 117.329 73.0257 117 78.9473C116.589 86.3493 104.433 99.0971 95.7969 100.742" stroke="#2C2C2C"/>
<path d="M87.5724 9.86206C88.2577 17.9494 88.8883 37.5784 85.9275 51.3955M16.0198 32.8905L27.9452 21.7875M18.8983 35.3578L36.1696 19.3202M22.5993 35.3578L34.936 23.4324M36.9921 21.7875L41.5155 17.2641M27.9452 34.5354L41.5155 20.5538M58.7868 50.1618C59.1158 49.5038 78.1143 32.6163 87.5724 24.2548M63.3103 50.573L84.6938 31.2456M74.8245 51.3955L85.9275 41.5261M78.5255 51.3955L84.6938 46.4608M92.507 12.7406H100.32M91.6846 17.2641H101.143M93.7407 21.3763H100.32M95.3856 25.0773H100.32M90.8621 48.5169C91.5201 48.5169 96.6193 48.2428 99.0866 48.1057" stroke="#2C2C2C"/>
</svg>
