<svg width="202" height="194" viewBox="0 0 202 194" fill="none" xmlns="http://www.w3.org/2000/svg">
<path d="M163.026 137.221L158.852 135.704V139.877V143.672L159.231 145.949L160.749 147.846L163.026 148.225L165.302 147.466L166.441 145.949L167.2 143.672L166.061 140.257L163.026 137.221Z" fill="#FFFDFB"/>
<path d="M180.101 144.051L176.306 143.672L175.168 144.051L173.65 145.569L172.891 147.466L173.271 148.984L174.409 150.502L178.204 150.881L180.86 150.123L183.136 148.605L185.034 146.328L183.895 145.569L180.101 144.051Z" fill="#FFFDFB"/>
<path d="M137.603 162.265L135.706 158.47L134.947 160.368L133.05 162.644L131.532 165.68L131.152 169.474L132.291 171.372H134.188L137.223 169.474L138.741 166.439L137.603 162.265Z" fill="#FFFDFB"/>
<path d="M126.219 166.059L125.081 163.024L123.563 164.542L120.528 167.577L118.631 170.233L118.251 173.269L119.769 175.166L122.425 175.925L124.322 175.166L126.219 173.269L126.978 169.854L126.219 166.059Z" fill="#FFFDFB"/>
<path d="M174.789 54.8814L171.753 54.502L167.2 55.2609L163.026 57.1581L164.544 58.2964L167.959 60.5731L171.753 62.4704L174.789 62.8498L176.686 61.332L177.445 59.0553L177.065 56.3992L174.789 54.8814Z" fill="#FFFDFB"/>
<path d="M169.097 45.0158L166.061 43.498H164.164C163.861 43.498 162.267 44.2569 161.508 44.6364L158.472 46.5336L157.334 47.2925L159.611 48.0514L162.267 49.5692L164.923 50.3281H169.476L170.994 49.1897V46.913L169.097 45.0158Z" fill="#FFFDFB"/>
<path d="M141.018 19.9723L138.741 18.834L137.603 18.4545L133.808 19.2134L130.773 21.8696L129.255 25.2846V26.8024L130.014 27.1818L138.362 26.4229L141.018 24.9051L142.156 23.0079L141.777 21.4901L141.018 19.9723Z" fill="#FFFDFB"/>
<path d="M140.259 3.65613L136.465 1L136.085 2.51779L135.326 5.17391L134.947 8.58893L135.706 10.8656L137.223 12.004L139.121 12.7628L141.018 12.3834L142.156 10.8656L142.536 8.20949L141.777 5.93281L140.259 3.65613Z" fill="#FFFDFB"/>
<path d="M130.773 8.96838L133.05 12.004L132.67 12.7628L131.152 13.5217L128.496 13.9012L125.84 13.5217L123.184 12.004L120.528 8.96838L119.769 7.07115L123.184 6.6917L127.358 7.07115L130.773 8.96838Z" fill="#FFFDFB"/>
<ellipse cx="100.797" cy="93.9644" rx="85.7549" ry="87.6522" fill="#FFFDFB"/>
<path d="M145.571 173.648C142.536 172.737 140.259 174.281 139.5 175.166C139.121 176.684 139.121 179.34 144.053 180.478C148 181.389 151.263 179.34 152.401 178.202C150.504 177.822 149.366 174.786 145.571 173.648Z" fill="#FFFDFB"/>
<path d="M133.808 179.719C131.38 177.595 128.496 179.087 127.358 180.099C126.447 181.01 126.978 183.514 127.358 184.652C129.786 188.598 136.212 187.308 139.121 186.17C136.844 186.17 136.844 182.376 133.808 179.719Z" fill="#FFFDFB"/>
<path d="M195.848 78.0277C198.276 75.9028 197.113 70.3123 196.227 67.7826C195.595 68.668 193.875 70.6664 192.054 71.5771C184.465 75.3715 188.259 79.166 188.259 79.5455C188.259 79.9249 192.812 80.6838 195.848 78.0277Z" fill="#FFFDFB"/>
<path d="M196.746 93.2366C199.756 92.0741 200.582 86.4238 200.618 83.7439C199.72 84.3585 197.419 85.6452 195.396 85.8756C186.965 86.8352 189.227 91.7014 189.097 92.0578C188.967 92.4142 192.983 94.6897 196.746 93.2366Z" fill="#FFFDFB"/>
<path d="M169.097 66.6442C178.204 64.5193 181.239 68.7945 181.619 71.1976C181.619 71.1976 180.48 73.0949 176.686 73.8538C171.374 74.6127 169.982 69.5533 169.097 66.6442Z" fill="#FFFDFB"/>
<path d="M173.788 102.168C182.782 104.728 183.362 109.939 182.528 112.225C182.528 112.225 180.612 113.332 176.926 112.154C171.913 110.24 173.151 105.141 173.788 102.168Z" fill="#FFFDFB"/>
<path d="M167.731 124.321C175.349 129.745 174.151 134.849 172.6 136.723C172.6 136.723 170.424 137.125 167.345 134.781C163.261 131.3 166.135 126.909 167.731 124.321Z" fill="#FFFDFB"/>
<path d="M193.354 130.587C183.41 128.632 180.181 132.963 179.809 135.373C179.809 135.373 181.08 137.249 185.222 137.937C191.014 138.596 192.441 133.512 193.354 130.587Z" fill="#FFFDFB"/>
<path d="M168.029 115.255C171.675 125.02 176.79 125.911 178.892 125.136C178.892 125.136 179.713 123.141 178.095 119.132C175.592 113.664 170.822 114.726 168.029 115.255Z" fill="#FFFDFB"/>
<path d="M144.433 26.8024C147.469 24.981 149.619 25.917 150.125 26.0435C150.631 26.1699 151.794 26.6506 152.401 27.5613C154.678 30.9763 151.642 33.2529 148.227 33.6323C145.495 33.9359 141.018 32.747 139.5 32.8735C139.627 31.1028 141.397 28.6237 144.433 26.8024Z" fill="#FFFDFB"/>
<path d="M155.057 35.1502C158.093 33.3289 160.243 34.2649 160.749 34.3913C161.255 34.5178 162.419 34.9983 163.026 35.909C165.303 39.324 162.267 42.3597 158.852 42.7391C156.12 43.0427 151.642 41.0949 150.125 41.2213C150.251 39.4506 152.022 36.9715 155.057 35.1502Z" fill="#FFFDFB"/>
<path d="M157.587 149.764C159.022 152.78 157.832 154.622 157.645 155.068C157.458 155.514 156.84 156.514 155.863 156.948C152.2 158.578 150.314 155.502 150.354 152.33C150.387 149.792 152.111 145.856 152.171 144.452C153.911 144.802 156.152 146.748 157.587 149.764Z" fill="#FFFDFB"/>
<path d="M148.017 158.373C149.452 161.389 148.262 163.231 148.075 163.677C147.888 164.122 147.27 165.123 146.293 165.557C142.63 167.187 139.991 164.01 140.032 160.838C140.064 158.3 142.541 154.465 142.601 153.061C144.34 153.41 146.582 155.357 148.017 158.373Z" fill="#FFFDFB"/>
<path d="M183.516 60.1937C184.73 59.283 188.322 54.7549 189.967 52.6047C191.358 54.1225 193.533 58.3723 191.105 63.2293C188.069 69.3004 184.275 65.8855 183.516 64.7471C182.757 63.6088 181.998 61.332 183.516 60.1937Z" fill="#FFFDFB"/>
<path d="M190.852 100.981C192.321 100.598 197.359 97.7654 199.694 96.3971C200.408 98.3285 200.814 103.085 196.728 106.663C191.621 111.134 189.401 106.537 189.129 105.196C188.857 103.855 189.016 101.461 190.852 100.981Z" fill="#FFFDFB"/>
<path d="M173.271 27.1818C176.433 30.5968 180.112 40.8419 173.271 40.8419C169.856 40.8419 168.338 34.0119 173.271 27.1818Z" fill="#FFFDFB"/>
<path d="M171.386 78.7566C175.906 77.6467 186.65 79.3966 183.333 85.3795C181.677 88.3663 174.968 86.3824 171.386 78.7566Z" fill="#FFFDFB"/>
<path d="M174.409 91.308C180.86 89.7905 187.18 94.4035 183.078 99.3437C181.03 101.81 177.824 97.3794 174.409 91.308Z" fill="#FFFDFB"/>
<path d="M198.466 115.92C196.238 122.923 188.165 126.445 185.742 119.815C184.533 116.505 190.647 115.863 198.466 115.92Z" fill="#FFFDFB"/>
<path d="M185.793 49.1897C187.31 46.1542 184.654 41.6008 183.137 39.7036C183.137 40.4625 181.239 44.2569 180.101 45.3953C176.139 49.3568 177.288 51.783 179.342 52.6047C181.239 53.3636 183.895 52.9842 185.793 49.1897Z" fill="#FFFDFB"/>
<path d="M149.366 6.88449C147.848 10.0463 145.571 16.9368 151.263 18.834C154.863 20.0339 156.955 10.2995 149.366 6.88449Z" fill="#FFFDFB"/>
<path d="M163.026 17.3162C160.749 19.9723 158.473 28.3202 164.164 30.2174C167.764 31.4173 169.856 21.8696 163.026 17.3162Z" fill="#FFFDFB"/>
<path d="M175.491 158.432C172.703 156.304 166.419 152.676 163.405 157.864C161.499 161.145 170.606 165.17 175.491 158.432Z" fill="#FFFDFB"/>
<path d="M166.024 169.121C163.885 166.353 156.174 162.429 153.16 167.616C151.254 170.898 160.179 174.885 166.024 169.121Z" fill="#FFFDFB"/>
<path d="M187.69 78.7866C187.437 79.2925 186.779 80.3044 186.172 80.3044M181.619 71.1976C181.998 71.7036 182.985 72.6395 183.895 72.336M181.619 71.1976C181.239 68.7945 178.204 64.5193 169.097 66.6442C169.982 69.5533 171.374 74.6127 176.686 73.8538C180.48 73.0949 181.619 71.1976 181.619 71.1976ZM177.445 58.2964C178.204 58.8024 179.797 59.7383 180.101 59.4348M170.615 46.5336C171.247 47.0395 172.74 47.9755 173.65 47.6719M170.615 46.5336C168.718 44.2569 167.2 43.7149 165.682 43.498C163.557 43.1945 158.978 45.9012 156.955 47.2925C157.587 47.2925 159.383 47.6719 161.508 49.1897C164.164 51.087 174.03 51.4664 170.615 46.5336ZM163.405 36.2885C163.785 36.415 164.695 36.5921 165.303 36.2885M152.401 27.5613C153.287 27.5613 155.133 27.4095 155.437 26.8024M152.401 27.5613C154.678 30.9763 151.642 33.2529 148.227 33.6323C145.495 33.9359 141.018 32.747 139.5 32.8735C139.627 31.1028 141.397 28.6237 144.433 26.8024C147.469 24.981 149.619 25.917 150.125 26.0435C150.631 26.1699 151.794 26.6506 152.401 27.5613ZM141.397 20.3518C142.283 20.0988 144.205 19.4411 144.812 18.834M141.397 20.3518C143.674 23.7668 140.639 26.0435 137.223 26.4229C134.491 26.7265 130.773 27.0553 129.255 27.1818C129.382 25.4111 130.393 21.4143 133.429 19.593C136.465 17.7716 138.488 18.3281 139.121 18.8341C139.627 18.9605 140.79 19.4411 141.397 20.3518ZM183.895 84.4783C184.275 85.1107 185.337 86.2996 186.552 85.9961M189.208 92.0672C188.702 92.4466 187.538 93.2055 186.931 93.2055M183.516 98.5178C184.148 99.1502 185.641 100.415 186.552 100.415M189.967 107.245C189.081 108.004 187.007 109.446 185.793 109.142M182.378 112.178C182.631 113.19 183.44 115.138 184.654 114.834M186.552 121.285C186.046 121.791 184.578 122.651 182.757 122.043M178.963 125.079C179.216 125.711 179.949 126.9 180.86 126.597M179.722 135.324C179.216 135.577 177.976 136.007 177.065 135.704M172.512 136.842C172.765 137.601 173.574 139.194 174.789 139.498M172.891 147.466C172.259 147.846 170.767 148.301 169.856 147.087M165.682 146.708C166.061 146.834 166.896 147.391 167.2 148.605L167.579 150.502M163.026 158.47C162.393 158.344 160.825 158.243 159.611 158.85M156.196 156.953C156.449 157.711 156.955 159.609 156.955 161.126M152.781 167.957L148.607 167.577M145.192 166.059C145.698 166.692 146.482 168.26 145.571 169.474M133.808 171.751C133.808 172.383 133.733 173.952 133.429 175.166M139.5 175.545C138.868 175.04 137.223 174.104 135.706 174.407M128.117 179.719L124.702 178.202M121.666 175.925C121.666 176.304 121.514 177.443 120.907 178.96M183.516 64.7471L182.378 65.506M183.516 64.7471C182.757 63.6088 181.998 61.332 183.516 60.1937C184.73 59.283 188.322 54.7549 189.967 52.6047C191.358 54.1225 193.533 58.3723 191.105 63.2293C188.069 69.3004 184.275 65.8855 183.516 64.7471ZM178.204 52.2253L177.445 53.3636M173.271 40.8419C180.112 40.8419 176.433 30.5968 173.271 27.1818C168.338 34.0119 169.856 40.8419 173.271 40.8419ZM173.271 40.8419C173.398 41.8538 173.347 44.0293 172.133 44.6364M139.88 12.7628C140.133 13.7747 140.487 15.8743 139.88 16.1779M139.88 12.7628C133.25 12.7628 134.947 4.16177 136.465 1C144.054 4.41502 143.674 12.7628 139.88 12.7628ZM152.022 18.834C152.401 19.8459 152.705 22.6285 152.401 24.1462M102.694 181.237C195.279 179.34 220.322 52.2252 133.05 12.7624C132.544 10.1064 129.179 5.24975 119.769 7.07109C121.16 10.6123 125.688 16.7083 132.67 12.7624M164.164 30.2174C158.473 28.3202 160.749 19.9723 163.026 17.3162C169.856 21.8696 167.764 31.4173 164.164 30.2174ZM164.164 30.2174C164.417 30.9763 164.62 33.0253 163.405 33.6324M139.5 175.166C140.259 174.281 142.536 172.737 145.571 173.648C149.366 174.786 150.504 177.822 152.401 178.202C151.263 179.34 148 181.389 144.053 180.478C139.121 179.34 139.121 176.684 139.5 175.166ZM127.358 180.099C128.496 179.087 131.38 177.595 133.808 179.719C136.844 182.376 136.844 186.17 139.121 186.17C136.212 187.308 129.786 188.598 127.358 184.652C126.978 183.514 126.447 181.01 127.358 180.099ZM196.227 67.7826C197.113 70.3123 198.276 75.9028 195.848 78.0277C192.812 80.6838 188.259 79.9249 188.259 79.5455C188.259 79.166 184.465 75.3715 192.054 71.5771C193.875 70.6664 195.595 68.668 196.227 67.7826ZM200.618 83.7439C200.582 86.4238 199.756 92.0741 196.746 93.2366C192.983 94.6897 188.967 92.4142 189.097 92.0578C189.227 91.7014 186.965 86.8352 195.396 85.8756C197.419 85.6452 199.72 84.3585 200.618 83.7439ZM182.528 112.225C183.362 109.939 182.782 104.728 173.788 102.168C173.151 105.141 171.913 110.24 176.926 112.154C180.612 113.332 182.528 112.225 182.528 112.225ZM172.6 136.723C174.151 134.849 175.349 129.745 167.731 124.321C166.135 126.909 163.261 131.3 167.345 134.781C170.424 137.125 172.6 136.723 172.6 136.723ZM179.809 135.373C180.181 132.963 183.41 128.632 193.354 130.587C192.441 133.512 191.014 138.596 185.222 137.937C181.08 137.249 179.809 135.373 179.809 135.373ZM178.892 125.136C176.79 125.911 171.675 125.02 168.029 115.255C170.822 114.726 175.592 113.664 178.095 119.132C179.713 123.141 178.892 125.136 178.892 125.136ZM160.749 34.3913C160.243 34.2649 158.093 33.3289 155.057 35.1502C152.022 36.9715 150.251 39.4506 150.125 41.2213C151.642 41.0949 156.12 43.0427 158.852 42.7391C162.267 42.3597 165.303 39.324 163.026 35.909C162.419 34.9983 161.255 34.5178 160.749 34.3913ZM172.512 54.502C174.03 54.502 177.065 56.0198 177.445 57.917C177.824 59.8142 176.686 63.2293 173.271 62.8498C169.856 62.4704 163.026 57.1581 163.026 57.1581C163.026 57.1581 167.2 54.7549 172.512 54.502ZM166.133 145.962C166.712 145.45 167.511 143.674 166.075 140.658C164.64 137.642 160.802 136.189 159.062 135.839C159.003 137.243 158.875 140.686 158.843 143.224C158.802 146.396 160.689 149.472 164.351 147.842C165.328 147.408 165.946 146.408 166.133 145.962ZM157.645 155.068C157.832 154.622 159.022 152.78 157.587 149.764C156.152 146.748 153.911 144.802 152.171 144.452C152.111 145.856 150.387 149.792 150.354 152.33C150.314 155.502 152.2 158.578 155.863 156.948C156.84 156.514 157.458 155.514 157.645 155.068ZM148.075 163.677C148.262 163.231 149.452 161.389 148.017 158.373C146.582 155.357 144.34 153.41 142.601 153.061C142.541 154.465 140.064 158.3 140.032 160.838C139.991 164.01 142.63 167.187 146.293 165.557C147.27 165.123 147.888 164.122 148.075 163.677ZM134.836 171.09C137.324 169.656 138.046 168.34 138.447 166.982C139.007 165.079 136.882 160.536 135.75 158.502C135.673 159.08 135.078 160.671 133.314 162.413C131.109 164.591 129.53 173.559 134.836 171.09ZM126.706 171.77C126.521 173.158 124.646 175.732 122.72 175.828C120.793 175.924 117.546 174.432 118.339 171.36C119.132 168.288 125.23 162.747 125.23 162.747C125.23 162.747 127.103 166.88 126.706 171.77ZM199.694 96.3971C197.359 97.7654 192.321 100.598 190.852 100.981C189.016 101.461 188.857 103.855 189.129 105.196C189.401 106.537 191.621 111.134 196.728 106.663C200.814 103.085 200.408 98.3285 199.694 96.3971ZM171.386 78.7566C175.906 77.6467 186.65 79.3966 183.333 85.3795C181.677 88.3663 174.968 86.3824 171.386 78.7566ZM174.409 91.308C180.86 89.7905 187.18 94.4035 183.078 99.3437C181.03 101.81 177.824 97.3794 174.409 91.308ZM198.466 115.92C196.238 122.923 188.165 126.445 185.742 119.815C184.533 116.505 190.647 115.863 198.466 115.92ZM183.137 39.7036C184.654 41.6008 187.31 46.1542 185.793 49.1897C183.895 52.9842 181.239 53.3636 179.342 52.6047C177.288 51.783 176.139 49.3568 180.101 45.3953C181.239 44.2569 183.137 40.4625 183.137 39.7036ZM149.366 6.88449C147.848 10.0463 145.571 16.9368 151.263 18.834C154.863 20.0339 156.955 10.2995 149.366 6.88449ZM185.139 146.426C182.351 144.298 174.275 140.89 172.928 147.382C172.158 151.097 180.254 153.164 185.139 146.426ZM175.491 158.432C172.703 156.304 166.419 152.676 163.405 157.864C161.499 161.145 170.606 165.17 175.491 158.432ZM166.024 169.121C163.885 166.353 156.174 162.429 153.16 167.616C151.254 170.898 160.179 174.885 166.024 169.121Z" stroke="#2C2C2C"/>
<path d="M38.9469 137.221L43.1208 135.704V139.877V143.672L42.7413 145.949L41.2235 147.846L38.9469 148.225L36.6702 147.466L35.5318 145.949L34.773 143.672L35.9113 140.257L38.9469 137.221Z" fill="#FFFDFB"/>
<path d="M21.8718 144.051L25.6662 143.672L26.8046 144.051L28.3224 145.569L29.0813 147.466L28.7018 148.984L27.5635 150.502L23.769 150.881L21.1129 150.123L18.8362 148.605L16.939 146.328L18.0773 145.569L21.8718 144.051Z" fill="#FFFDFB"/>
<path d="M64.3698 162.265L66.267 158.47L67.0259 160.368L68.9232 162.644L70.4409 165.68L70.8204 169.474L69.682 171.372H67.7848L64.7492 169.474L63.2315 166.439L64.3698 162.265Z" fill="#FFFDFB"/>
<path d="M75.7532 166.059L76.8915 163.024L78.4093 164.542L81.4449 167.577L83.3421 170.233L83.7216 173.269L82.2038 175.166L79.5477 175.925L77.6504 175.166L75.7532 173.269L74.9943 169.854L75.7532 166.059Z" fill="#FFFDFB"/>
<path d="M27.184 54.8814L30.2196 54.502L34.773 55.2609L38.9469 57.1581L37.4291 58.2964L34.0141 60.5731L30.2196 62.4704L27.184 62.8498L25.2868 61.332L24.5279 59.0553L24.9073 56.3992L27.184 54.8814Z" fill="#FFFDFB"/>
<path d="M32.8757 45.0158L35.9113 43.498H37.8085C38.1121 43.498 39.7058 44.2569 40.4647 44.6364L43.5002 46.5336L44.6386 47.2925L42.3619 48.0514L39.7058 49.5692L37.0496 50.3281H32.4963L30.9785 49.1897V46.913L32.8757 45.0158Z" fill="#FFFDFB"/>
<path d="M60.9548 19.9723L63.2315 18.834L64.3698 18.4545L68.1643 19.2134L71.1998 21.8696L72.7176 25.2846V26.8024L71.9587 27.1818L63.6109 26.4229L60.9548 24.9051L59.8164 23.0079L60.1959 21.4901L60.9548 19.9723Z" fill="#FFFDFB"/>
<path d="M61.7137 3.65613L65.5081 1L65.8876 2.51779L66.6465 5.17391L67.0259 8.58893L66.267 10.8656L64.7492 12.004L62.852 12.7628L60.9548 12.3834L59.8164 10.8656L59.437 8.20949L60.1959 5.93281L61.7137 3.65613Z" fill="#FFFDFB"/>
<path d="M71.1998 8.96838L68.9232 12.004L69.3026 12.7628L70.8204 13.5217L73.4765 13.9012L76.1326 13.5217L78.7888 12.004L81.4449 8.96838L82.2038 7.07115L78.7888 6.6917L74.6149 7.07115L71.1998 8.96838Z" fill="#FFFDFB"/>
<path d="M56.4287 173.648C59.4643 172.737 61.741 174.281 62.4999 175.166C62.8793 176.684 62.8793 179.34 57.9465 180.478C54.0003 181.389 50.737 179.34 49.5987 178.202C51.4959 177.822 52.6342 174.786 56.4287 173.648Z" fill="#FFFDFB"/>
<path d="M68.1915 179.719C70.62 177.595 73.5038 179.087 74.6421 180.099C75.5528 181.01 75.0216 183.514 74.6421 184.652C72.2137 188.598 65.7884 187.308 62.8793 186.17C65.156 186.17 65.156 182.376 68.1915 179.719Z" fill="#FFFDFB"/>
<path d="M6.152 78.0277C3.72354 75.9028 4.88718 70.3123 5.77255 67.7826C6.40496 68.668 8.12512 70.6664 9.94646 71.5771C17.5354 75.3715 13.7409 79.166 13.7409 79.5455C13.7409 79.9249 9.18757 80.6838 6.152 78.0277Z" fill="#FFFDFB"/>
<path d="M5.25396 93.2366C2.24376 92.0741 1.41818 86.4238 1.38166 83.7439C2.2795 84.3585 4.58101 85.6452 6.60427 85.8756C15.0345 86.8352 12.7727 91.7014 12.9029 92.0578C13.0331 92.4142 9.01672 94.6897 5.25396 93.2366Z" fill="#FFFDFB"/>
<path d="M32.903 66.6442C23.7963 64.5193 20.7607 68.7945 20.3812 71.1976C20.3812 71.1976 21.5196 73.0949 25.3141 73.8538C30.6263 74.6127 32.0176 69.5533 32.903 66.6442Z" fill="#FFFDFB"/>
<path d="M28.212 102.168C19.218 104.728 18.6377 109.939 19.4719 112.225C19.4719 112.225 21.3878 113.332 25.0739 112.154C30.0873 110.24 28.8492 105.141 28.212 102.168Z" fill="#FFFDFB"/>
<path d="M34.269 124.321C26.6511 129.745 27.8489 134.849 29.4001 136.723C29.4001 136.723 31.576 137.125 34.6552 134.781C38.7386 131.3 35.8649 126.909 34.269 124.321Z" fill="#FFFDFB"/>
<path d="M8.64561 130.587C18.5897 128.632 21.819 132.963 22.1906 135.373C22.1906 135.373 20.9196 137.249 16.7784 137.937C10.986 138.596 9.559 133.512 8.64561 130.587Z" fill="#FFFDFB"/>
<path d="M33.971 115.255C30.3251 125.02 25.2101 125.911 23.1084 125.136C23.1084 125.136 22.2872 123.141 23.9053 119.132C26.4082 113.664 31.1783 114.726 33.971 115.255Z" fill="#FFFDFB"/>
<path d="M57.567 26.8024C54.5314 24.981 52.3812 25.917 51.8753 26.0435C51.3694 26.1699 50.2058 26.6506 49.5986 27.5613C47.322 30.9763 50.3575 33.2529 53.7726 33.6323C56.5046 33.9359 60.982 32.747 62.4998 32.8735C62.3733 31.1028 60.6026 28.6237 57.567 26.8024Z" fill="#FFFDFB"/>
<path d="M46.9425 35.1502C43.9069 33.3289 41.7567 34.2649 41.2508 34.3913C40.7449 34.5178 39.5812 34.9983 38.9741 35.909C36.6975 39.324 39.733 42.3597 43.148 42.7391C45.8801 43.0427 50.3575 41.0949 51.8753 41.2213C51.7488 39.4506 49.9781 36.9715 46.9425 35.1502Z" fill="#FFFDFB"/>
<path d="M44.4128 149.764C42.9777 152.78 44.1677 154.622 44.3548 155.068C44.5418 155.514 45.1601 156.514 46.1368 156.948C49.7995 158.578 51.686 155.502 51.6456 152.33C51.6132 149.792 49.8887 145.856 49.829 144.452C48.0892 144.802 45.8479 146.748 44.4128 149.764Z" fill="#FFFDFB"/>
<path d="M53.9831 158.373C52.548 161.389 53.7381 163.231 53.9251 163.677C54.1122 164.122 54.7304 165.123 55.7072 165.557C59.3699 167.187 62.0086 164.01 61.9682 160.838C61.9359 158.3 59.4591 154.465 59.3993 153.061C57.6596 153.41 55.4183 155.357 53.9831 158.373Z" fill="#FFFDFB"/>
<path d="M18.484 60.1937C17.2698 59.283 13.6777 54.7549 12.0334 52.6047C10.6421 54.1225 8.46662 58.3723 10.8951 63.2293C13.9307 69.3004 17.7251 65.8855 18.484 64.7471C19.2429 63.6088 20.0018 61.332 18.484 60.1937Z" fill="#FFFDFB"/>
<path d="M11.148 100.981C9.67948 100.598 4.64122 97.7654 2.30566 96.3971C1.59203 98.3285 1.18616 103.085 5.2717 106.663C10.3786 111.134 12.599 106.537 12.8708 105.196C13.1425 103.855 12.9836 101.461 11.148 100.981Z" fill="#FFFDFB"/>
<path d="M28.7289 27.1818C25.5668 30.5968 21.8882 40.8419 28.7289 40.8419C32.1439 40.8419 33.6619 34.0119 28.7289 27.1818Z" fill="#FFFDFB"/>
<path d="M30.6139 78.7566C26.0941 77.6467 15.3501 79.3966 18.6668 85.3795C20.3225 88.3663 27.0321 86.3824 30.6139 78.7566Z" fill="#FFFDFB"/>
<path d="M27.5908 91.308C21.1401 89.7905 14.8197 94.4035 18.9221 99.3437C20.9701 101.81 24.1757 97.3794 27.5908 91.308Z" fill="#FFFDFB"/>
<path d="M3.53432 115.92C5.76173 122.923 13.8353 126.445 16.2579 119.815C17.4673 116.505 11.3531 115.863 3.53432 115.92Z" fill="#FFFDFB"/>
<path d="M16.2073 49.1897C14.6895 46.1542 17.3457 41.6008 18.8635 39.7036C18.8635 40.4625 20.7607 44.2569 21.899 45.3953C25.8606 49.3568 24.7122 51.783 22.6579 52.6047C20.7607 53.3636 18.1046 52.9842 16.2073 49.1897Z" fill="#FFFDFB"/>
<path d="M52.6342 6.88449C54.152 10.0463 56.4287 16.9368 50.737 18.834C47.1372 20.0339 45.0453 10.2995 52.6342 6.88449Z" fill="#FFFDFB"/>
<path d="M38.9741 17.3162C41.2508 19.9723 43.5275 28.3202 37.8358 30.2174C34.236 31.4173 32.1441 21.8696 38.9741 17.3162Z" fill="#FFFDFB"/>
<path d="M26.5089 158.432C29.2966 156.304 35.5813 152.676 38.5947 157.864C40.5005 161.145 31.3936 165.17 26.5089 158.432Z" fill="#FFFDFB"/>
<path d="M35.9762 169.121C38.1147 166.353 45.8264 162.429 48.8397 167.616C50.7456 170.898 41.8215 174.885 35.9762 169.121Z" fill="#FFFDFB"/>
<path d="M14.3101 78.7866C14.5631 79.2925 15.2208 80.3044 15.8279 80.3044M20.3812 71.1976C20.0018 71.7036 19.0152 72.6395 18.1046 72.336M20.3812 71.1976C20.7607 68.7945 23.7963 64.5193 32.903 66.6442C32.0176 69.5533 30.6263 74.6127 25.3141 73.8538C21.5196 73.0949 20.3812 71.1976 20.3812 71.1976ZM24.5552 58.2964C23.7963 58.8024 22.2026 59.7383 21.899 59.4348M31.3852 46.5336C30.7528 47.0395 29.2603 47.9755 28.3496 47.6719M31.3852 46.5336C33.2824 44.2569 34.8002 43.7149 36.318 43.498C38.4429 43.1945 43.0216 45.9012 45.0453 47.2925C44.4129 47.2925 42.6168 47.6719 40.4919 49.1897C37.8358 51.087 27.9702 51.4664 31.3852 46.5336ZM38.5947 36.2885C38.2152 36.415 37.3046 36.5921 36.6975 36.2885M49.5986 27.5613C48.7133 27.5613 46.8666 27.4095 46.5631 26.8024M49.5986 27.5613C47.322 30.9763 50.3575 33.2529 53.7726 33.6323C56.5046 33.9359 60.982 32.747 62.4998 32.8735C62.3733 31.1028 60.6026 28.6237 57.567 26.8024C54.5314 24.981 52.3812 25.917 51.8753 26.0435C51.3694 26.1699 50.2058 26.6506 49.5986 27.5613ZM60.6026 20.3518C59.7172 20.0988 57.7947 19.4411 57.1876 18.834M60.6026 20.3518C58.3259 23.7668 61.3615 26.0435 64.7765 26.4229C67.5085 26.7265 71.2271 27.0553 72.7449 27.1818C72.6184 25.4111 71.6065 21.4143 68.571 19.593C65.5354 17.7716 63.5117 18.3281 62.8793 18.8341C62.3733 18.9605 61.2097 19.4411 60.6026 20.3518ZM18.1046 84.4783C17.7251 85.1107 16.6627 86.2996 15.4484 85.9961M12.7923 92.0672C13.2982 92.4466 14.4619 93.2055 15.069 93.2055M18.484 98.5178C17.8516 99.1502 16.3591 100.415 15.4484 100.415M12.0334 107.245C12.9188 108.004 14.9931 109.446 16.2073 109.142M19.6224 112.178C19.3694 113.19 18.5599 115.138 17.3457 114.834M15.4484 121.285C15.9544 121.791 17.4216 122.651 19.2429 122.043M23.0374 125.079C22.7844 125.711 22.0508 126.9 21.1401 126.597M22.2785 135.324C22.7844 135.577 24.0239 136.007 24.9346 135.704M29.488 136.842C29.235 137.601 28.4255 139.194 27.2113 139.498M29.1085 147.466C29.7409 147.846 31.2334 148.301 32.1441 147.087M36.318 146.708C35.9386 146.834 35.1038 147.391 34.8002 148.605L34.4208 150.502M38.9741 158.47C39.6065 158.344 41.1749 158.243 42.3892 158.85M45.8042 156.953C45.5512 157.711 45.0453 159.609 45.0453 161.126M49.2192 167.957L53.3931 167.577M56.8081 166.059C56.3022 166.692 55.518 168.26 56.4287 169.474M68.1915 171.751C68.1915 172.383 68.2674 173.952 68.571 175.166M62.4998 175.545C63.1322 175.04 64.7765 174.104 66.2943 174.407M73.8832 179.719L77.2982 178.202M80.3338 175.925C80.3338 176.304 80.4856 177.443 81.0927 178.96M18.484 64.7471L19.6224 65.506M18.484 64.7471C19.2429 63.6088 20.0018 61.332 18.484 60.1937C17.2698 59.283 13.6777 54.7549 12.0334 52.6047C10.6421 54.1225 8.46662 58.3723 10.8951 63.2293C13.9307 69.3004 17.7251 65.8855 18.484 64.7471ZM23.7963 52.2253L24.5552 53.3636M28.7289 40.8419C21.8882 40.8419 25.5668 30.5968 28.7289 27.1818C33.6619 34.0119 32.1439 40.8419 28.7289 40.8419ZM28.7289 40.8419C28.6024 41.8538 28.6532 44.0293 29.8674 44.6364M62.1204 12.7628C61.8674 13.7747 61.5133 15.8743 62.1204 16.1779M62.1204 12.7628C68.7503 12.7628 67.0532 4.16177 65.5354 1C57.9465 4.41502 58.3259 12.7628 62.1204 12.7628ZM49.9781 18.834C49.5986 19.8459 49.2951 22.6285 49.5986 24.1462M99.3062 181.237C6.72117 179.34 -18.3223 52.2252 68.9504 12.7624C69.4563 10.1064 72.8208 5.24975 82.2311 7.07109C80.8397 10.6123 76.3117 16.7083 69.3299 12.7624M37.8358 30.2174C43.5275 28.3202 41.2508 19.9723 38.9741 17.3162C32.1441 21.8696 34.236 31.4173 37.8358 30.2174ZM37.8358 30.2174C37.5828 30.9763 37.3805 33.0253 38.5947 33.6324M62.4999 175.166C61.741 174.281 59.4643 172.737 56.4287 173.648C52.6342 174.786 51.4959 177.822 49.5987 178.202C50.737 179.34 54.0003 181.389 57.9465 180.478C62.8793 179.34 62.8793 176.684 62.4999 175.166ZM74.6421 180.099C73.5038 179.087 70.62 177.595 68.1915 179.719C65.156 182.376 65.156 186.17 62.8793 186.17C65.7884 187.308 72.2137 188.598 74.6421 184.652C75.0216 183.514 75.5528 181.01 74.6421 180.099ZM5.77255 67.7826C4.88718 70.3123 3.72354 75.9028 6.152 78.0277C9.18757 80.6838 13.7409 79.9249 13.7409 79.5455C13.7409 79.166 17.5354 75.3715 9.94646 71.5771C8.12512 70.6664 6.40496 68.668 5.77255 67.7826ZM1.38166 83.7439C1.41818 86.4238 2.24376 92.0741 5.25396 93.2366C9.01672 94.6897 13.0331 92.4142 12.9029 92.0578C12.7727 91.7014 15.0345 86.8352 6.60427 85.8756C4.58101 85.6452 2.2795 84.3585 1.38166 83.7439ZM19.4719 112.225C18.6377 109.939 19.218 104.728 28.212 102.168C28.8492 105.141 30.0873 110.24 25.0739 112.154C21.3878 113.332 19.4719 112.225 19.4719 112.225ZM29.4001 136.723C27.8489 134.849 26.6511 129.745 34.269 124.321C35.8649 126.909 38.7386 131.3 34.6552 134.781C31.576 137.125 29.4001 136.723 29.4001 136.723ZM22.1906 135.373C21.819 132.963 18.5897 128.632 8.64561 130.587C9.559 133.512 10.986 138.596 16.7784 137.937C20.9196 137.249 22.1906 135.373 22.1906 135.373ZM23.1084 125.136C25.2101 125.911 30.3251 125.02 33.971 115.255C31.1783 114.726 26.4082 113.664 23.9053 119.132C22.2872 123.141 23.1084 125.136 23.1084 125.136ZM41.2508 34.3913C41.7567 34.2649 43.9069 33.3289 46.9425 35.1502C49.9781 36.9715 51.7488 39.4506 51.8753 41.2213C50.3575 41.0949 45.8801 43.0427 43.148 42.7391C39.733 42.3597 36.6975 39.324 38.9741 35.909C39.5812 34.9983 40.7449 34.5178 41.2508 34.3913ZM29.488 54.502C27.9702 54.502 24.9346 56.0198 24.5552 57.917C24.1757 59.8142 25.3141 63.2293 28.7291 62.8498C32.1441 62.4704 38.9741 57.1581 38.9741 57.1581C38.9741 57.1581 34.8002 54.7549 29.488 54.502ZM35.5319 145.949C34.9533 145.437 34.4895 143.674 35.9246 140.658C37.3597 137.642 41.198 136.189 42.9377 135.839C42.9975 137.243 43.1251 140.686 43.1574 143.224C43.1978 146.396 41.152 149.791 37.6486 147.842C36.2908 147.087 36.1826 146.524 35.5319 145.949ZM44.3548 155.068C44.1677 154.622 42.9777 152.78 44.4128 149.764C45.8479 146.748 48.0892 144.802 49.829 144.452C49.8887 145.856 51.6132 149.792 51.6456 152.33C51.686 155.502 49.7995 158.578 46.1368 156.948C45.1601 156.514 44.5418 155.514 44.3548 155.068ZM53.9251 163.677C53.7381 163.231 52.548 161.389 53.9831 158.373C55.4183 155.357 57.6596 153.41 59.3993 153.061C59.4591 154.465 61.9359 158.3 61.9682 160.838C62.0086 164.01 59.3699 167.187 55.7072 165.557C54.7304 165.123 54.1122 164.122 53.9251 163.677ZM67.164 171.09C64.676 169.656 63.9535 168.34 63.5535 166.982C62.9934 165.079 65.1179 160.536 66.2502 158.502C66.3273 159.08 66.9225 160.671 68.6861 162.413C70.8906 164.591 72.47 173.559 67.164 171.09ZM75.2938 171.77C75.4789 173.158 77.3536 175.732 79.2805 175.828C81.2073 175.924 84.4535 174.432 83.6609 171.36C82.8683 168.288 76.7696 162.747 76.7696 162.747C76.7696 162.747 74.8967 166.88 75.2938 171.77ZM2.30566 96.3971C4.64122 97.7654 9.67948 100.598 11.148 100.981C12.9836 101.461 13.1425 103.855 12.8708 105.196C12.599 106.537 10.3786 111.134 5.2717 106.663C1.18616 103.085 1.59203 98.3285 2.30566 96.3971ZM30.6139 78.7566C26.0941 77.6467 15.3501 79.3966 18.6668 85.3795C20.3225 88.3663 27.0321 86.3824 30.6139 78.7566ZM27.5908 91.308C21.1401 89.7905 14.8197 94.4035 18.9221 99.3437C20.9701 101.81 24.1757 97.3794 27.5908 91.308ZM3.53432 115.92C5.76173 122.923 13.8353 126.445 16.2579 119.815C17.4673 116.505 11.3531 115.863 3.53432 115.92ZM18.8635 39.7036C17.3457 41.6008 14.6895 46.1542 16.2073 49.1897C18.1046 52.9842 20.7607 53.3636 22.6579 52.6047C24.7122 51.783 25.8606 49.3568 21.899 45.3953C20.7607 44.2569 18.8635 40.4625 18.8635 39.7036ZM52.6342 6.88449C54.152 10.0463 56.4287 16.9368 50.737 18.834C47.1372 20.0339 45.0453 10.2995 52.6342 6.88449ZM16.8608 146.426C19.6485 144.298 27.7254 140.89 29.0716 147.382C29.842 151.097 21.7455 153.164 16.8608 146.426ZM26.5089 158.432C29.2966 156.304 35.5813 152.676 38.5947 157.864C40.5005 161.145 31.3936 165.17 26.5089 158.432ZM35.9762 169.121C38.1147 166.353 45.8264 162.429 48.8397 167.616C50.7456 170.898 41.8215 174.885 35.9762 169.121Z" stroke="#2C2C2C"/>
<path d="M103.073 181.237C99.2788 181.49 90.3239 184.121 84.8599 192.621M98.8994 181.237C102.82 181.237 111.952 183.59 117.113 193" stroke="#2C2C2C"/>
<path d="M54.1284 91.0247V85.0247C54.1284 82.2747 51.8784 80.0247 49.1284 80.0247H48.0784C45.2784 80.0247 43.0784 82.2747 43.0784 85.0247V86.2247C43.0784 87.4247 43.2784 88.6247 43.6784 89.7247L49.7784 106.025C50.2284 107.125 50.4284 108.325 50.4284 109.525V110.325C50.4284 111.325 49.6284 112.125 48.6284 112.125H48.5284C47.5784 112.125 46.7284 111.325 46.7284 110.325V104.075C46.7284 103.675 46.4284 103.375 46.0284 103.375H43.7784C43.3784 103.375 43.0784 103.675 43.0784 104.075V110.025C43.0784 112.825 45.2784 115.025 48.0784 115.025H49.1284C51.8784 115.025 54.1284 112.825 54.1284 110.025V108.875C54.1284 107.675 53.9284 106.475 53.4784 105.325L47.3784 89.0747C46.9784 87.9247 46.7284 86.7747 46.7284 85.5747V84.7747C46.7284 83.7747 47.5784 82.9747 48.5284 82.9747H48.6284C49.6284 82.9747 50.4284 83.7747 50.4284 84.7747V91.0247C50.4284 91.3747 50.7784 91.7247 51.1284 91.7247H53.4284C53.8284 91.7247 54.1284 91.3747 54.1284 91.0247ZM68.4917 81.6747C68.3917 80.7747 67.5917 80.0247 66.6917 80.0247H63.7917C62.8917 80.0247 62.0917 80.7747 62.0417 81.6747L59.1917 114.275C59.1417 114.675 59.4417 115.025 59.8917 115.025H61.8417C62.1917 115.025 62.4917 114.775 62.5417 114.425L63.4417 103.975C63.4917 103.625 63.7917 103.375 64.1417 103.375H66.3417C66.7417 103.375 67.0417 103.625 67.0417 103.975L67.9917 114.425C67.9917 114.775 68.2917 115.025 68.6917 115.025H70.6417C71.0417 115.025 71.3917 114.675 71.3417 114.275L68.4917 81.6747ZM65.9917 100.425H64.5417C64.0917 100.425 63.7917 100.075 63.8417 99.6747L64.9917 86.3747C64.9917 86.3747 65.0417 85.9747 65.2417 85.9747C65.4917 85.9747 65.4917 86.3747 65.4917 86.3747L66.6917 99.6747C66.6917 100.075 66.3917 100.425 65.9917 100.425ZM74.6213 80.7247V82.2747C74.6213 82.6247 74.9213 82.9747 75.3213 82.9747H77.5713C77.9713 82.9747 78.2713 83.2747 78.2713 83.6747V114.325C78.2713 114.725 78.6213 115.025 78.9713 115.025H81.2713C81.6713 115.025 81.9713 114.725 81.9713 114.325V83.6747C81.9713 83.2747 82.3213 82.9747 82.6713 82.9747H84.9713C85.3713 82.9747 85.6713 82.6247 85.6713 82.2747V80.7247C85.6713 80.3747 85.3713 80.0247 84.9713 80.0247H75.2713C74.9213 80.0247 74.6213 80.3747 74.6213 80.7247ZM90.7346 80.7247V114.325C90.7346 114.725 91.0346 115.025 91.4346 115.025H93.6846C94.0846 115.025 94.3846 114.725 94.3846 114.325V80.7247C94.3846 80.3747 94.0846 80.0247 93.6846 80.0247H91.4346C91.0346 80.0247 90.7346 80.3747 90.7346 80.7247ZM110.476 91.0247V85.0247C110.476 82.2747 108.226 80.0247 105.476 80.0247H104.426C101.626 80.0247 99.426 82.2747 99.426 85.0247V86.2247C99.426 87.4247 99.626 88.6247 100.026 89.7247L106.126 106.025C106.576 107.125 106.776 108.325 106.776 109.525V110.325C106.776 111.325 105.976 112.125 104.976 112.125H104.876C103.926 112.125 103.076 111.325 103.076 110.325V104.075C103.076 103.675 102.776 103.375 102.376 103.375H100.126C99.726 103.375 99.426 103.675 99.426 104.075V110.025C99.426 112.825 101.626 115.025 104.426 115.025H105.476C108.226 115.025 110.476 112.825 110.476 110.025V108.875C110.476 107.675 110.276 106.475 109.826 105.325L103.726 89.0747C103.326 87.9247 103.076 86.7747 103.076 85.5747V84.7747C103.076 83.7747 103.926 82.9747 104.876 82.9747H104.976C105.976 82.9747 106.776 83.7747 106.776 84.7747V91.0247C106.776 91.3747 107.126 91.7247 107.476 91.7247H109.776C110.176 91.7247 110.476 91.3747 110.476 91.0247ZM122.889 82.2747V80.7247C122.889 80.3747 122.589 80.0247 122.189 80.0247H116.239C115.839 80.0247 115.539 80.3747 115.539 80.7247V114.325C115.539 114.725 115.839 115.025 116.239 115.025H118.489C118.889 115.025 119.189 114.725 119.189 114.325V99.6747C119.189 99.3247 119.539 98.9747 119.889 98.9747H122.189C122.589 98.9747 122.889 98.6747 122.889 98.2747V96.7747C122.889 96.3747 122.589 96.0747 122.189 96.0747H119.889C119.539 96.0747 119.189 95.7747 119.189 95.3747V83.6747C119.189 83.2747 119.539 82.9747 119.889 82.9747H122.189C122.589 82.9747 122.889 82.6247 122.889 82.2747ZM127.942 80.7247V114.325C127.942 114.725 128.242 115.025 128.642 115.025H130.892C131.292 115.025 131.592 114.725 131.592 114.325V80.7247C131.592 80.3747 131.292 80.0247 130.892 80.0247H128.642C128.242 80.0247 127.942 80.3747 127.942 80.7247ZM143.983 82.2747V80.7247C143.983 80.3747 143.683 80.0247 143.283 80.0247H137.333C136.933 80.0247 136.633 80.3747 136.633 80.7247V114.325C136.633 114.725 136.933 115.025 137.333 115.025H143.283C143.683 115.025 143.983 114.725 143.983 114.325V112.825C143.983 112.425 143.683 112.125 143.283 112.125H140.983C140.633 112.125 140.283 111.825 140.283 111.425V99.6747C140.283 99.3247 140.633 98.9747 140.983 98.9747H143.283C143.683 98.9747 143.983 98.6747 143.983 98.2747V96.7747C143.983 96.3747 143.683 96.0747 143.283 96.0747H140.983C140.633 96.0747 140.283 95.7747 140.283 95.3747V83.6747C140.283 83.2747 140.633 82.9747 140.983 82.9747H143.283C143.683 82.9747 143.983 82.6247 143.983 82.2747ZM149.035 80.7247V114.325C149.035 114.725 149.335 115.025 149.735 115.025H155.085C157.835 115.025 160.085 112.825 160.085 110.025V85.0247C160.085 82.2747 157.835 80.0247 155.085 80.0247H149.735C149.335 80.0247 149.035 80.3747 149.035 80.7247ZM154.585 112.125H153.385C153.035 112.125 152.685 111.825 152.685 111.425V83.6747C152.685 83.2747 153.035 82.9747 153.385 82.9747H154.585C155.585 82.9747 156.385 83.7747 156.385 84.7747V110.325C156.385 111.325 155.585 112.125 154.585 112.125Z" fill="#2C2C2C"/>
</svg>
