<svg width="452" height="436" viewBox="0 0 452 436" fill="none" xmlns="http://www.w3.org/2000/svg">
<path d="M41.695 332.355C41.695 332.355 29.9288 332.598 27.1459 338.097C24.363 343.595 13.5243 367.731 13.5243 367.731C13.5243 367.731 12.2061 370.407 13.5243 371.721C14.8426 373.035 33.2975 399.945 33.2975 399.945C33.2975 399.945 33.981 400.966 36.8616 400.966C39.7421 400.966 230.15 401.356 376.032 313.036C376.032 313.036 417.19 365.152 441.211 338.145C441.211 338.145 445.654 331.187 435.694 331.187C425.734 331.187 412.942 334.253 396.001 303.207L398.149 301.747L401.127 278.585L386.529 266.809C386.529 266.809 384.967 265.446 382.038 265.544C379.157 265.641 371.59 265.057 371.59 265.057L371.394 263.354C371.394 263.354 334.143 204.815 292.643 174.84C251.144 144.865 118.347 22.3373 118.347 22.3373C118.347 22.3373 82.999 18.7851 81.7784 73.2364L239.28 211.822C239.28 211.822 246.408 218.586 259.297 211.238C272.235 203.842 276.678 200.728 276.678 200.728C276.678 200.728 295.329 223.841 320.961 251.091C346.592 278.341 344.493 278.585 344.493 278.585C344.493 278.585 201.345 340.14 41.695 332.355Z" stroke="#2C2C2C" stroke-miterlimit="10"/>
<path d="M276.678 200.679C276.678 200.679 284.636 193.331 290.836 200.241C297.037 207.151 311.439 218.197 329.846 243.792C348.252 269.388 356.454 274.984 356.454 274.984L344.492 278.536" stroke="#2C2C2C" stroke-miterlimit="10"/>
<path d="M35.2987 333.133L18.5526 366.855C18.5526 366.855 17.039 369.385 18.5526 370.894C20.0661 372.402 40.4251 400.918 40.4251 400.918" stroke="#2C2C2C" stroke-miterlimit="10"/>
<path d="M376.032 312.988L383.893 308.852C383.893 308.852 404.642 342.525 431.251 344.763" stroke="#2C2C2C" stroke-miterlimit="10"/>
<path d="M356.454 275.032L381.158 265.592" stroke="#2C2C2C" stroke-miterlimit="10"/>
<path d="M383.893 308.852L396.001 303.158" stroke="#2C2C2C" stroke-miterlimit="10"/>
<path d="M387.896 268.025C387.896 268.025 260.372 338.389 99.1592 332.306" stroke="#2C2C2C" stroke-miterlimit="10"/>
<ellipse cx="44" cy="352.002" rx="4" ry="5" fill="#2C2C2C"/>
<ellipse cx="385" cy="289.002" rx="4" ry="5" fill="#2C2C2C"/>
<ellipse cx="44" cy="378.002" rx="4" ry="5" fill="#2C2C2C"/>
</svg>
