<svg width="155" height="1107" viewBox="0 0 155 1107" fill="none" xmlns="http://www.w3.org/2000/svg">
<mask id="mask0" mask-type="alpha" maskUnits="userSpaceOnUse" x="0" y="0" width="155" height="1107">
<rect width="155" height="1107" fill="#C4C4C4"/>
</mask>
<g mask="url(#mask0)">
<path d="M-64.568 1453.42L-55.64 1453.42L-55.64 1451.42L-64.568 1451.42L-64.568 1453.42ZM-55.64 1453.42C-53.1183 1453.42 -50.608 1451.29 -50.608 1448.38L-52.608 1448.38C-52.608 1450.09 -54.1297 1451.42 -55.64 1451.42L-55.64 1453.42ZM-50.608 1448.38L-50.608 1435.42L-52.608 1435.42L-52.608 1448.38L-50.608 1448.38ZM-50.608 1435.42C-50.608 1433.67 -49.3277 1432.39 -47.576 1432.39L-47.576 1430.39C-50.4323 1430.39 -52.608 1432.57 -52.608 1435.42L-50.608 1435.42ZM-47.576 1432.39L128.968 1432.39L128.968 1430.39L-47.576 1430.39L-47.576 1432.39ZM128.968 1432.39C131.87 1432.39 134 1429.88 134 1427.36L132 1427.36C132 1428.87 130.674 1430.39 128.968 1430.39L128.968 1432.39ZM134 1427.36L134 1414.11L132 1414.11L132 1427.36L134 1427.36ZM134 1414.11C134 1411.26 131.824 1409.08 128.968 1409.08L128.968 1411.08C130.72 1411.08 132 1412.36 132 1414.11L134 1414.11ZM128.968 1409.08L-47.576 1409.08L-47.576 1411.08L128.968 1411.08L128.968 1409.08ZM-47.576 1409.08C-49.2823 1409.08 -50.608 1407.56 -50.608 1406.05L-52.608 1406.05C-52.608 1408.57 -50.4777 1411.08 -47.576 1411.08L-47.576 1409.08ZM-50.608 1406.05L-50.608 1392.8L-52.608 1392.8L-52.608 1406.05L-50.608 1406.05ZM-50.608 1392.8C-50.608 1389.9 -53.1183 1387.77 -55.64 1387.77L-55.64 1389.77C-54.1298 1389.77 -52.608 1391.09 -52.608 1392.8L-50.608 1392.8ZM-55.64 1387.77L-64.568 1387.77L-64.568 1389.77L-55.64 1389.77L-55.64 1387.77ZM-64.568 1387.77C-67.0898 1387.77 -69.6 1389.9 -69.6 1392.8L-67.6 1392.8C-67.6 1391.09 -66.0783 1389.77 -64.568 1389.77L-64.568 1387.77ZM-69.6 1392.8L-69.6 1448.67L-67.6 1448.67L-67.6 1392.8L-69.6 1392.8ZM-69.6 1448.67C-69.6 1450.02 -68.929 1451.21 -68.0109 1452.04C-67.0939 1452.87 -65.8531 1453.42 -64.568 1453.42L-64.568 1451.42C-65.2989 1451.42 -66.0741 1451.1 -66.6691 1450.56C-67.263 1450.02 -67.6 1449.34 -67.6 1448.67L-69.6 1448.67ZM-39.8 1369.95L104.2 1369.95L104.2 1367.95L-39.8 1367.95L-39.8 1369.95ZM104.2 1369.95C120.88 1369.95 134 1356.83 134 1340.15L132 1340.15C132 1355.73 119.776 1367.95 104.2 1367.95L104.2 1369.95ZM134 1340.15L134 1334.11L132 1334.11L132 1340.15L134 1340.15ZM134 1334.11C134 1317.72 120.887 1304.31 104.2 1304.31L104.2 1306.31C119.769 1306.31 132 1318.81 132 1334.11L134 1334.11ZM104.2 1304.31L-39.8 1304.31L-39.8 1306.31L104.2 1306.31L104.2 1304.31ZM-39.8 1304.31C-56.1923 1304.31 -69.6 1317.71 -69.6 1334.11L-67.6 1334.11C-67.6 1318.82 -55.0877 1306.31 -39.8 1306.31L-39.8 1304.31ZM-69.6 1334.11L-69.6 1340.15L-67.6 1340.15L-67.6 1334.11L-69.6 1334.11ZM-69.6 1340.15C-69.6 1356.84 -56.1858 1369.95 -39.8 1369.95L-39.8 1367.95C-55.0943 1367.95 -67.6 1355.72 -67.6 1340.15L-69.6 1340.15ZM115.296 1336.99L115.296 1337.56L117.296 1337.56L117.296 1336.99L115.296 1336.99ZM115.296 1337.56C115.296 1342.77 111.136 1346.93 105.928 1346.93L105.928 1348.93C112.24 1348.93 117.296 1343.87 117.296 1337.56L115.296 1337.56ZM105.928 1346.93L-41.24 1346.93L-41.24 1348.93L105.928 1348.93L105.928 1346.93ZM-41.24 1346.93C-46.4477 1346.93 -50.608 1342.77 -50.608 1337.56L-52.608 1337.56C-52.608 1343.87 -47.5523 1348.93 -41.24 1348.93L-41.24 1346.93ZM-50.608 1337.56L-50.608 1336.99L-52.608 1336.99L-52.608 1337.56L-50.608 1337.56ZM-50.608 1336.99C-50.608 1331.78 -46.4477 1327.62 -41.24 1327.62L-41.24 1325.62C-47.5523 1325.62 -52.608 1330.67 -52.608 1336.99L-50.608 1336.99ZM-41.24 1327.62L105.928 1327.62L105.928 1325.62L-41.24 1325.62L-41.24 1327.62ZM105.928 1327.62C111.136 1327.62 115.296 1331.78 115.296 1336.99L117.296 1336.99C117.296 1330.67 112.24 1325.62 105.928 1325.62L105.928 1327.62ZM-64.568 1237.68L105.928 1237.68L105.928 1235.68L-64.568 1235.68L-64.568 1237.68ZM105.928 1237.68C111.136 1237.68 115.296 1241.84 115.296 1247.05L117.296 1247.05C117.296 1240.74 112.24 1235.68 105.928 1235.68L105.928 1237.68ZM115.296 1247.05L115.296 1247.63L117.296 1247.63L117.296 1247.05L115.296 1247.05ZM115.296 1247.63C115.296 1252.57 111.118 1257 105.928 1257L105.928 1259C112.258 1259 117.296 1253.63 117.296 1247.63L115.296 1247.63ZM105.928 1257L-64.568 1257L-64.568 1259L105.928 1259L105.928 1257ZM-64.568 1257C-67.0898 1257 -69.6 1259.13 -69.6 1262.03L-67.6 1262.03C-67.6 1260.32 -66.0783 1259 -64.568 1259L-64.568 1257ZM-69.6 1262.03L-69.6 1274.99L-67.6 1274.99L-67.6 1262.03L-69.6 1262.03ZM-69.6 1274.99C-69.6 1277.89 -67.0898 1280.02 -64.568 1280.02L-64.568 1278.02C-66.0783 1278.02 -67.6 1276.69 -67.6 1274.99L-69.6 1274.99ZM-64.568 1280.02L104.2 1280.02L104.2 1278.02L-64.568 1278.02L-64.568 1280.02ZM104.2 1280.02C120.88 1280.02 134 1266.9 134 1250.22L132 1250.22C132 1265.8 119.776 1278.02 104.2 1278.02L104.2 1280.02ZM134 1250.22L134 1244.17L132 1244.17L132 1250.22L134 1250.22ZM134 1244.17C134 1227.79 120.887 1214.37 104.2 1214.37L104.2 1216.37C119.769 1216.37 132 1228.88 132 1244.17L134 1244.17ZM104.2 1214.37L-64.568 1214.37L-64.568 1216.37L104.2 1216.37L104.2 1214.37ZM-64.568 1214.37C-67.0898 1214.37 -69.6 1216.5 -69.6 1219.4L-67.6 1219.4C-67.6 1217.7 -66.0783 1216.37 -64.568 1216.37L-64.568 1214.37ZM-69.6 1219.4L-69.6 1232.65L-67.6 1232.65L-67.6 1219.4L-69.6 1219.4ZM-69.6 1232.65C-69.6 1233.99 -68.9435 1235.24 -68.0471 1236.13C-67.1508 1237.03 -65.9013 1237.68 -64.568 1237.68L-64.568 1235.68C-65.2508 1235.68 -66.0173 1235.33 -66.6329 1234.72C-67.2486 1234.1 -67.6 1233.34 -67.6 1232.65L-69.6 1232.65ZM-64.568 1190.09L-55.64 1190.09L-55.64 1188.09L-64.568 1188.09L-64.568 1190.09ZM-55.64 1190.09C-53.1183 1190.09 -50.608 1187.96 -50.608 1185.06L-52.608 1185.06C-52.608 1186.76 -54.1298 1188.09 -55.64 1188.09L-55.64 1190.09ZM-50.608 1185.06L-50.608 1172.1L-52.608 1172.1L-52.608 1185.06L-50.608 1185.06ZM-50.608 1172.1C-50.608 1170.34 -49.3277 1169.06 -47.576 1169.06L-47.576 1167.06C-50.4323 1167.06 -52.608 1169.24 -52.608 1172.1L-50.608 1172.1ZM-47.576 1169.06L128.968 1169.06L128.968 1167.06L-47.576 1167.06L-47.576 1169.06ZM128.968 1169.06C131.87 1169.06 134 1166.55 134 1164.03L132 1164.03C132 1165.54 130.674 1167.06 128.968 1167.06L128.968 1169.06ZM134 1164.03L134 1150.78L132 1150.78L132 1164.03L134 1164.03ZM134 1150.78C134 1147.93 131.824 1145.75 128.968 1145.75L128.968 1147.75C130.72 1147.75 132 1149.03 132 1150.78L134 1150.78ZM128.968 1145.75L-47.576 1145.75L-47.576 1147.75L128.968 1147.75L128.968 1145.75ZM-47.576 1145.75C-49.2823 1145.75 -50.608 1144.23 -50.608 1142.72L-52.608 1142.72C-52.608 1145.24 -50.4777 1147.75 -47.576 1147.75L-47.576 1145.75ZM-50.608 1142.72L-50.608 1129.47L-52.608 1129.47L-52.608 1142.72L-50.608 1142.72ZM-50.608 1129.47C-50.608 1126.57 -53.1183 1124.44 -55.64 1124.44L-55.64 1126.44C-54.1298 1126.44 -52.608 1127.77 -52.608 1129.47L-50.608 1129.47ZM-55.64 1124.44L-64.568 1124.44L-64.568 1126.44L-55.64 1126.44L-55.64 1124.44ZM-64.568 1124.44C-67.0898 1124.44 -69.6 1126.57 -69.6 1129.47L-67.6 1129.47C-67.6 1127.77 -66.0783 1126.44 -64.568 1126.44L-64.568 1124.44ZM-69.6 1129.47L-69.6 1185.34L-67.6 1185.34L-67.6 1129.47L-69.6 1129.47ZM-69.6 1185.34C-69.6 1186.69 -68.929 1187.88 -68.0109 1188.71C-67.0939 1189.54 -65.8531 1190.09 -64.568 1190.09L-64.568 1188.09C-65.2989 1188.09 -66.0741 1187.77 -66.6691 1187.23C-67.263 1186.69 -67.6 1186.01 -67.6 1185.34L-69.6 1185.34ZM-69.6 1051.88C-69.6 1054.78 -67.0898 1056.91 -64.568 1056.91L-64.568 1054.91C-66.0783 1054.91 -67.6 1053.58 -67.6 1051.88L-69.6 1051.88ZM-64.568 1056.91L128.968 1056.91L128.968 1054.91L-64.568 1054.91L-64.568 1056.91ZM128.968 1056.91C131.824 1056.91 134 1054.73 134 1051.88L132 1051.88C132 1053.63 130.72 1054.91 128.968 1054.91L128.968 1056.91ZM134 1051.88L134 1038.92L132 1038.92L132 1051.88L134 1051.88ZM134 1038.92C134 1036.06 131.824 1033.89 128.968 1033.89L128.968 1035.89C130.72 1035.89 132 1037.17 132 1038.92L134 1038.92ZM128.968 1033.89L44.584 1033.89L44.584 1035.89L128.968 1035.89L128.968 1033.89ZM44.584 1033.89C43.9012 1033.89 43.1347 1033.54 42.5191 1032.92C41.9034 1032.3 41.552 1031.54 41.552 1030.85L39.552 1030.85C39.552 1032.19 40.2085 1033.44 41.1049 1034.33C42.0012 1035.23 43.2507 1035.89 44.584 1035.89L44.584 1033.89ZM41.552 1030.85L41.552 1021.06L39.552 1021.06L39.552 1030.85L41.552 1030.85ZM41.552 1021.06C41.552 1004.68 28.4388 991.263 11.752 991.263L11.752 993.263C27.3212 993.263 39.552 1005.77 39.552 1021.06L41.552 1021.06ZM11.752 991.263L-39.8 991.263L-39.8 993.263L11.752 993.263L11.752 991.263ZM-39.8 991.263C-56.1923 991.263 -69.6 1004.67 -69.6 1021.06L-67.6 1021.06C-67.6 1005.77 -55.0877 993.263 -39.8 993.263L-39.8 991.263ZM-69.6 1021.06L-69.6 1051.88L-67.6 1051.88L-67.6 1021.06L-69.6 1021.06ZM22.848 1023.94L22.848 1030.85L24.848 1030.85L24.848 1023.94L22.848 1023.94ZM22.848 1030.85C22.848 1032.36 21.5223 1033.89 19.816 1033.89L19.816 1035.89C22.7177 1035.89 24.848 1033.38 24.848 1030.85L22.848 1030.85ZM19.816 1033.89L-47.576 1033.89L-47.576 1035.89L19.816 1035.89L19.816 1033.89ZM-47.576 1033.89C-49.2823 1033.89 -50.608 1032.36 -50.608 1030.85L-52.608 1030.85C-52.608 1033.38 -50.4777 1035.89 -47.576 1035.89L-47.576 1033.89ZM-50.608 1030.85L-50.608 1023.94L-52.608 1023.94L-52.608 1030.85L-50.608 1030.85ZM-50.608 1023.94C-50.608 1018.73 -46.4477 1014.57 -41.24 1014.57L-41.24 1012.57C-47.5523 1012.57 -52.608 1017.63 -52.608 1023.94L-50.608 1023.94ZM-41.24 1014.57L13.48 1014.57L13.48 1012.57L-41.24 1012.57L-41.24 1014.57ZM13.48 1014.57C18.6877 1014.57 22.848 1018.73 22.848 1023.94L24.848 1023.94C24.848 1017.63 19.7923 1012.57 13.48 1012.57L13.48 1014.57ZM-39.8 966.978L104.2 966.978L104.2 964.978L-39.8 964.978L-39.8 966.978ZM104.2 966.978C120.88 966.978 134 953.858 134 937.178L132 937.178C132 952.754 119.776 964.978 104.2 964.978L104.2 966.978ZM134 937.178L134 931.13L132 931.13L132 937.178L134 937.178ZM134 931.13C134 914.744 120.887 901.33 104.2 901.33L104.2 903.33C119.769 903.33 132 915.836 132 931.13L134 931.13ZM104.2 901.33L-39.8 901.33L-39.8 903.33L104.2 903.33L104.2 901.33ZM-39.8 901.33C-56.1923 901.33 -69.6 914.738 -69.6 931.13L-67.6 931.13C-67.6 915.842 -55.0877 903.33 -39.8 903.33L-39.8 901.33ZM-69.6 931.13L-69.6 937.178L-67.6 937.178L-67.6 931.13L-69.6 931.13ZM-69.6 937.178C-69.6 953.865 -56.1858 966.978 -39.8 966.978L-39.8 964.978C-55.0943 964.978 -67.6 952.747 -67.6 937.178L-69.6 937.178ZM115.296 934.01L115.296 934.586L117.296 934.586L117.296 934.01L115.296 934.01ZM115.296 934.586C115.296 939.794 111.136 943.954 105.928 943.954L105.928 945.954C112.24 945.954 117.296 940.898 117.296 934.586L115.296 934.586ZM105.928 943.954L-41.24 943.954L-41.24 945.954L105.928 945.954L105.928 943.954ZM-41.24 943.954C-46.4477 943.954 -50.608 939.794 -50.608 934.586L-52.608 934.586C-52.608 940.898 -47.5523 945.954 -41.24 945.954L-41.24 943.954ZM-50.608 934.586L-50.608 934.01L-52.608 934.01L-52.608 934.586L-50.608 934.586ZM-50.608 934.01C-50.608 928.802 -46.4477 924.642 -41.24 924.642L-41.24 922.642C-47.5523 922.642 -52.608 927.698 -52.608 934.01L-50.608 934.01ZM-41.24 924.642L105.928 924.642L105.928 922.642L-41.24 922.642L-41.24 924.642ZM105.928 924.642C111.136 924.642 115.296 928.802 115.296 934.01L117.296 934.01C117.296 927.698 112.24 922.642 105.928 922.642L105.928 924.642ZM-64.568 834.71L105.928 834.71L105.928 832.71L-64.568 832.71L-64.568 834.71ZM105.928 834.71C111.136 834.71 115.296 838.87 115.296 844.078L117.296 844.078C117.296 837.765 112.24 832.71 105.928 832.71L105.928 834.71ZM115.296 844.078L115.296 844.654L117.296 844.654L117.296 844.078L115.296 844.078ZM115.296 844.654C115.296 849.591 111.118 854.022 105.928 854.022L105.928 856.022C112.258 856.022 117.296 850.66 117.296 844.654L115.296 844.654ZM105.928 854.022L-64.568 854.022L-64.568 856.022L105.928 856.022L105.928 854.022ZM-64.568 854.022C-67.0898 854.022 -69.6 856.152 -69.6 859.054L-67.6 859.054C-67.6 857.347 -66.0783 856.022 -64.568 856.022L-64.568 854.022ZM-69.6 859.054L-69.6 872.014L-67.6 872.014L-67.6 859.054L-69.6 859.054ZM-69.6 872.014C-69.6 874.915 -67.0898 877.046 -64.568 877.046L-64.568 875.046C-66.0783 875.046 -67.6 873.72 -67.6 872.014L-69.6 872.014ZM-64.568 877.046L104.2 877.046L104.2 875.046L-64.568 875.046L-64.568 877.046ZM104.2 877.046C120.88 877.046 134 863.926 134 847.246L132 847.246C132 862.821 119.776 875.046 104.2 875.046L104.2 877.046ZM134 847.246L134 841.198L132 841.198L132 847.246L134 847.246ZM134 841.198C134 824.812 120.887 811.398 104.2 811.398L104.2 813.398C119.769 813.398 132 825.903 132 841.198L134 841.198ZM104.2 811.398L-64.568 811.398L-64.568 813.398L104.2 813.398L104.2 811.398ZM-64.568 811.398C-67.0898 811.398 -69.6 813.528 -69.6 816.43L-67.6 816.43C-67.6 814.723 -66.0783 813.398 -64.568 813.398L-64.568 811.398ZM-69.6 816.43L-69.6 829.678L-67.6 829.678L-67.6 816.43L-69.6 816.43ZM-69.6 829.678C-69.6 831.011 -68.9435 832.26 -68.0471 833.157C-67.1508 834.053 -65.9013 834.71 -64.568 834.71L-64.568 832.71C-65.2508 832.71 -66.0173 832.358 -66.6329 831.742C-67.2486 831.127 -67.6 830.36 -67.6 829.678L-69.6 829.678ZM32.2 730.817L31.4929 731.524L32.2 732.231L32.9071 731.524L32.2 730.817ZM11.752 721.465L-39.8 721.465L-39.8 723.465L11.752 723.465L11.752 721.465ZM-39.8 721.465C-56.1923 721.465 -69.6 734.873 -69.6 751.265L-67.6 751.265C-67.6 735.977 -55.0878 723.465 -39.8 723.465L-39.8 721.465ZM-69.6 751.265L-69.6 782.081L-67.6 782.081L-67.6 751.265L-69.6 751.265ZM-69.6 782.081C-69.6 784.983 -67.0898 787.113 -64.568 787.113L-64.568 785.113C-66.0783 785.113 -67.6 783.787 -67.6 782.081L-69.6 782.081ZM-64.568 787.113L128.968 787.113L128.968 785.113L-64.568 785.113L-64.568 787.113ZM128.968 787.113C131.824 787.113 134 784.937 134 782.081L132 782.081C132 783.833 130.72 785.113 128.968 785.113L128.968 787.113ZM134 782.081L134 769.121L132 769.121L132 782.081L134 782.081ZM134 769.121C134 766.265 131.824 764.089 128.968 764.089L128.968 766.089C130.72 766.089 132 767.369 132 769.121L134 769.121ZM128.968 764.089L44.584 764.089L44.584 766.089L128.968 766.089L128.968 764.089ZM44.584 764.089C43.9012 764.089 43.1347 763.738 42.5191 763.122C41.9034 762.506 41.552 761.74 41.552 761.057L39.552 761.057C39.552 762.39 40.2085 763.64 41.1049 764.536C42.0012 765.433 43.2507 766.089 44.584 766.089L44.584 764.089ZM41.552 761.057L41.552 754.145L39.552 754.145L39.552 761.057L41.552 761.057ZM41.552 754.145C41.552 748.937 45.7122 744.777 50.92 744.777L50.92 742.777C44.6077 742.777 39.552 747.833 39.552 754.145L41.552 754.145ZM50.92 744.777L128.968 744.777L128.968 742.777L50.92 742.777L50.92 744.777ZM128.968 744.777C131.87 744.777 134 742.267 134 739.745L132 739.745C132 741.255 130.674 742.777 128.968 742.777L128.968 744.777ZM134 739.745L134 726.497L132 726.497L132 739.745L134 739.745ZM134 726.497C134 723.641 131.824 721.465 128.968 721.465L128.968 723.465C130.72 723.465 132 724.745 132 726.497L134 726.497ZM128.968 721.465L52.648 721.465L52.648 723.465L128.968 723.465L128.968 721.465ZM52.648 721.465C44.3157 721.465 36.8622 724.741 31.4929 730.11L32.9071 731.524C37.9057 726.526 44.8522 723.465 52.648 723.465L52.648 721.465ZM32.9071 730.11C27.5377 724.741 20.0842 721.465 11.752 721.465L11.752 723.465C19.5477 723.465 26.4942 726.526 31.4929 731.524L32.9071 730.11ZM22.848 761.057C22.848 762.567 21.5223 764.089 19.816 764.089L19.816 766.089C22.7177 766.089 24.848 763.579 24.848 761.057L22.848 761.057ZM19.816 764.089L-47.576 764.089L-47.576 766.089L19.816 766.089L19.816 764.089ZM-47.576 764.089C-49.2823 764.089 -50.608 762.567 -50.608 761.057L-52.608 761.057C-52.608 763.579 -50.4777 766.089 -47.576 766.089L-47.576 764.089ZM-50.608 761.057L-50.608 754.145L-52.608 754.145L-52.608 761.057L-50.608 761.057ZM-50.608 754.145C-50.608 748.937 -46.4477 744.777 -41.24 744.777L-41.24 742.777C-47.5523 742.777 -52.608 747.833 -52.608 754.145L-50.608 754.145ZM-41.24 744.777L13.48 744.777L13.48 742.777L-41.24 742.777L-41.24 744.777ZM13.48 744.777C18.6877 744.777 22.848 748.937 22.848 754.145L24.848 754.145C24.848 747.833 19.7923 742.777 13.48 742.777L13.48 744.777ZM22.848 754.145L22.848 761.057L24.848 761.057L24.848 754.145L22.848 754.145ZM112.264 630.912L-64.5681 630.912L-64.5681 632.912L112.264 632.912L112.264 630.912ZM-64.5681 630.912C-67.0898 630.912 -69.6001 633.042 -69.6001 635.944L-67.6001 635.944C-67.6001 634.237 -66.0783 632.912 -64.5681 632.912L-64.5681 630.912ZM-69.6001 635.944L-69.6 648.904L-67.6 648.904L-67.6001 635.944L-69.6001 635.944ZM-69.6 648.904C-69.6 651.805 -67.0898 653.936 -64.568 653.936L-64.568 651.936C-66.0783 651.936 -67.6 650.61 -67.6 648.904L-69.6 648.904ZM-64.568 653.936L128.968 653.936L128.968 651.936L-64.568 651.936L-64.568 653.936ZM128.968 653.936C131.824 653.936 134 651.76 134 648.904L132 648.904C132 650.655 130.72 651.936 128.968 651.936L128.968 653.936ZM134 648.904L134 614.632L132 614.632L132 648.904L134 648.904ZM134 614.632C134 611.775 131.824 609.6 128.968 609.6L128.968 611.6C130.72 611.6 132 612.88 132 614.632L134 614.632ZM128.968 609.6L120.328 609.6L120.328 611.6L128.968 611.6L128.968 609.6ZM120.328 609.6C117.472 609.6 115.296 611.775 115.296 614.632L117.296 614.632C117.296 612.88 118.576 611.6 120.328 611.6L120.328 609.6ZM115.296 614.632L115.296 627.88L117.296 627.88L117.296 614.632L115.296 614.632ZM115.296 627.88C115.296 629.39 113.97 630.912 112.264 630.912L112.264 632.912C115.166 632.912 117.296 630.401 117.296 627.88L115.296 627.88ZM-59.0961 530.81L-59.1831 529.814L-59.1948 529.815L-59.2065 529.816L-59.0961 530.81ZM-59.0961 567.962L-59.009 566.966L-59.0248 566.965L-59.0406 566.964L-59.0961 567.962ZM128.68 584.378L128.804 583.386L128.786 583.384L128.767 583.382L128.68 584.378ZM129.544 565.082L129.685 564.092L129.658 564.088L129.63 564.086L129.544 565.082ZM69.352 559.898L69.2105 560.888L69.2383 560.892L69.2661 560.894L69.352 559.898ZM69.3519 539.162L69.3519 540.162L69.3973 540.162L69.4425 540.158L69.3519 539.162ZM129.544 533.69L129.544 532.69L129.499 532.69L129.453 532.694L129.544 533.69ZM128.68 514.394L128.767 515.39L128.786 515.389L128.804 515.386L128.68 514.394ZM44.584 557.594L44.708 556.602L44.6891 556.599L44.6701 556.598L44.584 557.594ZM-32.024 550.97L-32.1481 551.962L-32.1292 551.965L-32.1102 551.966L-32.024 550.97ZM-32.024 548.09L-32.024 549.09L-31.979 549.09L-31.9342 549.086L-32.024 548.09ZM44.584 541.178L44.584 540.178L44.5389 540.178L44.4941 540.182L44.584 541.178ZM-59.2065 529.816C-64.8694 530.445 -69.6001 535.457 -69.6001 541.178L-67.6001 541.178C-67.6001 536.531 -63.6907 532.327 -58.9856 531.804L-59.2065 529.816ZM-69.6001 541.178L-69.6001 557.882L-67.6001 557.882L-67.6001 541.178L-69.6001 541.178ZM-69.6001 557.882C-69.6001 563.592 -64.8701 568.643 -59.1515 568.961L-59.0406 566.964C-63.69 566.705 -67.6001 562.54 -67.6001 557.882L-69.6001 557.882ZM-59.1831 568.958L128.593 585.374L128.767 583.382L-59.009 566.966L-59.1831 568.958ZM128.556 585.37C131.486 585.737 134 583.51 134 580.346L132 580.346C132 582.366 130.482 583.596 128.804 583.386L128.556 585.37ZM134 580.346L134 569.114L132 569.114L132 580.346L134 580.346ZM134 569.114C134 566.618 132.211 564.453 129.685 564.092L129.403 566.072C130.909 566.287 132 567.578 132 569.114L134 569.114ZM129.63 564.086L69.4378 558.902L69.2661 560.894L129.458 566.078L129.63 564.086ZM69.4934 558.908C67.9873 558.693 66.896 557.402 66.896 555.866L64.896 555.866C64.896 558.362 66.6846 560.527 69.2105 560.888L69.4934 558.908ZM66.896 555.866L66.896 543.194L64.896 543.194L64.896 555.866L66.896 555.866ZM66.896 543.194C66.896 541.284 68.0345 540.162 69.3519 540.162L69.3519 538.162C66.6374 538.162 64.896 540.496 64.896 543.194L66.896 543.194ZM69.4425 540.158L129.634 534.686L129.453 532.694L69.2614 538.166L69.4425 540.158ZM129.544 534.69C132.258 534.69 134 532.356 134 529.658L132 529.658C132 531.568 130.861 532.69 129.544 532.69L129.544 534.69ZM134 529.658L134 518.426L132 518.426L132 529.658L134 529.658ZM134 518.426C134 515.6 131.533 513.03 128.556 513.402L128.804 515.386C130.435 515.183 132 516.644 132 518.426L134 518.426ZM128.593 513.398L-59.1831 529.814L-59.009 531.806L128.767 515.39L128.593 513.398ZM47.904 545.21L47.904 553.562L49.904 553.562L49.904 545.21L47.904 545.21ZM47.904 553.562C47.904 555.582 46.3861 556.812 44.708 556.602L44.4599 558.586C47.3898 558.953 49.904 556.726 49.904 553.562L47.904 553.562ZM44.6701 556.598L-31.9379 549.974L-32.1102 551.966L44.4978 558.59L44.6701 556.598ZM-32.024 550.97C-31.9 549.978 -31.8998 549.978 -31.8996 549.978C-31.8995 549.978 -31.8993 549.978 -31.8992 549.978C-31.8989 549.978 -31.8987 549.978 -31.8985 549.978C-31.8981 549.978 -31.8979 549.978 -31.8978 549.978C-31.8976 549.978 -31.8979 549.978 -31.8988 549.978C-31.9004 549.978 -31.9041 549.977 -31.9097 549.976C-31.9208 549.975 -31.9394 549.972 -31.9644 549.968C-32.0145 549.96 -32.0892 549.947 -32.1801 549.928C-32.3656 549.89 -32.6005 549.83 -32.8249 549.746C-33.0603 549.658 -33.2223 549.565 -33.3095 549.489C-33.3839 549.423 -33.3281 549.443 -33.3281 549.53L-35.3281 549.53C-35.3281 550.193 -34.9842 550.681 -34.6266 550.994C-34.2818 551.295 -33.8678 551.491 -33.5272 551.618C-33.1756 551.75 -32.8345 551.835 -32.588 551.886C-32.4629 551.912 -32.3576 551.931 -32.2817 551.943C-32.2437 551.949 -32.2128 551.954 -32.1902 551.957C-32.1789 551.958 -32.1696 551.96 -32.1626 551.961C-32.159 551.961 -32.156 551.961 -32.1536 551.962C-32.1524 551.962 -32.1513 551.962 -32.1504 551.962C-32.15 551.962 -32.1495 551.962 -32.1491 551.962C-32.1489 551.962 -32.1487 551.962 -32.1486 551.962C-32.1483 551.962 -32.1481 551.962 -32.024 550.97ZM-33.3281 549.53C-33.3281 549.475 -33.3201 549.461 -33.2841 549.427C-33.2208 549.368 -33.0909 549.291 -32.8778 549.225C-32.6741 549.161 -32.4565 549.126 -32.2804 549.107C-32.1949 549.098 -32.1248 549.094 -32.0784 549.092C-32.0554 549.091 -32.0386 549.09 -32.0291 549.09C-32.0244 549.09 -32.0215 549.09 -32.0206 549.09C-32.0201 549.09 -32.0202 549.09 -32.0208 549.09C-32.021 549.09 -32.0215 549.09 -32.022 549.09C-32.0223 549.09 -32.0226 549.09 -32.0229 549.09C-32.0231 549.09 -32.0234 549.09 -32.0235 549.09C-32.0237 549.09 -32.024 549.09 -32.024 548.09C-32.024 547.09 -32.0244 547.09 -32.0247 547.09C-32.0248 547.09 -32.0251 547.09 -32.0254 547.09C-32.0259 547.09 -32.0264 547.09 -32.0269 547.09C-32.028 547.09 -32.0293 547.09 -32.0307 547.09C-32.0335 547.09 -32.0368 547.09 -32.0407 547.09C-32.0486 547.09 -32.0586 547.09 -32.0707 547.091C-32.095 547.091 -32.1277 547.092 -32.1676 547.094C-32.2473 547.097 -32.3572 547.104 -32.4877 547.118C-32.7436 547.145 -33.102 547.199 -33.4743 547.316C-34.1431 547.525 -35.3281 548.108 -35.3281 549.53L-33.3281 549.53ZM-31.9342 549.086L44.6738 542.174L44.4941 540.182L-32.1139 547.094L-31.9342 549.086ZM44.584 542.178C46.4275 542.178 47.904 543.546 47.904 545.21L49.904 545.21C49.904 542.266 47.3484 540.178 44.584 540.178L44.584 542.178ZM34.7919 387.976L34.1845 387.181L34.1318 387.222L34.0848 387.269L34.7919 387.976ZM29.6079 387.976L30.2481 387.207L30.232 387.194L30.2154 387.181L29.6079 387.976ZM11.7519 380.928L-39.8001 380.928L-39.8001 382.928L11.7519 382.928L11.7519 380.928ZM-39.8001 380.928C-56.1923 380.928 -69.6001 394.335 -69.6001 410.728L-67.6001 410.728C-67.6001 395.44 -55.0878 382.928 -39.8001 382.928L-39.8001 380.928ZM-69.6001 410.728L-69.6001 441.544L-67.6001 441.544L-67.6001 410.728L-69.6001 410.728ZM-69.6001 441.544C-69.6001 444.445 -67.0898 446.576 -64.5681 446.576L-64.5681 444.576C-66.0783 444.576 -67.6001 443.25 -67.6001 441.544L-69.6001 441.544ZM-64.5681 446.576L128.968 446.576L128.968 444.576L-64.5681 444.576L-64.5681 446.576ZM128.968 446.576C131.824 446.576 134 444.4 134 441.544L132 441.544C132 443.295 130.72 444.576 128.968 444.576L128.968 446.576ZM134 441.544L134 410.728L132 410.728L132 441.544L134 441.544ZM134 410.728C134 394.342 120.887 380.928 104.2 380.928L104.2 382.928C119.769 382.928 132 395.433 132 410.728L134 410.728ZM104.2 380.928L52.6479 380.928L52.6479 382.928L104.2 382.928L104.2 380.928ZM52.6479 380.928C45.796 380.928 39.2481 383.309 34.1845 387.181L35.3994 388.77C40.1278 385.154 46.2519 382.928 52.6479 382.928L52.6479 380.928ZM34.0848 387.269C33.5384 387.815 32.9236 388.056 32.308 388.056C31.6823 388.056 30.9661 387.806 30.2481 387.207L28.9678 388.744C29.9778 389.586 31.1336 390.056 32.308 390.056C33.4923 390.056 34.6055 389.576 35.4991 388.683L34.0848 387.269ZM30.2154 387.181C25.156 383.312 18.897 380.928 11.7519 380.928L11.7519 382.928C18.4309 382.928 24.2679 385.151 29.0005 388.77L30.2154 387.181ZM-41.2401 404.24L13.4799 404.24L13.4799 402.24L-41.2401 402.24L-41.2401 404.24ZM13.4799 404.24C18.6877 404.24 22.848 408.4 22.848 413.608L24.848 413.608C24.848 407.295 19.7922 402.24 13.4799 402.24L13.4799 404.24ZM22.848 413.608L22.848 420.52L24.848 420.52L24.848 413.608L22.848 413.608ZM22.848 420.52C22.848 422.03 21.5222 423.552 19.8159 423.552L19.8159 425.552C22.7177 425.552 24.848 423.041 24.848 420.52L22.848 420.52ZM19.8159 423.552L-47.5761 423.552L-47.5761 425.552L19.8159 425.552L19.8159 423.552ZM-47.5761 423.552C-49.2824 423.552 -50.6081 422.03 -50.6081 420.52L-52.6081 420.52C-52.6081 423.041 -50.4778 425.552 -47.5761 425.552L-47.5761 423.552ZM-50.6081 420.52L-50.6081 413.608L-52.6081 413.608L-52.6081 420.52L-50.6081 420.52ZM-50.6081 413.608C-50.6081 408.4 -46.4478 404.24 -41.2401 404.24L-41.2401 402.24C-47.5523 402.24 -52.6081 407.295 -52.6081 413.608L-50.6081 413.608ZM115.296 413.608L115.296 420.52L117.296 420.52L117.296 413.608L115.296 413.608ZM115.296 420.52C115.296 422.03 113.97 423.552 112.264 423.552L112.264 425.552C115.166 425.552 117.296 423.041 117.296 420.52L115.296 420.52ZM112.264 423.552L44.8719 423.552L44.8719 425.552L112.264 425.552L112.264 423.552ZM44.8719 423.552C43.1656 423.552 41.84 422.03 41.84 420.52L39.84 420.52C39.84 423.041 41.9703 425.552 44.8719 425.552L44.8719 423.552ZM41.84 420.52L41.84 413.608L39.84 413.608L39.84 420.52L41.84 420.52ZM41.84 413.608C41.84 408.4 46.0002 404.24 51.2079 404.24L51.2079 402.24C44.8957 402.24 39.84 407.295 39.84 413.608L41.84 413.608ZM51.2079 404.24L105.928 404.24L105.928 402.24L51.2079 402.24L51.2079 404.24ZM105.928 404.24C111.136 404.24 115.296 408.4 115.296 413.608L117.296 413.608C117.296 407.295 112.24 402.24 105.928 402.24L105.928 404.24ZM-59.0961 302.075L-59.1832 301.079L-59.1948 301.08L-59.2065 301.081L-59.0961 302.075ZM-59.0961 339.227L-59.009 338.231L-59.0248 338.229L-59.0406 338.229L-59.0961 339.227ZM128.68 355.643L128.804 354.651L128.786 354.649L128.767 354.647L128.68 355.643ZM129.544 336.347L129.685 335.357L129.658 335.353L129.63 335.351L129.544 336.347ZM69.3519 331.163L69.2105 332.153L69.2382 332.157L69.2661 332.159L69.3519 331.163ZM69.3519 310.427L69.3519 311.427L69.3973 311.427L69.4425 311.423L69.3519 310.427ZM129.544 304.955L129.544 303.955L129.499 303.955L129.453 303.959L129.544 304.955ZM128.68 285.659L128.767 286.655L128.786 286.654L128.804 286.651L128.68 285.659ZM44.5839 328.859L44.708 327.867L44.6891 327.864L44.6701 327.863L44.5839 328.859ZM-32.0241 322.235L-32.1481 323.227L-32.1292 323.23L-32.1102 323.231L-32.0241 322.235ZM-32.0241 319.355L-32.0241 320.355L-31.979 320.355L-31.9342 320.351L-32.0241 319.355ZM44.5839 312.443L44.5839 311.443L44.5389 311.443L44.4941 311.447L44.5839 312.443ZM-59.2065 301.081C-64.8694 301.71 -69.6001 306.722 -69.6001 312.443L-67.6001 312.443C-67.6001 307.796 -63.6907 303.592 -58.9856 303.069L-59.2065 301.081ZM-69.6001 312.443L-69.6001 329.147L-67.6001 329.147L-67.6001 312.443L-69.6001 312.443ZM-69.6001 329.147C-69.6001 334.857 -64.8701 339.908 -59.1515 340.226L-59.0406 338.229C-63.69 337.97 -67.6001 333.805 -67.6001 329.147L-69.6001 329.147ZM-59.1832 340.223L128.593 356.639L128.767 354.647L-59.009 338.231L-59.1832 340.223ZM128.556 356.635C131.486 357.002 134 354.775 134 351.611L132 351.611C132 353.631 130.482 354.861 128.804 354.651L128.556 356.635ZM134 351.611L134 340.379L132 340.379L132 351.611L134 351.611ZM134 340.379C134 337.883 132.211 335.718 129.685 335.357L129.403 337.337C130.909 337.552 132 338.843 132 340.379L134 340.379ZM129.63 335.351L69.4378 330.167L69.2661 332.159L129.458 337.343L129.63 335.351ZM69.4934 330.173C67.9873 329.958 66.8959 328.667 66.8959 327.131L64.8959 327.131C64.8959 329.627 66.6846 331.792 69.2105 332.153L69.4934 330.173ZM66.8959 327.131L66.8959 314.459L64.8959 314.459L64.8959 327.131L66.8959 327.131ZM66.8959 314.459C66.8959 312.549 68.0344 311.427 69.3519 311.427L69.3519 309.427C66.6374 309.427 64.8959 311.761 64.8959 314.459L66.8959 314.459ZM69.4425 311.423L129.634 305.951L129.453 303.959L69.2614 309.431L69.4425 311.423ZM129.544 305.955C132.258 305.955 134 303.621 134 300.923L132 300.923C132 302.833 130.861 303.955 129.544 303.955L129.544 305.955ZM134 300.923L134 289.691L132 289.691L132 300.923L134 300.923ZM134 289.691C134 286.865 131.533 284.295 128.556 284.667L128.804 286.651C130.435 286.448 132 287.909 132 289.691L134 289.691ZM128.593 284.663L-59.1832 301.079L-59.009 303.071L128.767 286.655L128.593 284.663ZM47.9039 316.475L47.9039 324.827L49.9039 324.827L49.9039 316.475L47.9039 316.475ZM47.9039 324.827C47.9039 326.847 46.3861 328.077 44.708 327.867L44.4599 329.851C47.3898 330.218 49.9039 327.991 49.9039 324.827L47.9039 324.827ZM44.6701 327.863L-31.9379 321.239L-32.1102 323.231L44.4978 329.855L44.6701 327.863ZM-32.0241 322.235C-31.9 321.243 -31.8998 321.243 -31.8996 321.243C-31.8995 321.243 -31.8993 321.243 -31.8992 321.243C-31.8989 321.243 -31.8987 321.243 -31.8985 321.243C-31.8981 321.243 -31.8979 321.243 -31.8978 321.243C-31.8976 321.243 -31.8979 321.243 -31.8988 321.243C-31.9004 321.243 -31.9041 321.242 -31.9097 321.241C-31.9208 321.24 -31.9394 321.237 -31.9644 321.233C-32.0145 321.225 -32.0892 321.212 -32.1801 321.193C-32.3656 321.154 -32.6005 321.095 -32.8249 321.011C-33.0603 320.922 -33.2223 320.83 -33.3096 320.754C-33.384 320.688 -33.3281 320.708 -33.3281 320.795L-35.3281 320.795C-35.3281 321.458 -34.9842 321.946 -34.6266 322.259C-34.2818 322.56 -33.8678 322.756 -33.5272 322.883C-33.1756 323.015 -32.8345 323.1 -32.588 323.151C-32.4629 323.177 -32.3576 323.196 -32.2817 323.208C-32.2437 323.214 -32.2128 323.219 -32.1902 323.222C-32.1789 323.223 -32.1696 323.225 -32.1626 323.225C-32.159 323.226 -32.1561 323.226 -32.1536 323.227C-32.1524 323.227 -32.1514 323.227 -32.1504 323.227C-32.15 323.227 -32.1495 323.227 -32.1492 323.227C-32.149 323.227 -32.1487 323.227 -32.1486 323.227C-32.1483 323.227 -32.1481 323.227 -32.0241 322.235ZM-33.3281 320.795C-33.3281 320.74 -33.3201 320.726 -33.2841 320.692C-33.2208 320.633 -33.0909 320.556 -32.8778 320.49C-32.6741 320.426 -32.4565 320.391 -32.2804 320.372C-32.1949 320.363 -32.1248 320.359 -32.0785 320.357C-32.0554 320.356 -32.0386 320.355 -32.0291 320.355C-32.0244 320.355 -32.0215 320.355 -32.0206 320.355C-32.0201 320.355 -32.0202 320.355 -32.0208 320.355C-32.0211 320.355 -32.0215 320.355 -32.022 320.355C-32.0223 320.355 -32.0226 320.355 -32.0229 320.355C-32.0231 320.355 -32.0234 320.355 -32.0235 320.355C-32.0238 320.355 -32.0241 320.355 -32.0241 319.355C-32.0241 318.355 -32.0244 318.355 -32.0247 318.355C-32.0248 318.355 -32.0251 318.355 -32.0254 318.355C-32.0259 318.355 -32.0264 318.355 -32.0269 318.355C-32.028 318.355 -32.0293 318.355 -32.0307 318.355C-32.0335 318.355 -32.0368 318.355 -32.0407 318.355C-32.0486 318.355 -32.0586 318.355 -32.0708 318.356C-32.095 318.356 -32.1277 318.357 -32.1677 318.359C-32.2473 318.362 -32.3572 318.369 -32.4877 318.383C-32.7436 318.41 -33.102 318.464 -33.4743 318.581C-34.1431 318.79 -35.3281 319.373 -35.3281 320.795L-33.3281 320.795ZM-31.9342 320.351L44.6738 313.439L44.4941 311.447L-32.1139 318.359L-31.9342 320.351ZM44.5839 313.443C46.4275 313.443 47.9039 314.811 47.9039 316.475L49.9039 316.475C49.9039 313.531 47.3484 311.443 44.5839 311.443L44.5839 313.443ZM32.1999 204.79L31.4928 205.497L32.1999 206.204L32.907 205.497L32.1999 204.79ZM11.7519 195.438L-39.8001 195.438L-39.8001 197.438L11.7519 197.438L11.7519 195.438ZM-39.8001 195.438C-56.1923 195.438 -69.6001 208.845 -69.6001 225.238L-67.6001 225.238C-67.6001 209.95 -55.0878 197.438 -39.8001 197.438L-39.8001 195.438ZM-69.6001 225.238L-69.6001 256.054L-67.6001 256.054L-67.6001 225.238L-69.6001 225.238ZM-69.6001 256.054C-69.6001 258.955 -67.0898 261.086 -64.5681 261.086L-64.5681 259.086C-66.0783 259.086 -67.6001 257.76 -67.6001 256.054L-69.6001 256.054ZM-64.5681 261.086L128.968 261.086L128.968 259.086L-64.5681 259.086L-64.5681 261.086ZM128.968 261.086C131.824 261.086 134 258.91 134 256.054L132 256.054C132 257.805 130.72 259.086 128.968 259.086L128.968 261.086ZM134 256.054L134 243.094L132 243.094L132 256.054L134 256.054ZM134 243.094C134 240.237 131.824 238.062 128.968 238.062L128.968 240.062C130.72 240.062 132 241.342 132 243.094L134 243.094ZM128.968 238.062L44.5839 238.062L44.5839 240.062L128.968 240.062L128.968 238.062ZM44.5839 238.062C43.9012 238.062 43.1347 237.71 42.5191 237.094C41.9034 236.479 41.5519 235.712 41.5519 235.03L39.5519 235.03C39.5519 236.363 40.2085 237.612 41.1048 238.509C42.0012 239.405 43.2507 240.062 44.5839 240.062L44.5839 238.062ZM41.5519 235.03L41.5519 228.118L39.5519 228.118L39.5519 235.03L41.5519 235.03ZM41.5519 228.118C41.5519 222.91 45.7122 218.75 50.9199 218.75L50.9199 216.75C44.6077 216.75 39.5519 221.805 39.5519 228.118L41.5519 228.118ZM50.9199 218.75L128.968 218.75L128.968 216.75L50.9199 216.75L50.9199 218.75ZM128.968 218.75C131.87 218.75 134 216.239 134 213.718L132 213.718C132 215.228 130.674 216.75 128.968 216.75L128.968 218.75ZM134 213.718L134 200.47L132 200.47L132 213.718L134 213.718ZM134 200.47C134 197.613 131.824 195.438 128.968 195.438L128.968 197.438C130.72 197.438 132 198.718 132 200.47L134 200.47ZM128.968 195.438L52.6479 195.438L52.6479 197.438L128.968 197.438L128.968 195.438ZM52.6479 195.438C44.3157 195.438 36.8622 198.713 31.4928 204.083L32.907 205.497C37.9057 200.498 44.8522 197.438 52.6479 197.438L52.6479 195.438ZM32.907 204.083C27.5376 198.713 20.0842 195.438 11.7519 195.438L11.7519 197.438C19.5477 197.438 26.4942 200.498 31.4928 205.497L32.907 204.083ZM22.8479 235.03C22.8479 236.54 21.5222 238.062 19.8159 238.062L19.8159 240.062C22.7176 240.062 24.8479 237.551 24.8479 235.03L22.8479 235.03ZM19.8159 238.062L-47.5761 238.062L-47.5761 240.062L19.8159 240.062L19.8159 238.062ZM-47.5761 238.062C-49.2824 238.062 -50.6081 236.54 -50.6081 235.03L-52.6081 235.03C-52.6081 237.551 -50.4778 240.062 -47.5761 240.062L-47.5761 238.062ZM-50.6081 235.03L-50.6081 228.118L-52.6081 228.118L-52.6081 235.03L-50.6081 235.03ZM-50.6081 228.118C-50.6081 222.91 -46.4478 218.75 -41.2401 218.75L-41.2401 216.75C-47.5523 216.75 -52.6081 221.805 -52.6081 228.118L-50.6081 228.118ZM-41.2401 218.75L13.4799 218.75L13.4799 216.75L-41.2401 216.75L-41.2401 218.75ZM13.4799 218.75C18.6877 218.75 22.8479 222.91 22.8479 228.118L24.8479 228.118C24.8479 221.805 19.7922 216.75 13.4799 216.75L13.4799 218.75ZM22.8479 228.118L22.8479 235.03L24.8479 235.03L24.8479 228.118L22.8479 228.118ZM34.7919 112.553L34.1845 111.759L34.1318 111.799L34.0848 111.846L34.7919 112.553ZM29.6079 112.553L30.2481 111.785L30.232 111.771L30.2154 111.759L29.6079 112.553ZM11.7519 105.505L-39.8001 105.505L-39.8001 107.505L11.7519 107.505L11.7519 105.505ZM-39.8001 105.505C-56.1924 105.505 -69.6001 118.913 -69.6001 135.305L-67.6001 135.305C-67.6001 120.017 -55.0878 107.505 -39.8001 107.505L-39.8001 105.505ZM-69.6001 135.305L-69.6001 166.121L-67.6001 166.121L-67.6001 135.305L-69.6001 135.305ZM-69.6001 166.121C-69.6001 169.023 -67.0898 171.153 -64.5681 171.153L-64.5681 169.153C-66.0783 169.153 -67.6001 167.827 -67.6001 166.121L-69.6001 166.121ZM-64.5681 171.153L128.968 171.153L128.968 169.153L-64.5681 169.153L-64.5681 171.153ZM128.968 171.153C131.824 171.153 134 168.977 134 166.121L132 166.121C132 167.873 130.72 169.153 128.968 169.153L128.968 171.153ZM134 166.121L134 135.305L132 135.305L132 166.121L134 166.121ZM134 135.305C134 118.919 120.887 105.505 104.2 105.505L104.2 107.505C119.769 107.505 132 120.011 132 135.305L134 135.305ZM104.2 105.505L52.6479 105.505L52.6479 107.505L104.2 107.505L104.2 105.505ZM52.6479 105.505C45.796 105.505 39.2481 107.887 34.1845 111.759L35.3994 113.347C40.1277 109.732 46.2519 107.505 52.6479 107.505L52.6479 105.505ZM34.0848 111.846C33.5384 112.392 32.9236 112.633 32.3079 112.633C31.6823 112.633 30.9661 112.383 30.2481 111.785L28.9678 113.321C29.9778 114.163 31.1336 114.633 32.3079 114.633C33.4923 114.633 34.6055 114.154 35.499 113.26L34.0848 111.846ZM30.2154 111.759C25.156 107.89 18.897 105.505 11.7519 105.505L11.7519 107.505C18.4309 107.505 24.2679 109.728 29.0005 113.347L30.2154 111.759ZM-41.2401 128.817L13.4799 128.817L13.4799 126.817L-41.2401 126.817L-41.2401 128.817ZM13.4799 128.817C18.6877 128.817 22.8479 132.977 22.8479 138.185L24.8479 138.185C24.8479 131.873 19.7922 126.817 13.4799 126.817L13.4799 128.817ZM22.8479 138.185L22.8479 145.097L24.8479 145.097L24.8479 138.185L22.8479 138.185ZM22.8479 145.097C22.8479 146.607 21.5222 148.129 19.8159 148.129L19.8159 150.129C22.7176 150.129 24.8479 147.619 24.8479 145.097L22.8479 145.097ZM19.8159 148.129L-47.5761 148.129L-47.5761 150.129L19.8159 150.129L19.8159 148.129ZM-47.5761 148.129C-49.2824 148.129 -50.6081 146.607 -50.6081 145.097L-52.6081 145.097C-52.6081 147.619 -50.4778 150.129 -47.5761 150.129L-47.5761 148.129ZM-50.6081 145.097L-50.6081 138.185L-52.6081 138.185L-52.6081 145.097L-50.6081 145.097ZM-50.6081 138.185C-50.6081 132.977 -46.4478 128.817 -41.2401 128.817L-41.2401 126.817C-47.5523 126.817 -52.6081 131.873 -52.6081 138.185L-50.6081 138.185ZM115.296 138.185L115.296 145.097L117.296 145.097L117.296 138.185L115.296 138.185ZM115.296 145.097C115.296 146.607 113.97 148.129 112.264 148.129L112.264 150.129C115.166 150.129 117.296 147.619 117.296 145.097L115.296 145.097ZM112.264 148.129L44.8719 148.129L44.8719 150.129L112.264 150.129L112.264 148.129ZM44.8719 148.129C43.1656 148.129 41.8399 146.607 41.8399 145.097L39.8399 145.097C39.8399 147.619 41.9702 150.129 44.8719 150.129L44.8719 148.129ZM41.8399 145.097L41.8399 138.185L39.8399 138.185L39.8399 145.097L41.8399 145.097ZM41.8399 138.185C41.8399 132.977 46.0002 128.817 51.2079 128.817L51.2079 126.817C44.8956 126.817 39.8399 131.873 39.8399 138.185L41.8399 138.185ZM51.2079 128.817L105.928 128.817L105.928 126.817L51.2079 126.817L51.2079 128.817ZM105.928 128.817C111.136 128.817 115.296 132.977 115.296 138.185L117.296 138.185C117.296 131.873 112.24 126.817 105.928 126.817L105.928 128.817ZM-55.6401 36.8846L-64.5681 36.8846L-64.5681 38.8846L-55.6401 38.8846L-55.6401 36.8846ZM-64.5681 36.8846C-67.0898 36.8846 -69.6001 39.0149 -69.6001 41.9166L-67.6001 41.9166C-67.6001 40.2103 -66.0783 38.8846 -64.5681 38.8846L-64.5681 36.8846ZM-69.6001 41.9166L-69.6001 76.1886L-67.6001 76.1886L-67.6001 41.9166L-69.6001 41.9166ZM-69.6001 76.1886C-69.6001 79.0903 -67.0898 81.2206 -64.5681 81.2206L-64.5681 79.2206C-66.0783 79.2206 -67.6001 77.8949 -67.6001 76.1886L-69.6001 76.1886ZM-64.5681 81.2206L128.968 81.2206L128.968 79.2206L-64.5681 79.2206L-64.5681 81.2206ZM128.968 81.2206C131.824 81.2206 134 79.0449 134 76.1886L132 76.1886C132 77.9403 130.72 79.2206 128.968 79.2206L128.968 81.2206ZM134 76.1886L134 41.9166L132 41.9166L132 76.1886L134 76.1886ZM134 41.9166C134 39.0603 131.824 36.8846 128.968 36.8846L128.968 38.8846C130.72 38.8846 132 40.1649 132 41.9166L134 41.9166ZM128.968 36.8846L120.328 36.8846L120.328 38.8846L128.968 38.8846L128.968 36.8846ZM120.328 36.8846C117.472 36.8846 115.296 39.0603 115.296 41.9166L117.296 41.9166C117.296 40.1649 118.576 38.8846 120.328 38.8846L120.328 36.8846ZM115.296 41.9166L115.296 55.1645L117.296 55.1645L117.296 41.9166L115.296 41.9166ZM115.296 55.1645C115.296 56.6748 113.97 58.1966 112.264 58.1966L112.264 60.1966C115.166 60.1966 117.296 57.6864 117.296 55.1645L115.296 55.1645ZM112.264 58.1966L44.5839 58.1966L44.5839 60.1966L112.264 60.1966L112.264 58.1966ZM44.5839 58.1966C43.9012 58.1966 43.1347 57.8451 42.519 57.2295C41.9034 56.6139 41.5519 55.8474 41.5519 55.1645L39.5519 55.1645C39.5519 56.4978 40.2085 57.7473 41.1048 58.6437C42.0012 59.54 43.2507 60.1966 44.5839 60.1966L44.5839 58.1966ZM41.5519 55.1645L41.5519 41.9166L39.5519 41.9166L39.5519 55.1645L41.5519 55.1645ZM41.5519 41.9166C41.5519 39.0603 39.3762 36.8846 36.5199 36.8846L36.5199 38.8846C38.2717 38.8846 39.5519 40.1649 39.5519 41.9166L41.5519 41.9166ZM36.5199 36.8846L27.8799 36.8846L27.8799 38.8846L36.5199 38.8846L36.5199 36.8846ZM27.8799 36.8846C25.0236 36.8846 22.8479 39.0603 22.8479 41.9166L24.8479 41.9166C24.8479 40.1649 26.1282 38.8846 27.8799 38.8846L27.8799 36.8846ZM22.8479 41.9166L22.8479 55.1645L24.8479 55.1645L24.8479 41.9166L22.8479 41.9166ZM22.8479 55.1645C22.8479 56.6748 21.5222 58.1967 19.8159 58.1967L19.8159 60.1967C22.7176 60.1967 24.8479 57.6864 24.8479 55.1645L22.8479 55.1645ZM19.8159 58.1967L-47.5761 58.1967L-47.5761 60.1967L19.8159 60.1967L19.8159 58.1967ZM-47.5761 58.1967C-49.2824 58.1967 -50.6081 56.6748 -50.6081 55.1645L-52.6081 55.1645C-52.6081 57.6864 -50.4778 60.1967 -47.5761 60.1967L-47.5761 58.1967ZM-50.6081 55.1645L-50.6081 41.9166L-52.6081 41.9166L-52.6081 55.1645L-50.6081 55.1645ZM-50.6081 41.9166C-50.6081 39.0149 -53.1183 36.8846 -55.6401 36.8846L-55.6401 38.8846C-54.1298 38.8846 -52.6081 40.2103 -52.6081 41.9166L-50.6081 41.9166Z" fill="#2C2C2C"/>
</g>
</svg>
