<svg width="204" height="609" viewBox="0 0 204 609" fill="none" xmlns="http://www.w3.org/2000/svg">
<path d="M21.736 -7.56975L198.568 -7.56974L198.568 -9.56974L21.736 -9.56975L21.736 -7.56975ZM198.568 -7.56974C201.09 -7.56974 203.6 -9.70004 203.6 -12.6017L201.6 -12.6017C201.6 -10.8954 200.078 -9.56974 198.568 -9.56974L198.568 -7.56974ZM203.6 -12.6017L203.6 -25.5617L201.6 -25.5617L201.6 -12.6017L203.6 -12.6017ZM203.6 -25.5617C203.6 -28.4634 201.09 -30.5937 198.568 -30.5937L198.568 -28.5937C200.078 -28.5937 201.6 -27.268 201.6 -25.5617L203.6 -25.5617ZM198.568 -30.5937L5.032 -30.5938L5.032 -28.5938L198.568 -28.5937L198.568 -30.5937ZM5.032 -30.5938C2.17572 -30.5938 -6.8111e-07 -28.418 -8.05962e-07 -25.5618L2 -25.5618C2 -27.3135 3.28029 -28.5938 5.032 -28.5938L5.032 -30.5938ZM-8.05962e-07 -25.5618L-2.30404e-06 8.71025L2 8.71025L2 -25.5618L-8.05962e-07 -25.5618ZM-2.30404e-06 8.71025C-2.42889e-06 11.5665 2.17572 13.7423 5.032 13.7423L5.032 11.7423C3.28029 11.7423 2 10.462 2 8.71025L-2.30404e-06 8.71025ZM5.032 13.7423L13.672 13.7423L13.672 11.7423L5.032 11.7423L5.032 13.7423ZM13.672 13.7423C16.5283 13.7423 18.704 11.5665 18.704 8.71025L16.704 8.71025C16.704 10.462 15.4237 11.7423 13.672 11.7423L13.672 13.7423ZM18.704 8.71025L18.704 -4.53775L16.704 -4.53775L16.704 8.71025L18.704 8.71025ZM18.704 -4.53775C18.704 -6.048 20.0297 -7.56975 21.736 -7.56975L21.736 -9.56975C18.8343 -9.56975 16.704 -7.0595 16.704 -4.53775L18.704 -4.53775ZM189.64 73.6598L198.568 73.6598L198.568 71.6598L189.64 71.6598L189.64 73.6598ZM198.568 73.6598C201.09 73.6598 203.6 71.5295 203.6 68.6278L201.6 68.6278C201.6 70.3341 200.078 71.6598 198.568 71.6598L198.568 73.6598ZM203.6 68.6278L203.6 34.3558L201.6 34.3558L201.6 68.6278L203.6 68.6278ZM203.6 34.3558C203.6 31.4541 201.09 29.3238 198.568 29.3238L198.568 31.3238C200.078 31.3238 201.6 32.6495 201.6 34.3558L203.6 34.3558ZM198.568 29.3238L5.03199 29.3237L5.03199 31.3237L198.568 31.3238L198.568 29.3238ZM5.03199 29.3237C2.17572 29.3237 -3.30019e-06 31.4995 -3.42504e-06 34.3557L2 34.3557C2 32.604 3.28029 31.3237 5.03199 31.3237L5.03199 29.3237ZM-3.42504e-06 34.3557L-4.92312e-06 68.6278L2 68.6278L2 34.3557L-3.42504e-06 34.3557ZM-4.92312e-06 68.6278C-5.04797e-06 71.484 2.17572 73.6598 5.03199 73.6598L5.03199 71.6598C3.28028 71.6598 2 70.3795 2 68.6278L-4.92312e-06 68.6278ZM5.03199 73.6598L13.672 73.6598L13.672 71.6598L5.03199 71.6598L5.03199 73.6598ZM13.672 73.6598C16.5283 73.6598 18.704 71.484 18.704 68.6278L16.704 68.6278C16.704 70.3795 15.4237 71.6598 13.672 71.6598L13.672 73.6598ZM18.704 68.6278L18.704 55.3798L16.704 55.3798L16.704 68.6278L18.704 68.6278ZM18.704 55.3798C18.704 53.8695 20.0297 52.3477 21.736 52.3477L21.736 50.3477C18.8343 50.3477 16.704 52.858 16.704 55.3798L18.704 55.3798ZM21.736 52.3477L89.416 52.3477L89.416 50.3477L21.736 50.3477L21.736 52.3477ZM89.416 52.3477C90.0988 52.3477 90.8652 52.6992 91.4809 53.3149C92.0965 53.9305 92.448 54.697 92.448 55.3798L94.448 55.3798C94.448 54.0465 93.7915 52.797 92.8951 51.9006C91.9988 51.0043 90.7492 50.3477 89.416 50.3477L89.416 52.3477ZM92.448 55.3798L92.448 68.6278L94.448 68.6278L94.448 55.3798L92.448 55.3798ZM92.448 68.6278C92.448 71.484 94.6237 73.6598 97.48 73.6598L97.48 71.6598C95.7283 71.6598 94.448 70.3795 94.448 68.6278L92.448 68.6278ZM97.48 73.6598L106.12 73.6598L106.12 71.6598L97.48 71.6598L97.48 73.6598ZM106.12 73.6598C108.976 73.6598 111.152 71.484 111.152 68.6278L109.152 68.6278C109.152 70.3795 107.872 71.6598 106.12 71.6598L106.12 73.6598ZM111.152 68.6278L111.152 55.3798L109.152 55.3798L109.152 68.6278L111.152 68.6278ZM111.152 55.3798C111.152 53.8695 112.478 52.3478 114.184 52.3478L114.184 50.3478C111.282 50.3478 109.152 52.858 109.152 55.3798L111.152 55.3798ZM114.184 52.3478L181.576 52.3478L181.576 50.3478L114.184 50.3478L114.184 52.3478ZM181.576 52.3478C183.282 52.3478 184.608 53.8695 184.608 55.3798L186.608 55.3798C186.608 52.858 184.478 50.3478 181.576 50.3478L181.576 52.3478ZM184.608 55.3798L184.608 68.6278L186.608 68.6278L186.608 55.3798L184.608 55.3798ZM184.608 68.6278C184.608 71.5295 187.118 73.6598 189.64 73.6598L189.64 71.6598C188.13 71.6598 186.608 70.3341 186.608 68.6278L184.608 68.6278ZM199.144 189.646L199.308 188.66L199.295 188.658L199.282 188.656L199.144 189.646ZM48.808 168.622L48.4918 169.571L48.5787 169.6L48.6695 169.613L48.808 168.622ZM48.808 167.182L48.808 168.182L48.8776 168.182L48.9465 168.173L48.808 167.182ZM199.144 146.158L199.282 147.149L199.295 147.147L199.308 147.145L199.144 146.158ZM123.4 143.278L123.539 144.268L123.4 142.278L123.4 143.278ZM21.16 157.678L21.0205 156.688L21.0186 156.688L21.16 157.678ZM21.16 178.126L21.0186 179.116L21.0217 179.117L21.16 178.126ZM124.264 192.526L124.264 193.526L124.402 191.536L124.264 192.526ZM199.282 188.656L48.9465 167.632L48.6695 169.613L199.005 190.637L199.282 188.656ZM49.1242 167.674C49.0939 167.663 49.16 167.681 49.16 167.794C49.16 167.851 49.1395 167.959 49.0434 168.059C48.9375 168.17 48.8255 168.182 48.808 168.182L48.808 166.182C48.3585 166.182 47.9225 166.339 47.6006 166.674C47.2885 166.999 47.16 167.413 47.16 167.794C47.16 168.556 47.6581 169.293 48.4918 169.571L49.1242 167.674ZM48.9465 168.173L199.282 147.149L199.006 145.168L48.6695 166.192L48.9465 168.173ZM199.308 147.145C200.426 146.958 201.486 146.323 202.263 145.459C203.046 144.59 203.6 143.424 203.6 142.126L201.6 142.126C201.6 142.844 201.29 143.55 200.777 144.121C200.258 144.697 199.59 145.07 198.98 145.172L199.308 147.145ZM203.6 142.126L203.6 128.878L201.6 128.878L201.6 142.126L203.6 142.126ZM203.6 128.878C203.6 125.977 201.09 123.846 198.568 123.846L198.568 125.846C200.078 125.846 201.6 127.172 201.6 128.878L203.6 128.878ZM198.568 123.846L5.03199 123.846L5.03199 125.846L198.568 125.846L198.568 123.846ZM5.03199 123.846C2.17571 123.846 -7.4319e-06 126.022 -7.55675e-06 128.878L1.99999 128.878C1.99999 127.127 3.28028 125.846 5.03199 125.846L5.03199 123.846ZM-7.55675e-06 128.878L-8.00995e-06 139.246L1.99999 139.246L1.99999 128.878L-7.55675e-06 128.878ZM-8.00995e-06 139.246C-8.1348e-06 142.103 2.17571 144.278 5.03199 144.278L5.03199 142.278C3.28028 142.278 1.99999 140.998 1.99999 139.246L-8.00995e-06 139.246ZM5.03199 144.278L123.4 144.278L123.4 142.278L5.03199 142.278L5.03199 144.278ZM123.261 142.288L21.0205 156.688L21.2995 158.668L123.539 144.268L123.261 142.288ZM21.0186 156.688C18.4926 157.049 16.704 159.214 16.704 161.71L18.704 161.71C18.704 160.174 19.7954 158.883 21.3014 158.668L21.0186 156.688ZM16.704 161.71L16.704 174.094L18.704 174.094L18.704 161.71L16.704 161.71ZM16.704 174.094C16.704 176.59 18.4926 178.755 21.0186 179.116L21.3014 177.136C19.7954 176.921 18.704 175.63 18.704 174.094L16.704 174.094ZM21.0217 179.117L124.126 193.517L124.402 191.536L21.2983 177.136L21.0217 179.117ZM124.264 191.526L5.03199 191.526L5.03199 193.526L124.264 193.526L124.264 191.526ZM5.03199 191.526C2.17571 191.526 -1.03903e-05 193.702 -1.05151e-05 196.558L1.99999 196.558C1.99999 194.807 3.28028 193.526 5.03199 193.526L5.03199 191.526ZM-1.05151e-05 196.558L-1.09683e-05 206.926L1.99999 206.926L1.99999 196.558L-1.05151e-05 196.558ZM-1.09683e-05 206.926C-1.10932e-05 209.783 2.17571 211.958 5.03199 211.958L5.03199 209.958C3.28028 209.958 1.99999 208.678 1.99999 206.926L-1.09683e-05 206.926ZM5.03199 211.958L198.568 211.958L198.568 209.958L5.03199 209.958L5.03199 211.958ZM198.568 211.958C201.09 211.958 203.6 209.828 203.6 206.926L201.6 206.926C201.6 208.633 200.078 209.958 198.568 209.958L198.568 211.958ZM203.6 206.926L203.6 193.678L201.6 193.678L201.6 206.926L203.6 206.926ZM203.6 193.678C203.6 192.38 203.046 191.214 202.263 190.345C201.486 189.481 200.426 188.846 199.308 188.66L198.98 190.633C199.59 190.734 200.258 191.107 200.777 191.683C201.29 192.254 201.6 192.96 201.6 193.678L203.6 193.678ZM189.64 271.975L198.568 271.975L198.568 269.975L189.64 269.975L189.64 271.975ZM198.568 271.975C201.09 271.975 203.6 269.844 203.6 266.943L201.6 266.943C201.6 268.649 200.078 269.975 198.568 269.975L198.568 271.975ZM203.6 266.943L203.6 232.671L201.6 232.671L201.6 266.943L203.6 266.943ZM203.6 232.671C203.6 229.769 201.09 227.639 198.568 227.639L198.568 229.639C200.078 229.639 201.6 230.964 201.6 232.671L203.6 232.671ZM198.568 227.639L5.03199 227.639L5.03199 229.639L198.568 229.639L198.568 227.639ZM5.03199 227.639C2.17571 227.639 -1.19688e-05 229.814 -1.20937e-05 232.671L1.99999 232.671C1.99999 230.919 3.28028 229.639 5.03199 229.639L5.03199 227.639ZM-1.20937e-05 232.671L-1.35917e-05 266.943L1.99999 266.943L1.99999 232.671L-1.20937e-05 232.671ZM-1.35917e-05 266.943C-1.37166e-05 269.799 2.17571 271.975 5.03198 271.975L5.03198 269.975C3.28027 269.975 1.99999 268.694 1.99999 266.943L-1.35917e-05 266.943ZM5.03198 271.975L13.672 271.975L13.672 269.975L5.03198 269.975L5.03198 271.975ZM13.672 271.975C16.5283 271.975 18.704 269.799 18.704 266.943L16.704 266.943C16.704 268.694 15.4237 269.975 13.672 269.975L13.672 271.975ZM18.704 266.943L18.704 253.695L16.704 253.695L16.704 266.943L18.704 266.943ZM18.704 253.695C18.704 252.184 20.0297 250.663 21.736 250.663L21.736 248.663C18.8343 248.663 16.704 251.173 16.704 253.695L18.704 253.695ZM21.736 250.663L89.416 250.663L89.416 248.663L21.736 248.663L21.736 250.663ZM89.416 250.663C90.0988 250.663 90.8652 251.014 91.4809 251.63C92.0965 252.246 92.448 253.012 92.448 253.695L94.448 253.695C94.448 252.362 93.7914 251.112 92.8951 250.216C91.9988 249.319 90.7492 248.663 89.416 248.663L89.416 250.663ZM92.448 253.695L92.448 266.943L94.448 266.943L94.448 253.695L92.448 253.695ZM92.448 266.943C92.448 269.799 94.6237 271.975 97.48 271.975L97.48 269.975C95.7283 269.975 94.448 268.694 94.448 266.943L92.448 266.943ZM97.48 271.975L106.12 271.975L106.12 269.975L97.48 269.975L97.48 271.975ZM106.12 271.975C108.976 271.975 111.152 269.799 111.152 266.943L109.152 266.943C109.152 268.694 107.872 269.975 106.12 269.975L106.12 271.975ZM111.152 266.943L111.152 253.695L109.152 253.695L109.152 266.943L111.152 266.943ZM111.152 253.695C111.152 252.184 112.478 250.663 114.184 250.663L114.184 248.663C111.282 248.663 109.152 251.173 109.152 253.695L111.152 253.695ZM114.184 250.663L181.576 250.663L181.576 248.663L114.184 248.663L114.184 250.663ZM181.576 250.663C183.282 250.663 184.608 252.184 184.608 253.695L186.608 253.695C186.608 251.173 184.478 248.663 181.576 248.663L181.576 250.663ZM184.608 253.695L184.608 266.943L186.608 266.943L186.608 253.695L184.608 253.695ZM184.608 266.943C184.608 269.844 187.118 271.975 189.64 271.975L189.64 269.975C188.13 269.975 186.608 268.649 186.608 266.943L184.608 266.943ZM198.568 287.556L5.03198 287.556L5.03198 289.556L198.568 289.556L198.568 287.556ZM5.03198 287.556C2.17571 287.556 -1.45879e-05 289.732 -1.47127e-05 292.588L1.99999 292.588C1.99999 290.837 3.28027 289.556 5.03198 289.556L5.03198 287.556ZM-1.47127e-05 292.588L-1.52792e-05 305.548L1.99998 305.548L1.99999 292.588L-1.47127e-05 292.588ZM-1.52792e-05 305.548C-1.54041e-05 308.405 2.1757 310.58 5.03198 310.58L5.03198 308.58C3.28027 308.58 1.99998 307.3 1.99998 305.548L-1.52792e-05 305.548ZM5.03198 310.58L198.568 310.58L198.568 308.58L5.03198 308.58L5.03198 310.58ZM198.568 310.58C201.09 310.58 203.6 308.45 203.6 305.548L201.6 305.548C201.6 307.255 200.078 308.58 198.568 308.58L198.568 310.58ZM203.6 305.548L203.6 292.588L201.6 292.588L201.6 305.548L203.6 305.548ZM203.6 292.588C203.6 289.687 201.09 287.556 198.568 287.556L198.568 289.556C200.078 289.556 201.6 290.882 201.6 292.588L203.6 292.588ZM21.736 349.123L198.568 349.123L198.568 347.123L21.736 347.123L21.736 349.123ZM198.568 349.123C201.09 349.123 203.6 346.992 203.6 344.091L201.6 344.091C201.6 345.797 200.078 347.123 198.568 347.123L198.568 349.123ZM203.6 344.091L203.6 331.131L201.6 331.131L201.6 344.091L203.6 344.091ZM203.6 331.131C203.6 328.229 201.09 326.099 198.568 326.099L198.568 328.099C200.078 328.099 201.6 329.424 201.6 331.131L203.6 331.131ZM198.568 326.099L5.03198 326.099L5.03198 328.099L198.568 328.099L198.568 326.099ZM5.03198 326.099C2.1757 326.099 -1.62726e-05 328.274 -1.63975e-05 331.131L1.99998 331.131C1.99998 329.379 3.28027 328.099 5.03198 328.099L5.03198 326.099ZM-1.63975e-05 331.131L-1.78956e-05 365.403L1.99998 365.403L1.99998 331.131L-1.63975e-05 331.131ZM-1.78956e-05 365.403C-1.80204e-05 368.259 2.1757 370.435 5.03198 370.435L5.03198 368.435C3.28027 368.435 1.99998 367.154 1.99998 365.403L-1.78956e-05 365.403ZM5.03198 370.435L13.672 370.435L13.672 368.435L5.03198 368.435L5.03198 370.435ZM13.672 370.435C16.5283 370.435 18.704 368.259 18.704 365.403L16.704 365.403C16.704 367.154 15.4237 368.435 13.672 368.435L13.672 370.435ZM18.704 365.403L18.704 352.155L16.704 352.155L16.704 365.403L18.704 365.403ZM18.704 352.155C18.704 350.644 20.0297 349.123 21.736 349.123L21.736 347.123C18.8343 347.123 16.704 349.633 16.704 352.155L18.704 352.155ZM21.736 399.478L198.568 399.478L198.568 397.478L21.736 397.478L21.736 399.478ZM198.568 399.478C201.09 399.478 203.6 397.347 203.6 394.446L201.6 394.446C201.6 396.152 200.078 397.478 198.568 397.478L198.568 399.478ZM203.6 394.446L203.6 381.486L201.6 381.486L201.6 394.446L203.6 394.446ZM203.6 381.486C203.6 378.584 201.09 376.454 198.568 376.454L198.568 378.454C200.078 378.454 201.6 379.779 201.6 381.486L203.6 381.486ZM198.568 376.454L5.03198 376.454L5.03198 378.454L198.568 378.454L198.568 376.454ZM5.03198 376.454C2.1757 376.454 -1.84737e-05 378.629 -1.85986e-05 381.486L1.99998 381.486C1.99998 379.734 3.28027 378.454 5.03198 378.454L5.03198 376.454ZM-1.85986e-05 381.486L-2.00967e-05 415.758L1.99998 415.758L1.99998 381.486L-1.85986e-05 381.486ZM-2.00967e-05 415.758C-2.02215e-05 418.614 2.1757 420.79 5.03198 420.79L5.03198 418.79C3.28027 418.79 1.99998 417.509 1.99998 415.758L-2.00967e-05 415.758ZM5.03198 420.79L13.672 420.79L13.672 418.79L5.03198 418.79L5.03198 420.79ZM13.672 420.79C16.5283 420.79 18.704 418.614 18.704 415.758L16.704 415.758C16.704 417.509 15.4237 418.79 13.672 418.79L13.672 420.79ZM18.704 415.758L18.704 402.51L16.704 402.51L16.704 415.758L18.704 415.758ZM18.704 402.51C18.704 400.999 20.0297 399.478 21.736 399.478L21.736 397.478C18.8343 397.478 16.704 399.988 16.704 402.51L18.704 402.51ZM189.64 480.707L198.568 480.707L198.568 478.707L189.64 478.707L189.64 480.707ZM198.568 480.707C201.09 480.707 203.6 478.577 203.6 475.675L201.6 475.675C201.6 477.382 200.078 478.707 198.568 478.707L198.568 480.707ZM203.6 475.675L203.6 441.403L201.6 441.403L201.6 475.675L203.6 475.675ZM203.6 441.403C203.6 438.502 201.09 436.371 198.568 436.371L198.568 438.371C200.078 438.371 201.6 439.697 201.6 441.403L203.6 441.403ZM198.568 436.371L5.03198 436.371L5.03198 438.371L198.568 438.371L198.568 436.371ZM5.03198 436.371C2.1757 436.371 -2.10928e-05 438.547 -2.12177e-05 441.403L1.99998 441.403C1.99998 439.652 3.28027 438.371 5.03198 438.371L5.03198 436.371ZM-2.12177e-05 441.403L-2.27157e-05 475.675L1.99998 475.675L1.99998 441.403L-2.12177e-05 441.403ZM-2.27157e-05 475.675C-2.28406e-05 478.532 2.1757 480.707 5.03197 480.707L5.03197 478.707C3.28027 478.707 1.99998 477.427 1.99998 475.675L-2.27157e-05 475.675ZM5.03197 480.707L13.672 480.707L13.672 478.707L5.03197 478.707L5.03197 480.707ZM13.672 480.707C16.5283 480.707 18.704 478.532 18.704 475.675L16.704 475.675C16.704 477.427 15.4237 478.707 13.672 478.707L13.672 480.707ZM18.704 475.675L18.704 462.427L16.704 462.427L16.704 475.675L18.704 475.675ZM18.704 462.427C18.704 460.917 20.0297 459.395 21.736 459.395L21.736 457.395C18.8343 457.395 16.704 459.906 16.704 462.427L18.704 462.427ZM21.736 459.395L89.416 459.395L89.416 457.395L21.736 457.395L21.736 459.395ZM89.416 459.395C90.0987 459.395 90.8652 459.747 91.4809 460.362C92.0965 460.978 92.448 461.744 92.448 462.427L94.448 462.427C94.448 461.094 93.7914 459.844 92.8951 458.948C91.9987 458.052 90.7492 457.395 89.416 457.395L89.416 459.395ZM92.448 462.427L92.448 475.675L94.448 475.675L94.448 462.427L92.448 462.427ZM92.448 475.675C92.448 478.532 94.6237 480.707 97.48 480.707L97.48 478.707C95.7283 478.707 94.448 477.427 94.448 475.675L92.448 475.675ZM97.48 480.707L106.12 480.707L106.12 478.707L97.48 478.707L97.48 480.707ZM106.12 480.707C108.976 480.707 111.152 478.532 111.152 475.675L109.152 475.675C109.152 477.427 107.872 478.707 106.12 478.707L106.12 480.707ZM111.152 475.675L111.152 462.427L109.152 462.427L109.152 475.675L111.152 475.675ZM111.152 462.427C111.152 460.917 112.478 459.395 114.184 459.395L114.184 457.395C111.282 457.395 109.152 459.906 109.152 462.427L111.152 462.427ZM114.184 459.395L181.576 459.395L181.576 457.395L114.184 457.395L114.184 459.395ZM181.576 459.395C183.282 459.395 184.608 460.917 184.608 462.427L186.608 462.427C186.608 459.906 184.478 457.395 181.576 457.395L181.576 459.395ZM184.608 462.427L184.608 475.675L186.608 475.675L186.608 462.427L184.608 462.427ZM184.608 475.675C184.608 478.577 187.118 480.707 189.64 480.707L189.64 478.707C188.13 478.707 186.608 477.382 186.608 475.675L184.608 475.675ZM198.568 538.625L28.072 538.625L28.072 540.625L198.568 540.625L198.568 538.625ZM28.072 538.625C22.8643 538.625 18.704 534.465 18.704 529.257L16.704 529.257C16.704 535.569 21.7597 540.625 28.072 540.625L28.072 538.625ZM18.704 529.257L18.704 528.681L16.704 528.681L16.704 529.257L18.704 529.257ZM18.704 528.681C18.704 523.743 22.8821 519.313 28.072 519.313L28.072 517.313C21.7418 517.313 16.704 522.675 16.704 528.681L18.704 528.681ZM28.072 519.313L198.568 519.313L198.568 517.313L28.072 517.313L28.072 519.313ZM198.568 519.313C201.09 519.313 203.6 517.182 203.6 514.281L201.6 514.281C201.6 515.987 200.078 517.313 198.568 517.313L198.568 519.313ZM203.6 514.281L203.6 501.321L201.6 501.321L201.6 514.281L203.6 514.281ZM203.6 501.321C203.6 498.419 201.09 496.289 198.568 496.289L198.568 498.289C200.078 498.289 201.6 499.615 201.6 501.321L203.6 501.321ZM198.568 496.289L29.8 496.289L29.8 498.289L198.568 498.289L198.568 496.289ZM29.8 496.289C13.1197 496.289 -2.41903e-05 509.408 -2.49194e-05 526.089L1.99998 526.089C1.99998 510.513 14.2243 498.289 29.8 498.289L29.8 496.289ZM-2.49194e-05 526.089L-2.51837e-05 532.137L1.99997 532.137L1.99998 526.089L-2.49194e-05 526.089ZM-2.51837e-05 532.137C-2.59e-05 548.523 13.1132 561.937 29.8 561.937L29.8 559.937C14.2308 559.937 1.99997 547.431 1.99997 532.137L-2.51837e-05 532.137ZM29.8 561.937L198.568 561.937L198.568 559.937L29.8 559.937L29.8 561.937ZM198.568 561.937C201.09 561.937 203.6 559.807 203.6 556.905L201.6 556.905C201.6 558.611 200.078 559.937 198.568 559.937L198.568 561.937ZM203.6 556.905L203.6 543.657L201.6 543.657L201.6 556.905L203.6 556.905ZM203.6 543.657C203.6 542.324 202.943 541.074 202.047 540.178C201.151 539.281 199.901 538.625 198.568 538.625L198.568 540.625C199.251 540.625 200.017 540.976 200.633 541.592C201.249 542.208 201.6 542.974 201.6 543.657L203.6 543.657ZM101.8 633.877L102.507 633.17L101.8 632.463L101.093 633.17L101.8 633.877ZM122.248 643.229L173.8 643.229L173.8 641.229L122.248 641.229L122.248 643.229ZM173.8 643.229C190.192 643.229 203.6 629.822 203.6 613.429L201.6 613.429C201.6 628.717 189.088 641.229 173.8 641.229L173.8 643.229ZM203.6 613.429L203.6 582.613L201.6 582.613L201.6 613.429L203.6 613.429ZM203.6 582.613C203.6 579.712 201.09 577.581 198.568 577.581L198.568 579.581C200.078 579.581 201.6 580.907 201.6 582.613L203.6 582.613ZM198.568 577.581L5.03197 577.581L5.03197 579.581L198.568 579.581L198.568 577.581ZM5.03197 577.581C2.17569 577.581 -2.72653e-05 579.757 -2.73901e-05 582.613L1.99997 582.613C1.99997 580.862 3.28026 579.581 5.03197 579.581L5.03197 577.581ZM-2.73901e-05 582.613L-2.79566e-05 595.573L1.99997 595.573L1.99997 582.613L-2.73901e-05 582.613ZM-2.79566e-05 595.573C-2.80815e-05 598.43 2.17569 600.605 5.03197 600.605L5.03197 598.605C3.28026 598.605 1.99997 597.325 1.99997 595.573L-2.79566e-05 595.573ZM5.03197 600.605L89.416 600.605L89.416 598.605L5.03197 598.605L5.03197 600.605ZM89.416 600.605C90.0987 600.605 90.8652 600.957 91.4809 601.572C92.0965 602.188 92.448 602.955 92.448 603.637L94.448 603.637C94.448 602.304 93.7914 601.054 92.8951 600.158C91.9987 599.262 90.7492 598.605 89.416 598.605L89.416 600.605ZM92.448 603.637L92.448 610.549L94.448 610.549L94.448 603.637L92.448 603.637ZM92.448 610.549C92.448 615.757 88.2877 619.917 83.08 619.917L83.08 621.917C89.3923 621.917 94.448 616.862 94.448 610.549L92.448 610.549ZM83.08 619.917L5.03197 619.917L5.03197 621.917L83.08 621.917L83.08 619.917ZM5.03197 619.917C2.13027 619.917 -2.91305e-05 622.428 -2.92407e-05 624.949L1.99997 624.949C1.99997 623.439 3.32567 621.917 5.03197 621.917L5.03197 619.917ZM-2.92407e-05 624.949L-2.98198e-05 638.197L1.99997 638.197L1.99997 624.949L-2.92407e-05 624.949ZM-2.98198e-05 638.197C-2.99446e-05 641.054 2.17569 643.229 5.03197 643.229L5.03197 641.229C3.28026 641.229 1.99997 639.949 1.99997 638.197L-2.98198e-05 638.197ZM5.03197 643.229L81.352 643.229L81.352 641.229L5.03197 641.229L5.03197 643.229ZM81.352 643.229C89.6842 643.229 97.1377 639.954 102.507 634.584L101.093 633.17C96.0943 638.169 89.1477 641.229 81.352 641.229L81.352 643.229ZM101.093 634.584C106.462 639.954 113.916 643.229 122.248 643.229L122.248 641.229C114.452 641.229 107.506 638.169 102.507 633.17L101.093 634.584ZM111.152 603.637C111.152 602.127 112.478 600.605 114.184 600.605L114.184 598.605C111.282 598.605 109.152 601.116 109.152 603.637L111.152 603.637ZM114.184 600.605L181.576 600.605L181.576 598.605L114.184 598.605L114.184 600.605ZM181.576 600.605C183.282 600.605 184.608 602.127 184.608 603.637L186.608 603.637C186.608 601.116 184.478 598.605 181.576 598.605L181.576 600.605ZM184.608 603.637L184.608 610.549L186.608 610.549L186.608 603.637L184.608 603.637ZM184.608 610.549C184.608 615.757 180.448 619.917 175.24 619.917L175.24 621.917C181.552 621.917 186.608 616.862 186.608 610.549L184.608 610.549ZM175.24 619.917L120.52 619.917L120.52 621.917L175.24 621.917L175.24 619.917ZM120.52 619.917C115.312 619.917 111.152 615.757 111.152 610.549L109.152 610.549C109.152 616.862 114.208 621.917 120.52 621.917L120.52 619.917ZM111.152 610.549L111.152 603.637L109.152 603.637L109.152 610.549L111.152 610.549Z" fill="#2C2C2C"/>
</svg>
