<svg width="251" height="824" viewBox="0 0 251 824" fill="none" xmlns="http://www.w3.org/2000/svg">
<mask id="mask0" mask-type="alpha" maskUnits="userSpaceOnUse" x="0" y="0" width="268" height="824">
<rect width="268" height="824" fill="#C4C4C4"/>
</mask>
<g mask="url(#mask0)">
<path d="M44.736 -354.515L221.568 -354.515L221.568 -356.515L44.736 -356.515L44.736 -354.515ZM221.568 -354.515C224.09 -354.515 226.6 -356.646 226.6 -359.547L224.6 -359.547C224.6 -357.841 223.078 -356.515 221.568 -356.515L221.568 -354.515ZM226.6 -359.547L226.6 -372.507L224.6 -372.507L224.6 -359.547L226.6 -359.547ZM226.6 -372.507C226.6 -375.409 224.09 -377.539 221.568 -377.539L221.568 -375.539C223.078 -375.539 224.6 -374.214 224.6 -372.507L226.6 -372.507ZM221.568 -377.539L28.032 -377.539L28.032 -375.539L221.568 -375.539L221.568 -377.539ZM28.032 -377.539C25.1757 -377.539 23 -375.364 23 -372.507L25 -372.507C25 -374.259 26.2803 -375.539 28.032 -375.539L28.032 -377.539ZM23 -372.507L23 -338.235L25 -338.235L25 -372.507L23 -372.507ZM23 -338.235C23 -335.379 25.1757 -333.203 28.032 -333.203L28.032 -335.203C26.2803 -335.203 25 -336.484 25 -338.235L23 -338.235ZM28.032 -333.203L36.672 -333.203L36.672 -335.203L28.032 -335.203L28.032 -333.203ZM36.672 -333.203C39.5283 -333.203 41.704 -335.379 41.704 -338.235L39.704 -338.235C39.704 -336.484 38.4237 -335.203 36.672 -335.203L36.672 -333.203ZM41.704 -338.235L41.704 -351.483L39.704 -351.483L39.704 -338.235L41.704 -338.235ZM41.704 -351.483C41.704 -352.994 43.0297 -354.515 44.736 -354.515L44.736 -356.515C41.8343 -356.515 39.704 -354.005 39.704 -351.483L41.704 -351.483ZM216.096 -263.054L216.183 -262.058L216.195 -262.059L216.206 -262.06L216.096 -263.054ZM216.096 -300.206L216.009 -299.21L216.025 -299.208L216.041 -299.207L216.096 -300.206ZM28.32 -316.622L28.196 -315.63L28.2144 -315.627L28.2329 -315.626L28.32 -316.622ZM27.456 -297.326L27.3146 -296.336L27.3423 -296.332L27.3702 -296.33L27.456 -297.326ZM87.648 -292.142L87.7894 -293.132L87.7617 -293.136L87.7338 -293.138L87.648 -292.142ZM87.648 -271.406L87.648 -272.406L87.6026 -272.406L87.5575 -272.402L87.648 -271.406ZM27.456 -265.934L27.456 -264.934L27.5014 -264.934L27.5465 -264.938L27.456 -265.934ZM28.32 -246.638L28.2329 -247.634L28.2144 -247.632L28.196 -247.63L28.32 -246.638ZM112.416 -289.838L112.292 -288.846L112.311 -288.843L112.33 -288.842L112.416 -289.838ZM189.024 -283.214L189.148 -284.206L189.129 -284.209L189.11 -284.21L189.024 -283.214ZM189.024 -280.334L189.024 -281.334L188.979 -281.334L188.934 -281.33L189.024 -280.334ZM112.416 -273.422L112.416 -272.422L112.461 -272.422L112.506 -272.426L112.416 -273.422ZM216.206 -262.06C221.869 -262.689 226.6 -267.701 226.6 -273.422L224.6 -273.422C224.6 -268.775 220.691 -264.571 215.986 -264.048L216.206 -262.06ZM226.6 -273.422L226.6 -290.126L224.6 -290.126L224.6 -273.422L226.6 -273.422ZM226.6 -290.126C226.6 -295.836 221.87 -300.887 216.151 -301.204L216.041 -299.207C220.69 -298.949 224.6 -294.784 224.6 -290.126L226.6 -290.126ZM216.183 -301.202L28.4071 -317.618L28.2329 -315.626L216.009 -299.21L216.183 -301.202ZM28.444 -317.614C25.5142 -317.98 23 -315.754 23 -312.59L25 -312.59C25 -314.61 26.5178 -315.839 28.196 -315.63L28.444 -317.614ZM23 -312.59L23 -301.358L25 -301.358L25 -312.59L23 -312.59ZM23 -301.358C23 -298.862 24.7886 -296.697 27.3146 -296.336L27.5974 -298.316C26.0914 -298.531 25 -299.822 25 -301.358L23 -301.358ZM27.3702 -296.33L87.5622 -291.146L87.7338 -293.138L27.5418 -298.322L27.3702 -296.33ZM87.5066 -291.152C89.0126 -290.937 90.104 -289.646 90.104 -288.11L92.104 -288.11C92.104 -290.606 90.3154 -292.771 87.7894 -293.132L87.5066 -291.152ZM90.104 -288.11L90.104 -275.438L92.104 -275.438L92.104 -288.11L90.104 -288.11ZM90.104 -275.438C90.104 -273.528 88.9655 -272.406 87.648 -272.406L87.648 -270.406C90.3625 -270.406 92.104 -272.74 92.104 -275.438L90.104 -275.438ZM87.5575 -272.402L27.3655 -266.93L27.5465 -264.938L87.7385 -270.41L87.5575 -272.402ZM27.456 -266.934C24.7415 -266.934 23 -264.6 23 -261.902L25 -261.902C25 -263.812 26.1385 -264.934 27.456 -264.934L27.456 -266.934ZM23 -261.902L23 -250.67L25 -250.67L25 -261.902L23 -261.902ZM23 -250.67C23 -247.844 25.4667 -245.273 28.444 -245.646L28.196 -247.63C26.5653 -247.426 25 -248.888 25 -250.67L23 -250.67ZM28.4071 -245.642L216.183 -262.058L216.009 -264.05L28.2329 -247.634L28.4071 -245.642ZM109.096 -277.454L109.096 -285.806L107.096 -285.806L107.096 -277.454L109.096 -277.454ZM109.096 -285.806C109.096 -287.826 110.614 -289.055 112.292 -288.846L112.54 -290.83C109.61 -291.196 107.096 -288.97 107.096 -285.806L109.096 -285.806ZM112.33 -288.842L188.938 -282.218L189.11 -284.21L112.502 -290.834L112.33 -288.842ZM189.024 -283.214C188.9 -282.222 188.9 -282.222 188.9 -282.222C188.899 -282.222 188.899 -282.222 188.899 -282.222C188.899 -282.222 188.899 -282.222 188.898 -282.222C188.898 -282.222 188.898 -282.222 188.898 -282.222C188.898 -282.222 188.898 -282.222 188.899 -282.222C188.9 -282.222 188.904 -282.221 188.91 -282.22C188.921 -282.219 188.939 -282.216 188.964 -282.212C189.014 -282.204 189.089 -282.191 189.18 -282.172C189.366 -282.133 189.6 -282.074 189.825 -281.99C190.06 -281.901 190.222 -281.809 190.31 -281.732C190.384 -281.667 190.328 -281.687 190.328 -281.774L192.328 -281.774C192.328 -282.437 191.984 -282.925 191.627 -283.237C191.282 -283.539 190.868 -283.734 190.527 -283.862C190.176 -283.994 189.834 -284.079 189.588 -284.13C189.463 -284.156 189.358 -284.174 189.282 -284.187C189.244 -284.193 189.213 -284.197 189.19 -284.2C189.179 -284.202 189.17 -284.203 189.163 -284.204C189.159 -284.205 189.156 -284.205 189.154 -284.205C189.152 -284.206 189.151 -284.206 189.15 -284.206C189.15 -284.206 189.149 -284.206 189.149 -284.206C189.149 -284.206 189.149 -284.206 189.149 -284.206C189.148 -284.206 189.148 -284.206 189.024 -283.214ZM190.328 -281.774C190.328 -281.719 190.32 -281.705 190.284 -281.671C190.221 -281.612 190.091 -281.535 189.878 -281.468C189.674 -281.405 189.456 -281.369 189.28 -281.351C189.195 -281.342 189.125 -281.338 189.078 -281.336C189.055 -281.335 189.039 -281.334 189.029 -281.334C189.024 -281.334 189.021 -281.334 189.021 -281.334C189.02 -281.334 189.02 -281.334 189.021 -281.334C189.021 -281.334 189.021 -281.334 189.022 -281.334C189.022 -281.334 189.023 -281.334 189.023 -281.334C189.023 -281.334 189.023 -281.334 189.023 -281.334C189.024 -281.334 189.024 -281.334 189.024 -280.334C189.024 -279.334 189.024 -279.334 189.025 -279.334C189.025 -279.334 189.025 -279.334 189.025 -279.334C189.026 -279.334 189.026 -279.334 189.027 -279.334C189.028 -279.334 189.029 -279.334 189.031 -279.334C189.033 -279.334 189.037 -279.334 189.041 -279.334C189.049 -279.334 189.059 -279.334 189.071 -279.334C189.095 -279.335 189.128 -279.336 189.168 -279.338C189.247 -279.341 189.357 -279.348 189.488 -279.362C189.744 -279.388 190.102 -279.443 190.474 -279.559C191.143 -279.768 192.328 -280.352 192.328 -281.774L190.328 -281.774ZM188.934 -281.33L112.326 -274.418L112.506 -272.426L189.114 -279.338L188.934 -281.33ZM112.416 -274.422C110.572 -274.422 109.096 -275.79 109.096 -277.454L107.096 -277.454C107.096 -274.51 109.652 -272.422 112.416 -272.422L112.416 -274.422ZM222.144 -164.904L222.308 -165.891L222.295 -165.893L222.282 -165.895L222.144 -164.904ZM71.808 -185.928L71.4918 -184.98L71.5787 -184.951L71.6695 -184.938L71.808 -185.928ZM71.808 -187.368L71.808 -186.368L71.8776 -186.368L71.9465 -186.378L71.808 -187.368ZM222.144 -208.392L222.282 -207.402L222.295 -207.404L222.308 -207.406L222.144 -208.392ZM146.4 -211.272L146.539 -210.282L146.4 -212.272L146.4 -211.272ZM44.16 -196.872L44.0205 -197.863L44.0186 -197.862L44.16 -196.872ZM44.16 -176.424L44.0186 -175.434L44.0217 -175.434L44.16 -176.424ZM147.264 -162.024L147.264 -161.024L147.402 -163.015L147.264 -162.024ZM222.282 -165.895L71.9465 -186.919L71.6695 -184.938L222.005 -163.914L222.282 -165.895ZM72.1242 -186.877C72.0939 -186.887 72.16 -186.87 72.16 -186.756C72.16 -186.699 72.1395 -186.591 72.0434 -186.491C71.9375 -186.381 71.8255 -186.368 71.808 -186.368L71.808 -188.368C71.3585 -188.368 70.9225 -188.212 70.6006 -187.876C70.2885 -187.551 70.16 -187.138 70.16 -186.756C70.16 -185.995 70.6581 -185.258 71.4918 -184.98L72.1242 -186.877ZM71.9465 -186.378L222.282 -207.402L222.006 -209.383L71.6695 -188.359L71.9465 -186.378ZM222.308 -207.406C223.426 -207.592 224.486 -208.227 225.263 -209.091C226.046 -209.961 226.6 -211.127 226.6 -212.424L224.6 -212.424C224.6 -211.706 224.29 -211 223.777 -210.429C223.258 -209.853 222.59 -209.481 221.98 -209.379L222.308 -207.406ZM226.6 -212.424L226.6 -225.672L224.6 -225.672L224.6 -212.424L226.6 -212.424ZM226.6 -225.672C226.6 -228.574 224.09 -230.704 221.568 -230.704L221.568 -228.704C223.078 -228.704 224.6 -227.379 224.6 -225.672L226.6 -225.672ZM221.568 -230.704L28.032 -230.704L28.032 -228.704L221.568 -228.704L221.568 -230.704ZM28.032 -230.704C25.1757 -230.704 23 -228.529 23 -225.672L25 -225.672C25 -227.424 26.2803 -228.704 28.032 -228.704L28.032 -230.704ZM23 -225.672L23 -215.304L25 -215.304L25 -225.672L23 -225.672ZM23 -215.304C23 -212.448 25.1757 -210.272 28.032 -210.272L28.032 -212.272C26.2803 -212.272 25 -213.553 25 -215.304L23 -215.304ZM28.032 -210.272L146.4 -210.272L146.4 -212.272L28.032 -212.272L28.032 -210.272ZM146.261 -212.263L44.0205 -197.863L44.2995 -195.882L146.539 -210.282L146.261 -212.263ZM44.0186 -197.862C41.4926 -197.502 39.704 -195.336 39.704 -192.84L41.704 -192.84C41.704 -194.376 42.7954 -195.667 44.3014 -195.882L44.0186 -197.862ZM39.704 -192.84L39.704 -180.456L41.704 -180.456L41.704 -192.84L39.704 -192.84ZM39.704 -180.456C39.704 -177.96 41.4926 -175.795 44.0186 -175.434L44.3014 -177.414C42.7954 -177.63 41.704 -178.92 41.704 -180.456L39.704 -180.456ZM44.0217 -175.434L147.126 -161.034L147.402 -163.015L44.2983 -177.415L44.0217 -175.434ZM147.264 -163.024L28.032 -163.024L28.032 -161.024L147.264 -161.024L147.264 -163.024ZM28.032 -163.024C25.1757 -163.024 23 -160.849 23 -157.992L25 -157.992C25 -159.744 26.2803 -161.024 28.032 -161.024L28.032 -163.024ZM23 -157.992L23 -147.624L25 -147.624L25 -157.992L23 -157.992ZM23 -147.624C23 -144.768 25.1757 -142.592 28.032 -142.592L28.032 -144.592C26.2803 -144.592 25 -145.873 25 -147.624L23 -147.624ZM28.032 -142.592L221.568 -142.592L221.568 -144.592L28.032 -144.592L28.032 -142.592ZM221.568 -142.592C224.09 -142.592 226.6 -144.723 226.6 -147.624L224.6 -147.624C224.6 -145.918 223.078 -144.592 221.568 -144.592L221.568 -142.592ZM226.6 -147.624L226.6 -160.872L224.6 -160.872L224.6 -147.624L226.6 -147.624ZM226.6 -160.872C226.6 -162.17 226.046 -163.336 225.263 -164.205C224.486 -165.069 223.426 -165.705 222.308 -165.891L221.98 -163.918C222.59 -163.816 223.258 -163.443 223.777 -162.867C224.29 -162.297 224.6 -161.591 224.6 -160.872L226.6 -160.872ZM212.64 -82.5759L221.568 -82.5759L221.568 -84.5759L212.64 -84.5759L212.64 -82.5759ZM221.568 -82.5759C224.09 -82.5759 226.6 -84.7062 226.6 -87.6079L224.6 -87.6079C224.6 -85.9016 223.078 -84.5759 221.568 -84.5759L221.568 -82.5759ZM226.6 -87.6079L226.6 -121.88L224.6 -121.88L224.6 -87.6079L226.6 -87.6079ZM226.6 -121.88C226.6 -124.782 224.09 -126.912 221.568 -126.912L221.568 -124.912C223.078 -124.912 224.6 -123.586 224.6 -121.88L226.6 -121.88ZM221.568 -126.912L28.032 -126.912L28.032 -124.912L221.568 -124.912L221.568 -126.912ZM28.032 -126.912C25.1757 -126.912 23 -124.736 23 -121.88L25 -121.88C25 -123.632 26.2803 -124.912 28.032 -124.912L28.032 -126.912ZM23 -121.88L23 -87.6079L25 -87.6079L25 -121.88L23 -121.88ZM23 -87.6079C23 -84.7516 25.1757 -82.5759 28.032 -82.5759L28.032 -84.5759C26.2803 -84.5759 25 -85.8562 25 -87.6079L23 -87.6079ZM28.032 -82.5759L36.672 -82.5759L36.672 -84.5759L28.032 -84.5759L28.032 -82.5759ZM36.672 -82.5759C39.5283 -82.5759 41.704 -84.7516 41.704 -87.6079L39.704 -87.6079C39.704 -85.8562 38.4237 -84.5759 36.672 -84.5759L36.672 -82.5759ZM41.704 -87.6079L41.704 -100.856L39.704 -100.856L39.704 -87.6079L41.704 -87.6079ZM41.704 -100.856C41.704 -102.366 43.0297 -103.888 44.736 -103.888L44.736 -105.888C41.8343 -105.888 39.704 -103.378 39.704 -100.856L41.704 -100.856ZM44.736 -103.888L112.416 -103.888L112.416 -105.888L44.736 -105.888L44.736 -103.888ZM112.416 -103.888C113.099 -103.888 113.865 -103.536 114.481 -102.921C115.097 -102.305 115.448 -101.539 115.448 -100.856L117.448 -100.856C117.448 -102.189 116.791 -103.439 115.895 -104.335C114.999 -105.231 113.749 -105.888 112.416 -105.888L112.416 -103.888ZM115.448 -100.856L115.448 -87.6079L117.448 -87.6079L117.448 -100.856L115.448 -100.856ZM115.448 -87.6079C115.448 -84.7516 117.624 -82.5759 120.48 -82.5759L120.48 -84.5759C118.728 -84.5759 117.448 -85.8562 117.448 -87.6079L115.448 -87.6079ZM120.48 -82.5759L129.12 -82.5759L129.12 -84.5759L120.48 -84.5759L120.48 -82.5759ZM129.12 -82.5759C131.976 -82.5759 134.152 -84.7516 134.152 -87.6079L132.152 -87.6079C132.152 -85.8562 130.872 -84.5759 129.12 -84.5759L129.12 -82.5759ZM134.152 -87.6079L134.152 -100.856L132.152 -100.856L132.152 -87.6079L134.152 -87.6079ZM134.152 -100.856C134.152 -102.366 135.478 -103.888 137.184 -103.888L137.184 -105.888C134.282 -105.888 132.152 -103.378 132.152 -100.856L134.152 -100.856ZM137.184 -103.888L204.576 -103.888L204.576 -105.888L137.184 -105.888L137.184 -103.888ZM204.576 -103.888C206.282 -103.888 207.608 -102.366 207.608 -100.856L209.608 -100.856C209.608 -103.378 207.478 -105.888 204.576 -105.888L204.576 -103.888ZM207.608 -100.856L207.608 -87.6079L209.608 -87.6079L209.608 -100.856L207.608 -100.856ZM207.608 -87.6079C207.608 -84.7062 210.118 -82.5759 212.64 -82.5759L212.64 -84.5759C211.13 -84.5759 209.608 -85.9016 209.608 -87.6079L207.608 -87.6079ZM169.728 -62.5384L169.386 -63.4782L169.378 -63.475L169.728 -62.5384ZM75.84 -27.4024L75.4895 -28.339L75.4753 -28.3337L75.4613 -28.3279L75.84 -27.4024ZM79.872 -6.0904L79.5205 -7.02671L79.5076 -7.02164L79.872 -6.0904ZM173.472 -41.2264L173.143 -42.1709L173.132 -42.1669L173.121 -42.1626L173.472 -41.2264ZM162.24 -1.34641L196.8 -1.34641L196.8 -3.34641L162.24 -3.34641L162.24 -1.34641ZM196.8 -1.34641C213.192 -1.34641 226.6 -14.7541 226.6 -31.1464L224.6 -31.1464C224.6 -15.8587 212.088 -3.34641 196.8 -3.34641L196.8 -1.34641ZM226.6 -31.1464L226.6 -37.1944L224.6 -37.1944L224.6 -31.1464L226.6 -31.1464ZM226.6 -37.1944C226.6 -53.8812 213.186 -66.9944 196.8 -66.9944L196.8 -64.9944C212.094 -64.9944 224.6 -52.7636 224.6 -37.1944L226.6 -37.1944ZM196.8 -66.9944L189.888 -66.9944L189.888 -64.9944L196.8 -64.9944L196.8 -66.9944ZM189.888 -66.9944C182.867 -66.9944 175.839 -65.8247 169.386 -63.4782L170.07 -61.5986C176.289 -63.8601 183.085 -64.9944 189.888 -64.9944L189.888 -66.9944ZM169.378 -63.475L75.4895 -28.339L76.1905 -26.4659L170.078 -61.6018L169.378 -63.475ZM75.4613 -28.3279C69.264 -25.7927 62.4837 -24.6584 55.68 -24.6584L55.68 -22.6584C62.7003 -22.6584 69.744 -23.8282 76.2186 -26.4769L75.4613 -28.3279ZM55.68 -24.6584L51.072 -24.6584L51.072 -22.6584L55.68 -22.6584L55.68 -24.6584ZM51.072 -24.6584C45.8643 -24.6584 41.704 -28.8187 41.704 -34.0264L39.704 -34.0264C39.704 -27.7141 44.7597 -22.6584 51.072 -22.6584L51.072 -24.6584ZM41.704 -34.0264L41.704 -34.6024L39.704 -34.6024L39.704 -34.0264L41.704 -34.0264ZM41.704 -34.6024C41.704 -39.5402 45.8821 -43.9704 51.072 -43.9704L51.072 -45.9704C44.7418 -45.9704 39.704 -40.6087 39.704 -34.6024L41.704 -34.6024ZM51.072 -43.9704L87.072 -43.9704L87.072 -45.9704L51.072 -45.9704L51.072 -43.9704ZM87.072 -43.9704C89.9283 -43.9704 92.104 -46.1461 92.104 -49.0024L90.104 -49.0024C90.104 -47.2507 88.8237 -45.9704 87.072 -45.9704L87.072 -43.9704ZM92.104 -49.0024L92.104 -61.9624L90.104 -61.9624L90.104 -49.0024L92.104 -49.0024ZM92.104 -61.9624C92.104 -64.8187 89.9283 -66.9944 87.072 -66.9944L87.072 -64.9944C88.8237 -64.9944 90.104 -63.7141 90.104 -61.9624L92.104 -61.9624ZM87.072 -66.9944L52.8 -66.9944L52.8 -64.9944L87.072 -64.9944L87.072 -66.9944ZM52.8 -66.9944C36.1197 -66.9944 23 -53.8747 23 -37.1944L25 -37.1944C25 -52.7701 37.2243 -64.9944 52.8 -64.9944L52.8 -66.9944ZM23 -37.1944L23 -31.1464L25 -31.1464L25 -37.1944L23 -37.1944ZM23 -31.1464C23 -14.7607 36.1132 -1.34641 52.8 -1.34641L52.8 -3.34641C37.2308 -3.34641 25 -15.8522 25 -31.1464L23 -31.1464ZM52.8 -1.34641L59.424 -1.34641L59.424 -3.34641L52.8 -3.34641L52.8 -1.34641ZM59.424 -1.34641C66.4476 -1.34641 73.4847 -2.51719 80.2364 -5.15916L79.5076 -7.02164C73.0113 -4.47962 66.2244 -3.34641 59.424 -3.34641L59.424 -1.34641ZM80.2234 -5.15421L173.823 -40.2902L173.121 -42.1626L79.5206 -7.02662L80.2234 -5.15421ZM173.801 -40.2819C180.351 -42.5605 186.862 -43.9704 193.632 -43.9704L193.632 -45.9704C186.578 -45.9704 179.841 -44.5003 173.143 -42.1709L173.801 -40.2819ZM193.632 -43.9704L198.24 -43.9704L198.24 -45.9704L193.632 -45.9704L193.632 -43.9704ZM198.24 -43.9704C203.43 -43.9704 207.608 -39.5402 207.608 -34.6024L209.608 -34.6024C209.608 -40.6086 204.57 -45.9704 198.24 -45.9704L198.24 -43.9704ZM207.608 -34.6024L207.608 -34.0264L209.608 -34.0264L209.608 -34.6024L207.608 -34.6024ZM207.608 -34.0264C207.608 -28.8187 203.448 -24.6584 198.24 -24.6584L198.24 -22.6584C204.552 -22.6584 209.608 -27.7141 209.608 -34.0264L207.608 -34.0264ZM198.24 -24.6584L162.24 -24.6584L162.24 -22.6584L198.24 -22.6584L198.24 -24.6584ZM162.24 -24.6584C160.907 -24.6584 159.657 -24.0019 158.761 -23.1055C157.865 -22.2092 157.208 -20.9596 157.208 -19.6264L159.208 -19.6264C159.208 -20.3092 159.559 -21.0757 160.175 -21.6913C160.791 -22.3069 161.557 -22.6584 162.24 -22.6584L162.24 -24.6584ZM157.208 -19.6264L157.208 -6.37842L159.208 -6.37842L159.208 -19.6264L157.208 -19.6264ZM157.208 -6.37842C157.208 -3.47672 159.718 -1.34641 162.24 -1.34641L162.24 -3.34641C160.73 -3.34641 159.208 -4.67212 159.208 -6.37842L157.208 -6.37842ZM221.568 48.9031L28.032 48.9031L28.032 50.9031L221.568 50.9031L221.568 48.9031ZM28.032 48.9031C25.1757 48.9031 23 51.0788 23 53.9351L25 53.9351C25 52.1834 26.2803 50.9031 28.032 50.9031L28.032 48.9031ZM23 53.9351L23 84.7511L25 84.7511L25 53.9351L23 53.9351ZM23 84.7511C23 101.137 36.1132 114.551 52.8 114.551L52.8 112.551C37.2308 112.551 25 100.045 25 84.7511L23 84.7511ZM52.8 114.551L196.8 114.551L196.8 112.551L52.8 112.551L52.8 114.551ZM196.8 114.551C213.192 114.551 226.6 101.143 226.6 84.7511L224.6 84.7511C224.6 100.039 212.088 112.551 196.8 112.551L196.8 114.551ZM226.6 84.7511L226.6 53.9351L224.6 53.9351L224.6 84.7511L226.6 84.7511ZM226.6 53.9351C226.6 51.0334 224.09 48.9031 221.568 48.9031L221.568 50.9031C223.078 50.9031 224.6 52.2288 224.6 53.9351L226.6 53.9351ZM41.704 81.8711L41.704 74.9591L39.704 74.9591L39.704 81.8711L41.704 81.8711ZM41.704 74.9591C41.704 73.4488 43.0297 71.9271 44.736 71.9271L44.736 69.9271C41.8343 69.9271 39.704 72.4374 39.704 74.9591L41.704 74.9591ZM44.736 71.9271L204.576 71.9271L204.576 69.9271L44.736 69.9271L44.736 71.9271ZM204.576 71.9271C206.282 71.9271 207.608 73.4489 207.608 74.9591L209.608 74.9591C209.608 72.4374 207.478 69.9271 204.576 69.9271L204.576 71.9271ZM207.608 74.9591L207.608 81.8711L209.608 81.8711L209.608 74.9591L207.608 74.9591ZM207.608 81.8711C207.608 87.0788 203.448 91.2391 198.24 91.2391L198.24 93.2391C204.552 93.2391 209.608 88.1834 209.608 81.8711L207.608 81.8711ZM198.24 91.2391L51.072 91.2391L51.072 93.2391L198.24 93.2391L198.24 91.2391ZM51.072 91.2391C45.8643 91.2391 41.704 87.0788 41.704 81.8711L39.704 81.8711C39.704 88.1834 44.7597 93.2391 51.072 93.2391L51.072 91.2391ZM195.36 140.988L195.212 141.976L195.236 141.98L195.26 141.983L195.36 140.988ZM226.6 131.772L226.6 126.588L224.6 126.588L224.6 131.772L226.6 131.772ZM226.6 126.588C226.6 123.644 224.044 121.556 221.28 121.556L221.28 123.556C223.124 123.556 224.6 124.923 224.6 126.588L226.6 126.588ZM221.28 121.556L204 121.556L204 123.556L221.28 123.556L221.28 121.556ZM204 121.556C202.097 121.556 200.762 122.076 199.937 123.097C199.154 124.067 199.006 125.29 198.969 126.261C198.95 126.748 198.959 127.266 198.956 127.667C198.952 128.101 198.936 128.431 198.887 128.685C198.838 128.941 198.776 129.003 198.774 129.005C198.774 129.006 198.773 129.006 198.772 129.007C198.771 129.008 198.765 129.011 198.751 129.016C198.722 129.026 198.655 129.044 198.528 129.044L198.528 131.044C199.149 131.044 199.726 130.87 200.169 130.438C200.588 130.031 200.765 129.509 200.851 129.062C200.937 128.614 200.952 128.125 200.956 127.682C200.959 127.206 200.95 126.787 200.967 126.338C201.002 125.437 201.142 124.788 201.493 124.354C201.802 123.971 202.447 123.556 204 123.556L204 121.556ZM198.528 129.044C196.012 129.044 194.605 128.673 193.792 128.223C193.033 127.804 192.71 127.272 192.478 126.664C192.346 126.315 192.267 126.015 192.133 125.601C192.013 125.229 191.853 124.789 191.584 124.386C191.301 123.961 190.908 123.593 190.355 123.344C189.82 123.102 189.187 122.996 188.448 122.996L188.448 124.996C189.005 124.996 189.335 125.078 189.533 125.167C189.713 125.248 189.825 125.353 189.92 125.495C190.029 125.659 190.121 125.881 190.23 126.217C190.326 126.512 190.454 126.968 190.61 127.376C190.954 128.279 191.531 129.259 192.824 129.974C194.063 130.658 195.86 131.044 198.528 131.044L198.528 129.044ZM188.448 122.996C186.877 122.996 185.699 123.822 184.974 125.181C184.285 126.473 183.992 128.249 183.992 130.332L185.992 130.332C185.992 128.382 186.275 126.991 186.738 126.122C187.165 125.322 187.715 124.996 188.448 124.996L188.448 122.996ZM183.992 130.332C183.992 136.727 189.116 141.062 195.212 141.976L195.508 139.999C190.084 139.185 185.992 135.456 185.992 130.332L183.992 130.332ZM195.26 141.983C206.813 143.138 210.014 143.14 214.944 143.14L214.944 141.14C210.082 141.14 206.947 141.141 195.459 139.993L195.26 141.983ZM214.944 143.14C221.22 143.14 226.6 138.119 226.6 131.772L224.6 131.772C224.6 136.944 220.188 141.14 214.944 141.14L214.944 143.14ZM212.64 194.512L221.568 194.512L221.568 192.512L212.64 192.512L212.64 194.512ZM221.568 194.512C224.09 194.512 226.6 192.381 226.6 189.48L224.6 189.48C224.6 191.186 223.078 192.512 221.568 192.512L221.568 194.512ZM226.6 189.48L226.6 155.208L224.6 155.208L224.6 189.48L226.6 189.48ZM226.6 155.208C226.6 152.306 224.09 150.176 221.568 150.176L221.568 152.176C223.078 152.176 224.6 153.501 224.6 155.208L226.6 155.208ZM221.568 150.176L28.032 150.176L28.032 152.176L221.568 152.176L221.568 150.176ZM28.032 150.176C25.1757 150.176 23 152.351 23 155.208L25 155.208C25 153.456 26.2803 152.176 28.032 152.176L28.032 150.176ZM23 155.208L23 189.48L25 189.48L25 155.208L23 155.208ZM23 189.48C23 192.336 25.1757 194.512 28.032 194.512L28.032 192.512C26.2803 192.512 25 191.231 25 189.48L23 189.48ZM28.032 194.512L36.672 194.512L36.672 192.512L28.032 192.512L28.032 194.512ZM36.672 194.512C39.5283 194.512 41.704 192.336 41.704 189.48L39.704 189.48C39.704 191.231 38.4237 192.512 36.672 192.512L36.672 194.512ZM41.704 189.48L41.704 176.232L39.704 176.232L39.704 189.48L41.704 189.48ZM41.704 176.232C41.704 174.721 43.0297 173.2 44.736 173.2L44.736 171.2C41.8343 171.2 39.704 173.71 39.704 176.232L41.704 176.232ZM44.736 173.2L112.416 173.2L112.416 171.2L44.736 171.2L44.736 173.2ZM112.416 173.2C113.099 173.2 113.865 173.551 114.481 174.167C115.097 174.782 115.448 175.549 115.448 176.232L117.448 176.232C117.448 174.898 116.791 173.649 115.895 172.752C114.999 171.856 113.749 171.2 112.416 171.2L112.416 173.2ZM115.448 176.232L115.448 189.48L117.448 189.48L117.448 176.232L115.448 176.232ZM115.448 189.48C115.448 192.336 117.624 194.512 120.48 194.512L120.48 192.512C118.728 192.512 117.448 191.231 117.448 189.48L115.448 189.48ZM120.48 194.512L129.12 194.512L129.12 192.512L120.48 192.512L120.48 194.512ZM129.12 194.512C131.976 194.512 134.152 192.336 134.152 189.48L132.152 189.48C132.152 191.231 130.872 192.512 129.12 192.512L129.12 194.512ZM134.152 189.48L134.152 176.232L132.152 176.232L132.152 189.48L134.152 189.48ZM134.152 176.232C134.152 174.721 135.478 173.2 137.184 173.2L137.184 171.2C134.282 171.2 132.152 173.71 132.152 176.232L134.152 176.232ZM137.184 173.2L204.576 173.2L204.576 171.2L137.184 171.2L137.184 173.2ZM204.576 173.2C206.282 173.2 207.608 174.721 207.608 176.232L209.608 176.232C209.608 173.71 207.478 171.2 204.576 171.2L204.576 173.2ZM207.608 176.232L207.608 189.48L209.608 189.48L209.608 176.232L207.608 176.232ZM207.608 189.48C207.608 192.381 210.118 194.512 212.64 194.512L212.64 192.512C211.13 192.512 209.608 191.186 209.608 189.48L207.608 189.48ZM28.896 273.589L28.689 272.611L28.679 272.613L28.896 273.589ZM118.752 254.581L118.959 255.559L118.962 255.559L118.752 254.581ZM130.848 254.581L130.638 255.559L130.641 255.559L130.848 254.581ZM220.704 273.589L220.947 272.619L220.929 272.615L220.911 272.611L220.704 273.589ZM222.144 255.445L222.419 254.484L222.386 254.474L222.353 254.467L222.144 255.445ZM162.816 242.773L163.025 241.795L162.922 241.773L162.816 241.773L162.816 242.773ZM162.816 241.621L162.612 240.642L162.485 240.669L162.369 240.727L162.816 241.621ZM222.144 229.237L222.348 230.216L222.384 230.209L222.419 230.199L222.144 229.237ZM220.704 211.093L220.911 212.071L220.929 212.068L220.947 212.063L220.704 211.093ZM130.848 230.101L130.641 229.123L130.638 229.123L130.848 230.101ZM118.752 230.101L118.962 229.123L118.959 229.123L118.752 230.101ZM28.896 211.093L28.679 212.069L28.689 212.071L28.896 211.093ZM27.168 228.949L27.3759 227.971L27.3428 227.964L27.3094 227.959L27.168 228.949ZM86.784 241.621L87.2312 240.727L87.1169 240.67L86.9919 240.643L86.784 241.621ZM86.784 242.773L86.784 241.773L86.6789 241.773L86.5761 241.795L86.784 242.773ZM27.168 255.445L26.9601 254.467L26.9264 254.474L26.8933 254.484L27.168 255.445ZM29.1029 274.567L118.959 255.559L118.545 253.603L28.689 272.611L29.1029 274.567ZM118.962 255.559C122.855 254.725 126.745 254.725 130.638 255.559L131.058 253.603C126.887 252.71 122.713 252.71 118.542 253.603L118.962 255.559ZM130.641 255.559L220.497 274.567L220.911 272.611L131.055 253.603L130.641 255.559ZM220.461 274.559C221.972 274.937 223.511 274.454 224.644 273.539C225.782 272.62 226.6 271.195 226.6 269.557L224.6 269.557C224.6 270.511 224.122 271.39 223.388 271.983C222.649 272.58 221.74 272.817 220.947 272.619L220.461 274.559ZM226.6 269.557L226.6 259.477L224.6 259.477L224.6 269.557L226.6 269.557ZM226.6 259.477C226.6 256.883 224.722 255.142 222.419 254.484L221.869 256.407C223.598 256.9 224.6 258.039 224.6 259.477L226.6 259.477ZM222.353 254.467L163.025 241.795L162.607 243.751L221.935 256.423L222.353 254.467ZM162.816 241.773C162.946 241.773 163.126 241.833 163.257 241.989C163.369 242.123 163.384 242.251 163.384 242.305C163.384 242.402 163.34 242.477 163.263 242.516L162.369 240.727C161.716 241.053 161.384 241.704 161.384 242.305C161.384 242.611 161.471 242.974 161.727 243.278C162.002 243.605 162.398 243.773 162.816 243.773L162.816 241.773ZM163.02 242.6L222.348 230.216L221.94 228.258L162.612 240.642L163.02 242.6ZM222.419 230.199C224.767 229.528 226.6 227.473 226.6 225.205L224.6 225.205C224.6 226.393 223.553 227.794 221.869 228.276L222.419 230.199ZM226.6 225.205L226.6 215.125L224.6 215.125L224.6 225.205L226.6 225.205ZM226.6 215.125C226.6 213.487 225.782 212.062 224.644 211.143C223.511 210.228 221.972 209.745 220.461 210.123L220.947 212.063C221.74 211.865 222.649 212.102 223.388 212.699C224.122 213.292 224.6 214.171 224.6 215.125L226.6 215.125ZM220.497 210.115L130.641 229.123L131.055 231.079L220.911 212.071L220.497 210.115ZM130.638 229.123C126.745 229.958 122.855 229.958 118.962 229.123L118.542 231.079C122.713 231.973 126.887 231.973 131.058 231.079L130.638 229.123ZM118.959 229.123L29.1029 210.115L28.689 212.071L118.545 231.079L118.959 229.123ZM29.1129 210.117C25.8498 209.392 23 211.942 23 215.125L25 215.125C25 213.124 26.7581 211.642 28.6791 212.069L29.1129 210.117ZM23 215.125L23 225.205L25 225.205L25 215.125L23 215.125ZM23 225.205C23 227.347 24.4394 229.569 27.0266 229.939L27.3094 227.959C25.8645 227.753 25 226.519 25 225.205L23 225.205ZM26.9601 229.927L86.5761 242.599L86.9919 240.643L27.3759 227.971L26.9601 229.927ZM86.3368 242.516C86.2603 242.477 86.216 242.402 86.216 242.305C86.216 242.251 86.2309 242.123 86.3431 241.989C86.4744 241.833 86.6544 241.773 86.784 241.773L86.784 243.773C87.2016 243.773 87.5975 243.605 87.8729 243.278C88.1291 242.974 88.216 242.611 88.216 242.305C88.216 241.704 87.8837 241.053 87.2312 240.727L86.3368 242.516ZM86.5761 241.795L26.9601 254.467L27.3759 256.423L86.9919 243.751L86.5761 241.795ZM26.8933 254.484C24.4435 255.184 23 257.307 23 259.477L25 259.477C25 258.191 25.8604 256.859 27.4427 256.407L26.8933 254.484ZM23 259.477L23 269.557L25 269.557L25 259.477L23 259.477ZM23 269.557C23 272.74 25.8498 275.29 29.1129 274.565L28.679 272.613C26.7581 273.04 25 271.558 25 269.557L23 269.557ZM162.24 349.44L196.8 349.44L196.8 347.44L162.24 347.44L162.24 349.44ZM196.8 349.44C213.192 349.44 226.6 336.032 226.6 319.64L224.6 319.64C224.6 334.928 212.088 347.44 196.8 347.44L196.8 349.44ZM226.6 319.64L226.6 313.304L224.6 313.304L224.6 319.64L226.6 319.64ZM226.6 313.304C226.6 296.898 213.179 283.792 196.8 283.792L196.8 285.792C212.101 285.792 224.6 298.029 224.6 313.304L226.6 313.304ZM196.8 283.792L52.512 283.792L52.512 285.792L196.8 285.792L196.8 283.792ZM52.512 283.792C36.1197 283.792 23 296.912 23 313.304L25 313.304C25 298.016 37.2243 285.792 52.512 285.792L52.512 283.792ZM23 313.304L23 319.64L25 319.64L25 313.304L23 313.304ZM23 319.64C23 336.019 36.1066 349.44 52.512 349.44L52.512 347.44C37.2373 347.44 25 334.941 25 319.64L23 319.64ZM52.512 349.44L87.072 349.44L87.072 347.44L52.512 347.44L52.512 349.44ZM87.072 349.44C89.9283 349.44 92.104 347.264 92.104 344.408L90.104 344.408C90.104 346.16 88.8237 347.44 87.072 347.44L87.072 349.44ZM92.104 344.408L92.104 331.16L90.104 331.16L90.104 344.408L92.104 344.408ZM92.104 331.16C92.104 328.638 89.9737 326.128 87.072 326.128L87.072 328.128C88.7783 328.128 90.104 329.65 90.104 331.16L92.104 331.16ZM87.072 326.128L51.072 326.128L51.072 328.128L87.072 328.128L87.072 326.128ZM51.072 326.128C45.8643 326.128 41.704 321.968 41.704 316.76L39.704 316.76C39.704 323.072 44.7597 328.128 51.072 328.128L51.072 326.128ZM41.704 316.76L41.704 316.184L39.704 316.184L39.704 316.76L41.704 316.76ZM41.704 316.184C41.704 311.246 45.8821 306.816 51.072 306.816L51.072 304.816C44.7418 304.816 39.704 310.178 39.704 316.184L41.704 316.184ZM51.072 306.816L198.24 306.816L198.24 304.816L51.072 304.816L51.072 306.816ZM198.24 306.816C203.43 306.816 207.608 311.246 207.608 316.184L209.608 316.184C209.608 310.178 204.57 304.816 198.24 304.816L198.24 306.816ZM207.608 316.184L207.608 316.76L209.608 316.76L209.608 316.184L207.608 316.184ZM207.608 316.76C207.608 321.968 203.448 326.128 198.24 326.128L198.24 328.128C204.552 328.128 209.608 323.072 209.608 316.76L207.608 316.76ZM198.24 326.128L162.24 326.128L162.24 328.128L198.24 328.128L198.24 326.128ZM162.24 326.128C160.907 326.128 159.657 326.784 158.761 327.681C157.865 328.577 157.208 329.827 157.208 331.16L159.208 331.16C159.208 330.477 159.559 329.711 160.175 329.095C160.791 328.479 161.557 328.128 162.24 328.128L162.24 326.128ZM157.208 331.16L157.208 344.408L159.208 344.408L159.208 331.16L157.208 331.16ZM157.208 344.408C157.208 347.31 159.718 349.44 162.24 349.44L162.24 347.44C160.73 347.44 159.208 346.114 159.208 344.408L157.208 344.408ZM212.64 409.42L221.568 409.42L221.568 407.42L212.64 407.42L212.64 409.42ZM221.568 409.42C224.09 409.42 226.6 407.29 226.6 404.388L224.6 404.388C224.6 406.095 223.078 407.42 221.568 407.42L221.568 409.42ZM226.6 404.388L226.6 370.116L224.6 370.116L224.6 404.388L226.6 404.388ZM226.6 370.116C226.6 367.215 224.09 365.084 221.568 365.084L221.568 367.084C223.078 367.084 224.6 368.41 224.6 370.116L226.6 370.116ZM221.568 365.084L28.032 365.084L28.032 367.084L221.568 367.084L221.568 365.084ZM28.032 365.084C25.1757 365.084 23 367.26 23 370.116L25 370.116C25 368.365 26.2803 367.084 28.032 367.084L28.032 365.084ZM23 370.116L23 404.388L25 404.388L25 370.116L23 370.116ZM23 404.388C23 407.245 25.1757 409.42 28.032 409.42L28.032 407.42C26.2803 407.42 25 406.14 25 404.388L23 404.388ZM28.032 409.42L36.672 409.42L36.672 407.42L28.032 407.42L28.032 409.42ZM36.672 409.42C39.5283 409.42 41.704 407.245 41.704 404.388L39.704 404.388C39.704 406.14 38.4237 407.42 36.672 407.42L36.672 409.42ZM41.704 404.388L41.704 391.14L39.704 391.14L39.704 404.388L41.704 404.388ZM41.704 391.14C41.704 389.63 43.0297 388.108 44.736 388.108L44.736 386.108C41.8343 386.108 39.704 388.619 39.704 391.14L41.704 391.14ZM44.736 388.108L112.416 388.108L112.416 386.108L44.736 386.108L44.736 388.108ZM112.416 388.108C113.099 388.108 113.865 388.46 114.481 389.075C115.097 389.691 115.448 390.458 115.448 391.14L117.448 391.14C117.448 389.807 116.791 388.558 115.895 387.661C114.999 386.765 113.749 386.108 112.416 386.108L112.416 388.108ZM115.448 391.14L115.448 404.388L117.448 404.388L117.448 391.14L115.448 391.14ZM115.448 404.388C115.448 407.245 117.624 409.42 120.48 409.42L120.48 407.42C118.728 407.42 117.448 406.14 117.448 404.388L115.448 404.388ZM120.48 409.42L129.12 409.42L129.12 407.42L120.48 407.42L120.48 409.42ZM129.12 409.42C131.976 409.42 134.152 407.245 134.152 404.388L132.152 404.388C132.152 406.14 130.872 407.42 129.12 407.42L129.12 409.42ZM134.152 404.388L134.152 391.14L132.152 391.14L132.152 404.388L134.152 404.388ZM134.152 391.14C134.152 389.63 135.478 388.108 137.184 388.108L137.184 386.108C134.282 386.108 132.152 388.619 132.152 391.14L134.152 391.14ZM137.184 388.108L204.576 388.108L204.576 386.108L137.184 386.108L137.184 388.108ZM204.576 388.108C206.282 388.108 207.608 389.63 207.608 391.14L209.608 391.14C209.608 388.619 207.478 386.108 204.576 386.108L204.576 388.108ZM207.608 391.14L207.608 404.388L209.608 404.388L209.608 391.14L207.608 391.14ZM207.608 404.388C207.608 407.29 210.118 409.42 212.64 409.42L212.64 407.42C211.13 407.42 209.608 406.095 209.608 404.388L207.608 404.388ZM44.736 448.026L221.568 448.026L221.568 446.026L44.736 446.026L44.736 448.026ZM221.568 448.026C224.09 448.026 226.6 445.896 226.6 442.994L224.6 442.994C224.6 444.7 223.078 446.026 221.568 446.026L221.568 448.026ZM226.6 442.994L226.6 430.034L224.6 430.034L224.6 442.994L226.6 442.994ZM226.6 430.034C226.6 427.132 224.09 425.002 221.568 425.002L221.568 427.002C223.078 427.002 224.6 428.328 224.6 430.034L226.6 430.034ZM221.568 425.002L28.032 425.002L28.032 427.002L221.568 427.002L221.568 425.002ZM28.032 425.002C25.1757 425.002 23 427.178 23 430.034L25 430.034C25 428.282 26.2803 427.002 28.032 427.002L28.032 425.002ZM23 430.034L23 464.306L25 464.306L25 430.034L23 430.034ZM23 464.306C23 467.162 25.1757 469.338 28.032 469.338L28.032 467.338C26.2803 467.338 25 466.058 25 464.306L23 464.306ZM28.032 469.338L36.672 469.338L36.672 467.338L28.032 467.338L28.032 469.338ZM36.672 469.338C39.5283 469.338 41.704 467.162 41.704 464.306L39.704 464.306C39.704 466.058 38.4237 467.338 36.672 467.338L36.672 469.338ZM41.704 464.306L41.704 451.058L39.704 451.058L39.704 464.306L41.704 464.306ZM41.704 451.058C41.704 449.548 43.0297 448.026 44.736 448.026L44.736 446.026C41.8343 446.026 39.704 448.536 39.704 451.058L41.704 451.058ZM44.736 498.381L221.568 498.381L221.568 496.381L44.736 496.381L44.736 498.381ZM221.568 498.381C224.09 498.381 226.6 496.251 226.6 493.349L224.6 493.349C224.6 495.055 223.078 496.381 221.568 496.381L221.568 498.381ZM226.6 493.349L226.6 480.389L224.6 480.389L224.6 493.349L226.6 493.349ZM226.6 480.389C226.6 477.487 224.09 475.357 221.568 475.357L221.568 477.357C223.078 477.357 224.6 478.683 224.6 480.389L226.6 480.389ZM221.568 475.357L28.032 475.357L28.032 477.357L221.568 477.357L221.568 475.357ZM28.032 475.357C25.1757 475.357 23 477.533 23 480.389L25 480.389C25 478.637 26.2803 477.357 28.032 477.357L28.032 475.357ZM23 480.389L23 514.661L25 514.661L25 480.389L23 480.389ZM23 514.661C23 517.517 25.1757 519.693 28.032 519.693L28.032 517.693C26.2802 517.693 25 516.413 25 514.661L23 514.661ZM28.032 519.693L36.672 519.693L36.672 517.693L28.032 517.693L28.032 519.693ZM36.672 519.693C39.5282 519.693 41.704 517.517 41.704 514.661L39.704 514.661C39.704 516.413 38.4237 517.693 36.672 517.693L36.672 519.693ZM41.704 514.661L41.704 501.413L39.704 501.413L39.704 514.661L41.704 514.661ZM41.704 501.413C41.704 499.903 43.0297 498.381 44.736 498.381L44.736 496.381C41.8343 496.381 39.704 498.891 39.704 501.413L41.704 501.413ZM212.64 579.61L221.568 579.61L221.568 577.61L212.64 577.61L212.64 579.61ZM221.568 579.61C224.09 579.61 226.6 577.48 226.6 574.578L224.6 574.578C224.6 576.285 223.078 577.61 221.568 577.61L221.568 579.61ZM226.6 574.578L226.6 540.306L224.6 540.306L224.6 574.578L226.6 574.578ZM226.6 540.306C226.6 537.405 224.09 535.274 221.568 535.274L221.568 537.274C223.078 537.274 224.6 538.6 224.6 540.306L226.6 540.306ZM221.568 535.274L28.032 535.274L28.032 537.274L221.568 537.274L221.568 535.274ZM28.032 535.274C25.1757 535.274 23 537.45 23 540.306L25 540.306C25 538.555 26.2802 537.274 28.032 537.274L28.032 535.274ZM23 540.306L23 574.578L25 574.578L25 540.306L23 540.306ZM23 574.578C23 577.435 25.1757 579.61 28.032 579.61L28.032 577.61C26.2802 577.61 25 576.33 25 574.578L23 574.578ZM28.032 579.61L36.672 579.61L36.672 577.61L28.032 577.61L28.032 579.61ZM36.672 579.61C39.5282 579.61 41.704 577.435 41.704 574.578L39.704 574.578C39.704 576.33 38.4237 577.61 36.672 577.61L36.672 579.61ZM41.704 574.578L41.704 561.33L39.704 561.33L39.704 574.578L41.704 574.578ZM41.704 561.33C41.704 559.82 43.0297 558.298 44.736 558.298L44.736 556.298C41.8343 556.298 39.704 558.809 39.704 561.33L41.704 561.33ZM44.736 558.298L112.416 558.298L112.416 556.298L44.736 556.298L44.736 558.298ZM112.416 558.298C113.099 558.298 113.865 558.65 114.481 559.265C115.097 559.881 115.448 560.648 115.448 561.33L117.448 561.33C117.448 559.997 116.791 558.748 115.895 557.851C114.999 556.955 113.749 556.298 112.416 556.298L112.416 558.298ZM115.448 561.33L115.448 574.578L117.448 574.578L117.448 561.33L115.448 561.33ZM115.448 574.578C115.448 577.435 117.624 579.61 120.48 579.61L120.48 577.61C118.728 577.61 117.448 576.33 117.448 574.578L115.448 574.578ZM120.48 579.61L129.12 579.61L129.12 577.61L120.48 577.61L120.48 579.61ZM129.12 579.61C131.976 579.61 134.152 577.435 134.152 574.578L132.152 574.578C132.152 576.33 130.872 577.61 129.12 577.61L129.12 579.61ZM134.152 574.578L134.152 561.33L132.152 561.33L132.152 574.578L134.152 574.578ZM134.152 561.33C134.152 559.82 135.478 558.298 137.184 558.298L137.184 556.298C134.282 556.298 132.152 558.809 132.152 561.33L134.152 561.33ZM137.184 558.298L204.576 558.298L204.576 556.298L137.184 556.298L137.184 558.298ZM204.576 558.298C206.282 558.298 207.608 559.82 207.608 561.33L209.608 561.33C209.608 558.809 207.478 556.298 204.576 556.298L204.576 558.298ZM207.608 561.33L207.608 574.578L209.608 574.578L209.608 561.33L207.608 561.33ZM207.608 574.578C207.608 577.48 210.118 579.61 212.64 579.61L212.64 577.61C211.13 577.61 209.608 576.285 209.608 574.578L207.608 574.578ZM86.496 642.56L86.3123 641.577L86.0079 641.634L85.7888 641.853L86.496 642.56ZM222.144 617.216L222.003 616.226L221.981 616.229L221.96 616.233L222.144 617.216ZM159.36 614.912L159.36 613.912L159.267 613.912L159.176 613.929L159.36 614.912ZM27.168 639.68L26.9838 638.697L26.9166 638.71L26.8517 638.731L27.168 639.68ZM221.568 642.136L86.496 642.136L86.496 644.136L221.568 644.136L221.568 642.136ZM86.496 642.136C86.5797 642.136 86.7902 642.157 86.9925 642.334C87.2122 642.526 87.28 642.777 87.28 642.956C87.28 643.114 87.231 643.214 87.2163 643.242C87.1978 643.277 87.1875 643.283 87.2031 643.267L85.7888 641.853C85.5681 642.074 85.28 642.459 85.28 642.956C85.28 643.242 85.3837 643.584 85.6754 643.839C85.9498 644.079 86.2683 644.136 86.496 644.136L86.496 642.136ZM86.6796 643.543L222.328 618.199L221.96 616.233L86.3123 641.577L86.6796 643.543ZM222.285 618.206C224.811 617.845 226.6 615.68 226.6 613.184L224.6 613.184C224.6 614.72 223.509 616.011 222.003 616.226L222.285 618.206ZM226.6 613.184L226.6 600.224L224.6 600.224L224.6 613.184L226.6 613.184ZM226.6 600.224C226.6 597.322 224.09 595.192 221.568 595.192L221.568 597.192C223.078 597.192 224.6 598.518 224.6 600.224L226.6 600.224ZM221.568 595.192L28.032 595.192L28.032 597.192L221.568 597.192L221.568 595.192ZM28.032 595.192C25.1757 595.192 23 597.368 23 600.224L25 600.224C25 598.472 26.2802 597.192 28.032 597.192L28.032 595.192ZM23 600.224L23 610.592L25 610.592L25 600.224L23 600.224ZM23 610.592C23 613.114 25.1303 615.624 28.032 615.624L28.032 613.624C26.3257 613.624 25 612.102 25 610.592L23 610.592ZM28.032 615.624L159.36 615.624L159.36 613.624L28.032 613.624L28.032 615.624ZM159.36 615.624C159.237 615.624 158.576 615.496 158.576 614.768C158.576 614.04 159.237 613.912 159.36 613.912L159.36 615.912C159.771 615.912 160.576 615.64 160.576 614.768C160.576 613.896 159.771 613.624 159.36 613.624L159.36 615.624ZM159.176 613.929L26.9838 638.697L27.3521 640.663L159.544 615.895L159.176 613.929ZM26.8517 638.731C24.8389 639.402 23 641.148 23 643.712L25 643.712C25 642.244 26.041 641.11 27.4842 640.629L26.8517 638.731ZM23 643.712L23 657.536L25 657.536L25 643.712L23 643.712ZM23 657.536C23 660.392 25.1757 662.568 28.032 662.568L28.032 660.568C26.2802 660.568 25 659.288 25 657.536L23 657.536ZM28.032 662.568L221.568 662.568L221.568 660.568L28.032 660.568L28.032 662.568ZM221.568 662.568C224.09 662.568 226.6 660.438 226.6 657.536L224.6 657.536C224.6 659.242 223.078 660.568 221.568 660.568L221.568 662.568ZM226.6 657.536L226.6 647.168L224.6 647.168L224.6 657.536L226.6 657.536ZM226.6 647.168C226.6 644.266 224.09 642.136 221.568 642.136L221.568 644.136C223.078 644.136 224.6 645.462 224.6 647.168L226.6 647.168ZM162.24 743.257L196.8 743.257L196.8 741.257L162.24 741.257L162.24 743.257ZM196.8 743.257C213.192 743.257 226.6 729.849 226.6 713.457L224.6 713.457C224.6 728.745 212.088 741.257 196.8 741.257L196.8 743.257ZM226.6 713.457L226.6 707.121L224.6 707.121L224.6 713.457L226.6 713.457ZM226.6 707.121C226.6 690.716 213.179 677.609 196.8 677.609L196.8 679.609C212.101 679.609 224.6 691.847 224.6 707.121L226.6 707.121ZM196.8 677.609L52.512 677.609L52.512 679.609L196.8 679.609L196.8 677.609ZM52.512 677.609C36.1197 677.609 23 690.729 23 707.121L25 707.121C25 691.833 37.2242 679.609 52.512 679.609L52.512 677.609ZM23 707.121L23 713.457L25 713.457L25 707.121L23 707.121ZM23 713.457C23 729.836 36.1066 743.257 52.512 743.257L52.512 741.257C37.2373 741.257 25 728.758 25 713.457L23 713.457ZM52.512 743.257L87.072 743.257L87.072 741.257L52.512 741.257L52.512 743.257ZM87.072 743.257C89.9282 743.257 92.104 741.082 92.104 738.225L90.104 738.225C90.104 739.977 88.8237 741.257 87.072 741.257L87.072 743.257ZM92.104 738.225L92.104 724.977L90.104 724.977L90.104 738.225L92.104 738.225ZM92.104 724.977C92.104 722.455 89.9737 719.945 87.072 719.945L87.072 721.945C88.7783 721.945 90.104 723.467 90.104 724.977L92.104 724.977ZM87.072 719.945L51.072 719.945L51.072 721.945L87.072 721.945L87.072 719.945ZM51.072 719.945C45.8642 719.945 41.7039 715.785 41.7039 710.577L39.7039 710.577C39.7039 716.89 44.7597 721.945 51.072 721.945L51.072 719.945ZM41.7039 710.577L41.7039 710.001L39.7039 710.001L39.7039 710.577L41.7039 710.577ZM41.7039 710.001C41.7039 705.063 45.8821 700.633 51.072 700.633L51.072 698.633C44.7418 698.633 39.7039 703.995 39.7039 710.001L41.7039 710.001ZM51.072 700.633L198.24 700.633L198.24 698.633L51.072 698.633L51.072 700.633ZM198.24 700.633C203.43 700.633 207.608 705.063 207.608 710.001L209.608 710.001C209.608 703.995 204.57 698.633 198.24 698.633L198.24 700.633ZM207.608 710.001L207.608 710.577L209.608 710.577L209.608 710.001L207.608 710.001ZM207.608 710.577C207.608 715.785 203.448 719.945 198.24 719.945L198.24 721.945C204.552 721.945 209.608 716.89 209.608 710.577L207.608 710.577ZM198.24 719.945L162.24 719.945L162.24 721.945L198.24 721.945L198.24 719.945ZM162.24 719.945C160.907 719.945 159.657 720.602 158.761 721.498C157.865 722.395 157.208 723.644 157.208 724.977L159.208 724.977C159.208 724.294 159.559 723.528 160.175 722.912C160.791 722.297 161.557 721.945 162.24 721.945L162.24 719.945ZM157.208 724.977L157.208 738.225L159.208 738.225L159.208 724.977L157.208 724.977ZM157.208 738.225C157.208 741.127 159.718 743.257 162.24 743.257L162.24 741.257C160.73 741.257 159.208 739.932 159.208 738.225L157.208 738.225ZM212.64 803.238L221.568 803.238L221.568 801.238L212.64 801.238L212.64 803.238ZM221.568 803.238C224.09 803.238 226.6 801.108 226.6 798.206L224.6 798.206C224.6 799.912 223.078 801.238 221.568 801.238L221.568 803.238ZM226.6 798.206L226.6 763.934L224.6 763.934L224.6 798.206L226.6 798.206ZM226.6 763.934C226.6 761.032 224.09 758.902 221.568 758.902L221.568 760.902C223.078 760.902 224.6 762.228 224.6 763.934L226.6 763.934ZM221.568 758.902L28.0319 758.902L28.0319 760.902L221.568 760.902L221.568 758.902ZM28.0319 758.902C25.1757 758.902 22.9999 761.078 22.9999 763.934L24.9999 763.934C24.9999 762.182 26.2802 760.902 28.0319 760.902L28.0319 758.902ZM22.9999 763.934L22.9999 798.206L24.9999 798.206L24.9999 763.934L22.9999 763.934ZM22.9999 798.206C22.9999 801.062 25.1757 803.238 28.0319 803.238L28.0319 801.238C26.2802 801.238 24.9999 799.958 24.9999 798.206L22.9999 798.206ZM28.0319 803.238L36.6719 803.238L36.6719 801.238L28.0319 801.238L28.0319 803.238ZM36.6719 803.238C39.5282 803.238 41.7039 801.062 41.7039 798.206L39.7039 798.206C39.7039 799.958 38.4237 801.238 36.6719 801.238L36.6719 803.238ZM41.7039 798.206L41.7039 784.958L39.7039 784.958L39.7039 798.206L41.7039 798.206ZM41.7039 784.958C41.7039 783.448 43.0297 781.926 44.736 781.926L44.736 779.926C41.8343 779.926 39.7039 782.436 39.7039 784.958L41.7039 784.958ZM44.736 781.926L112.416 781.926L112.416 779.926L44.736 779.926L44.736 781.926ZM112.416 781.926C113.099 781.926 113.865 782.277 114.481 782.893C115.096 783.509 115.448 784.275 115.448 784.958L117.448 784.958C117.448 783.625 116.791 782.375 115.895 781.479C114.999 780.583 113.749 779.926 112.416 779.926L112.416 781.926ZM115.448 784.958L115.448 798.206L117.448 798.206L117.448 784.958L115.448 784.958ZM115.448 798.206C115.448 801.062 117.624 803.238 120.48 803.238L120.48 801.238C118.728 801.238 117.448 799.958 117.448 798.206L115.448 798.206ZM120.48 803.238L129.12 803.238L129.12 801.238L120.48 801.238L120.48 803.238ZM129.12 803.238C131.976 803.238 134.152 801.062 134.152 798.206L132.152 798.206C132.152 799.958 130.872 801.238 129.12 801.238L129.12 803.238ZM134.152 798.206L134.152 784.958L132.152 784.958L132.152 798.206L134.152 798.206ZM134.152 784.958C134.152 783.448 135.478 781.926 137.184 781.926L137.184 779.926C134.282 779.926 132.152 782.436 132.152 784.958L134.152 784.958ZM137.184 781.926L204.576 781.926L204.576 779.926L137.184 779.926L137.184 781.926ZM204.576 781.926C206.282 781.926 207.608 783.448 207.608 784.958L209.608 784.958C209.608 782.436 207.478 779.926 204.576 779.926L204.576 781.926ZM207.608 784.958L207.608 798.206L209.608 798.206L209.608 784.958L207.608 784.958ZM207.608 798.206C207.608 801.108 210.118 803.238 212.64 803.238L212.64 801.238C211.13 801.238 209.608 799.912 209.608 798.206L207.608 798.206Z" fill="#2C2C2C"/>
</g>
</svg>
