<svg width="156" height="927" viewBox="0 0 156 927" fill="none" xmlns="http://www.w3.org/2000/svg">
<mask id="mask0" mask-type="alpha" maskUnits="userSpaceOnUse" x="-3" y="0" width="159" height="927">
<rect x="-3" width="159" height="927" fill="#C4C4C4"/>
</mask>
<g mask="url(#mask0)">
<path d="M-37.5 895.288L-29.75 895.288L-29.75 893.288L-37.5 893.288L-37.5 895.288ZM-29.75 895.288C-27.4943 895.288 -25.25 893.386 -25.25 890.788L-27.25 890.788C-27.25 892.19 -28.5057 893.288 -29.75 893.288L-29.75 895.288ZM-25.25 890.788L-25.25 879.538L-27.25 879.538L-27.25 890.788L-25.25 890.788ZM-25.25 879.538C-25.25 878.09 -24.1977 877.038 -22.75 877.038L-22.75 875.038C-25.3023 875.038 -27.25 876.986 -27.25 879.538L-25.25 879.538ZM-22.75 877.038L130.5 877.038L130.5 875.038L-22.75 875.038L-22.75 877.038ZM130.5 877.038C133.098 877.038 135 874.794 135 872.538L133 872.538C133 873.782 131.902 875.038 130.5 875.038L130.5 877.038ZM135 872.538L135 861.038L133 861.038L133 872.538L135 872.538ZM135 861.038C135 858.486 133.052 856.538 130.5 856.538L130.5 858.538C131.948 858.538 133 859.59 133 861.038L135 861.038ZM130.5 856.538L-22.75 856.538L-22.75 858.538L130.5 858.538L130.5 856.538ZM-22.75 856.538C-24.1523 856.538 -25.25 855.282 -25.25 854.038L-27.25 854.038C-27.25 856.294 -25.3477 858.538 -22.75 858.538L-22.75 856.538ZM-25.25 854.038L-25.25 842.538L-27.25 842.538L-27.25 854.038L-25.25 854.038ZM-25.25 842.538C-25.25 839.94 -27.4943 838.038 -29.75 838.038L-29.75 840.038C-28.5058 840.038 -27.25 841.136 -27.25 842.538L-25.25 842.538ZM-29.75 838.038L-37.5 838.038L-37.5 840.038L-29.75 840.038L-29.75 838.038ZM-37.5 838.038C-39.7558 838.038 -42 839.94 -42 842.538L-40 842.538C-40 841.136 -38.7443 840.038 -37.5 840.038L-37.5 838.038ZM-42 842.538L-42 891.038L-40 891.038L-40 842.538L-42 842.538ZM-42 891.038C-42 892.254 -41.3955 893.32 -40.5772 894.061C-39.7599 894.8 -38.6521 895.288 -37.5 895.288L-37.5 893.288C-38.0979 893.288 -38.7401 893.026 -39.2353 892.578C-39.7295 892.131 -40 891.572 -40 891.038L-42 891.038ZM-16 822.837L109 822.837L109 820.837L-16 820.837L-16 822.837ZM109 822.837C123.552 822.837 135 811.389 135 796.837L133 796.837C133 810.285 122.448 820.837 109 820.837L109 822.837ZM135 796.837L135 791.587L133 791.587L133 796.837L135 796.837ZM135 791.587C135 777.291 123.559 765.587 109 765.587L109 767.587C122.441 767.587 133 778.383 133 791.587L135 791.587ZM109 765.587L-16 765.587L-16 767.587L109 767.587L109 765.587ZM-16 765.587C-30.3023 765.587 -42 777.285 -42 791.587L-40 791.587C-40 778.389 -29.1977 767.587 -16 767.587L-16 765.587ZM-42 791.587L-42 796.837L-40 796.837L-40 791.587L-42 791.587ZM-42 796.837C-42 811.396 -30.2958 822.837 -16 822.837L-16 820.837C-29.2043 820.837 -40 810.278 -40 796.837L-42 796.837ZM118.5 794.087L118.5 794.587L120.5 794.587L120.5 794.087L118.5 794.087ZM118.5 794.587C118.5 799.035 114.948 802.587 110.5 802.587L110.5 804.587C116.052 804.587 120.5 800.139 120.5 794.587L118.5 794.587ZM110.5 802.587L-17.25 802.587L-17.25 804.587L110.5 804.587L110.5 802.587ZM-17.25 802.587C-21.6977 802.587 -25.25 799.035 -25.25 794.587L-27.25 794.587C-27.25 800.139 -22.8023 804.587 -17.25 804.587L-17.25 802.587ZM-25.25 794.587L-25.25 794.087L-27.25 794.087L-27.25 794.587L-25.25 794.587ZM-25.25 794.087C-25.25 789.639 -21.6977 786.087 -17.25 786.087L-17.25 784.087C-22.8023 784.087 -27.25 788.535 -27.25 794.087L-25.25 794.087ZM-17.25 786.087L110.5 786.087L110.5 784.087L-17.25 784.087L-17.25 786.087ZM110.5 786.087C114.948 786.087 118.5 789.639 118.5 794.087L120.5 794.087C120.5 788.535 116.052 784.087 110.5 784.087L110.5 786.087ZM-37.5 708.021L110.5 708.021L110.5 706.021L-37.5 706.021L-37.5 708.021ZM110.5 708.021C114.948 708.021 118.5 711.573 118.5 716.021L120.5 716.021C120.5 710.468 116.052 706.021 110.5 706.021L110.5 708.021ZM118.5 716.021L118.5 716.521L120.5 716.521L120.5 716.021L118.5 716.021ZM118.5 716.521C118.5 720.736 114.93 724.521 110.5 724.521L110.5 726.521C116.07 726.521 120.5 721.805 120.5 716.521L118.5 716.521ZM110.5 724.521L-37.5 724.521L-37.5 726.521L110.5 726.521L110.5 724.521ZM-37.5 724.521C-39.7558 724.521 -42 726.423 -42 729.021L-40 729.021C-40 727.618 -38.7443 726.521 -37.5 726.521L-37.5 724.521ZM-42 729.021L-42 740.271L-40 740.271L-40 729.021L-42 729.021ZM-42 740.271C-42 742.868 -39.7558 744.771 -37.5 744.771L-37.5 742.771C-38.7443 742.771 -40 741.673 -40 740.271L-42 740.271ZM-37.5 744.771L109 744.771L109 742.771L-37.5 742.771L-37.5 744.771ZM109 744.771C123.552 744.771 135 733.323 135 718.77L133 718.77C133 732.218 122.448 742.771 109 742.771L109 744.771ZM135 718.77L135 713.52L133 713.52L133 718.77L135 718.77ZM135 713.52C135 699.225 123.559 687.521 109 687.521L109 689.521C122.441 689.521 133 700.316 133 713.52L135 713.52ZM109 687.521L-37.5 687.521L-37.5 689.521L109 689.521L109 687.521ZM-37.5 687.521C-39.7558 687.521 -42 689.423 -42 692.021L-40 692.021C-40 690.618 -38.7443 689.521 -37.5 689.521L-37.5 687.521ZM-42 692.021L-42 703.521L-40 703.521L-40 692.021L-42 692.021ZM-42 703.521C-42 704.721 -41.41 705.837 -40.6134 706.634C-39.8168 707.43 -38.7002 708.021 -37.5 708.021L-37.5 706.021C-38.0498 706.021 -38.6833 705.736 -39.1992 705.22C-39.7151 704.704 -40 704.07 -40 703.521L-42 703.521ZM-37.5 666.704L-29.75 666.704L-29.75 664.704L-37.5 664.704L-37.5 666.704ZM-29.75 666.704C-27.4943 666.704 -25.25 664.802 -25.25 662.204L-27.25 662.204C-27.25 663.606 -28.5058 664.704 -29.75 664.704L-29.75 666.704ZM-25.25 662.204L-25.25 650.954L-27.25 650.954L-27.25 662.204L-25.25 662.204ZM-25.25 650.954C-25.25 649.506 -24.1977 648.454 -22.75 648.454L-22.75 646.454C-25.3023 646.454 -27.25 648.402 -27.25 650.954L-25.25 650.954ZM-22.75 648.454L130.5 648.454L130.5 646.454L-22.75 646.454L-22.75 648.454ZM130.5 648.454C133.098 648.454 135 646.21 135 643.954L133 643.954C133 645.198 131.902 646.454 130.5 646.454L130.5 648.454ZM135 643.954L135 632.454L133 632.454L133 643.954L135 643.954ZM135 632.454C135 629.902 133.052 627.954 130.5 627.954L130.5 629.954C131.948 629.954 133 631.006 133 632.454L135 632.454ZM130.5 627.954L-22.75 627.954L-22.75 629.954L130.5 629.954L130.5 627.954ZM-22.75 627.954C-24.1523 627.954 -25.25 626.698 -25.25 625.454L-27.25 625.454C-27.25 627.71 -25.3477 629.954 -22.75 629.954L-22.75 627.954ZM-25.25 625.454L-25.25 613.954L-27.25 613.954L-27.25 625.454L-25.25 625.454ZM-25.25 613.954C-25.25 611.356 -27.4943 609.454 -29.75 609.454L-29.75 611.454C-28.5058 611.454 -27.25 612.552 -27.25 613.954L-25.25 613.954ZM-29.75 609.454L-37.5 609.454L-37.5 611.454L-29.75 611.454L-29.75 609.454ZM-37.5 609.454C-39.7558 609.454 -42 611.356 -42 613.954L-40 613.954C-40 612.552 -38.7443 611.454 -37.5 611.454L-37.5 609.454ZM-42 613.954L-42 662.454L-40 662.454L-40 613.954L-42 613.954ZM-42 662.454C-42 663.67 -41.3955 664.737 -40.5772 665.477C-39.7599 666.216 -38.6521 666.704 -37.5 666.704L-37.5 664.704C-38.0979 664.704 -38.7401 664.442 -39.2354 663.994C-39.7295 663.547 -40 662.988 -40 662.454L-42 662.454ZM14 493.849L-16 493.849L-16 495.849L14 495.849L14 493.849ZM-16 493.849C-30.3023 493.849 -42 505.546 -42 519.849L-40 519.849C-40 506.651 -29.1977 495.849 -16 495.849L-16 493.849ZM-42 519.849L-42 525.349L-40 525.349L-40 519.849L-42 519.849ZM-42 525.349C-42 539.664 -30.2892 551.099 -16 551.099L-16 549.099C-29.2109 549.099 -40 538.533 -40 525.349L-42 525.349ZM-16 551.099L109.25 551.099L109.25 549.099L-16 549.099L-16 551.099ZM109.25 551.099C123.552 551.099 135 539.651 135 525.349L133 525.349C133 538.546 122.448 549.099 109.25 549.099L109.25 551.099ZM135 525.349L135 519.849L133 519.849L133 525.349L135 525.349ZM135 519.849C135 505.559 123.565 493.849 109.25 493.849L109.25 495.849C122.435 495.849 133 506.638 133 519.849L135 519.849ZM109.25 493.849L79.25 493.849L79.25 495.849L109.25 495.849L109.25 493.849ZM79.25 493.849C76.6977 493.849 74.75 495.796 74.75 498.349L76.75 498.349C76.75 496.901 77.8023 495.849 79.25 495.849L79.25 493.849ZM74.75 498.349L74.75 509.849L76.75 509.849L76.75 498.349L74.75 498.349ZM74.75 509.849C74.75 512.104 76.6523 514.349 79.25 514.349L79.25 512.349C77.8477 512.349 76.75 511.093 76.75 509.849L74.75 509.849ZM79.25 514.349L110.5 514.349L110.5 512.349L79.25 512.349L79.25 514.349ZM110.5 514.349C114.948 514.349 118.5 517.901 118.5 522.349L120.5 522.349C120.5 516.796 116.052 512.349 110.5 512.349L110.5 514.349ZM118.5 522.349L118.5 522.849L120.5 522.849L120.5 522.349L118.5 522.349ZM118.5 522.849C118.5 527.064 114.93 530.849 110.5 530.849L110.5 532.849C116.07 532.849 120.5 528.133 120.5 522.849L118.5 522.849ZM110.5 530.849L-17.25 530.849L-17.25 532.849L110.5 532.849L110.5 530.849ZM-17.25 530.849C-21.6799 530.849 -25.25 527.064 -25.25 522.849L-27.25 522.849C-27.25 528.133 -22.8202 532.849 -17.25 532.849L-17.25 530.849ZM-25.25 522.849L-25.25 522.349L-27.25 522.349L-27.25 522.849L-25.25 522.849ZM-25.25 522.349C-25.25 517.901 -21.6977 514.349 -17.25 514.349L-17.25 512.349C-22.8023 512.349 -27.25 516.796 -27.25 522.349L-25.25 522.349ZM-17.25 514.349L14 514.349L14 512.349L-17.25 512.349L-17.25 514.349ZM14 514.349C15.2002 514.349 16.3167 513.759 17.1133 512.962C17.9099 512.165 18.5 511.049 18.5 509.849L16.5 509.849C16.5 510.398 16.215 511.032 15.6991 511.548C15.1832 512.064 14.5497 512.349 14 512.349L14 514.349ZM18.5 509.849L18.5 498.349L16.5 498.349L16.5 509.849L18.5 509.849ZM18.5 498.349C18.5 495.751 16.2557 493.849 14 493.849L14 495.849C15.2442 495.849 16.5 496.946 16.5 498.349L18.5 498.349ZM-16 473.032L109 473.032L109 471.032L-16 471.032L-16 473.032ZM109 473.032C123.552 473.032 135 461.584 135 447.032L133 447.032C133 460.48 122.448 471.032 109 471.032L109 473.032ZM135 447.032L135 441.782L133 441.782L133 447.032L135 447.032ZM135 441.782C135 427.486 123.559 415.782 109 415.782L109 417.782C122.441 417.782 133 428.578 133 441.782L135 441.782ZM109 415.782L-16 415.782L-16 417.782L109 417.782L109 415.782ZM-16 415.782C-30.3023 415.782 -42 427.48 -42 441.782L-40 441.782C-40 428.585 -29.1977 417.782 -16 417.782L-16 415.782ZM-42 441.782L-42 447.032L-40 447.032L-40 441.782L-42 441.782ZM-42 447.032C-42 461.591 -30.2958 473.032 -16 473.032L-16 471.032C-29.2043 471.032 -40 460.473 -40 447.032L-42 447.032ZM118.5 444.282L118.5 444.782L120.5 444.782L120.5 444.282L118.5 444.282ZM118.5 444.782C118.5 449.23 114.948 452.782 110.5 452.782L110.5 454.782C116.052 454.782 120.5 450.334 120.5 444.782L118.5 444.782ZM110.5 452.782L-17.25 452.782L-17.25 454.782L110.5 454.782L110.5 452.782ZM-17.25 452.782C-21.6977 452.782 -25.25 449.23 -25.25 444.782L-27.25 444.782C-27.25 450.335 -22.8023 454.782 -17.25 454.782L-17.25 452.782ZM-25.25 444.782L-25.25 444.282L-27.25 444.282L-27.25 444.782L-25.25 444.782ZM-25.25 444.282C-25.25 439.835 -21.6977 436.282 -17.25 436.282L-17.25 434.282C-22.8023 434.282 -27.25 438.73 -27.25 444.282L-25.25 444.282ZM-17.25 436.282L110.5 436.282L110.5 434.282L-17.25 434.282L-17.25 436.282ZM110.5 436.282C114.948 436.282 118.5 439.834 118.5 444.282L120.5 444.282C120.5 438.73 116.052 434.282 110.5 434.282L110.5 436.282ZM-38 337.716L-38.1644 338.702L-38.1515 338.704L-38.1385 338.706L-38 337.716ZM92.5 355.966L92.8162 355.017L92.7293 354.988L92.6385 354.975L92.5 355.966ZM92.5 357.216L92.5 356.216L92.4304 356.216L92.3615 356.225L92.5 357.216ZM-38 375.466L-38.1385 374.475L-38.1515 374.477L-38.1644 374.479L-38 375.466ZM27.75 377.966L27.6105 376.976L27.75 378.966L27.75 377.966ZM116.5 365.466L116.639 366.456L116.641 366.456L116.5 365.466ZM116.5 347.716L116.641 346.726L116.638 346.725L116.5 347.716ZM27 335.216L27 334.216L26.8616 336.206L27 335.216ZM-38.1385 338.706L92.3615 356.956L92.6385 354.975L-37.8615 336.725L-38.1385 338.706ZM92.1838 356.914C92.1571 356.906 92.0625 356.841 92.0625 356.685C92.0625 356.606 92.0901 356.478 92.2005 356.363C92.3206 356.238 92.454 356.216 92.5 356.216L92.5 358.216C92.921 358.216 93.3356 358.069 93.6432 357.748C93.9411 357.438 94.0625 357.044 94.0625 356.685C94.0625 355.966 93.5929 355.276 92.8162 355.017L92.1838 356.914ZM92.3615 356.225L-38.1385 374.475L-37.8615 376.456L92.6385 358.206L92.3615 356.225ZM-38.1644 374.479C-39.1679 374.647 -40.1137 375.215 -40.8058 375.984C-41.5026 376.758 -42 377.801 -42 378.966L-40 378.966C-40 378.381 -39.7475 377.798 -39.3192 377.322C-38.8864 376.841 -38.3321 376.535 -37.8356 376.452L-38.1644 374.479ZM-42 378.966L-42 390.466L-40 390.466L-40 378.966L-42 378.966ZM-42 390.466C-42 393.064 -39.7558 394.966 -37.5 394.966L-37.5 392.966C-38.7443 392.966 -40 391.868 -40 390.466L-42 390.466ZM-37.5 394.966L130.5 394.966L130.5 392.966L-37.5 392.966L-37.5 394.966ZM130.5 394.966C133.052 394.966 135 393.018 135 390.466L133 390.466C133 391.914 131.948 392.966 130.5 392.966L130.5 394.966ZM135 390.466L135 381.466L133 381.466L133 390.466L135 390.466ZM135 381.466C135 378.914 133.052 376.966 130.5 376.966L130.5 378.966C131.948 378.966 133 380.018 133 381.466L135 381.466ZM130.5 376.966L27.75 376.966L27.75 378.966L130.5 378.966L130.5 376.966ZM27.8894 378.956L116.639 366.456L116.361 364.476L27.6105 376.976L27.8894 378.956ZM116.641 366.456C118.901 366.133 120.5 364.196 120.5 361.966L118.5 361.966C118.5 363.236 117.599 364.299 116.359 364.476L116.641 366.456ZM120.5 361.966L120.5 351.216L118.5 351.216L118.5 361.966L120.5 361.966ZM120.5 351.216C120.5 348.986 118.901 347.049 116.641 346.726L116.359 348.706C117.599 348.883 118.5 349.946 118.5 351.216L120.5 351.216ZM116.638 346.725L27.1383 334.225L26.8616 336.206L116.362 348.706L116.638 346.725ZM27 336.216L130.5 336.216L130.5 334.216L27 334.216L27 336.216ZM130.5 336.216C133.052 336.216 135 334.268 135 331.716L133 331.716C133 333.164 131.948 334.216 130.5 334.216L130.5 336.216ZM135 331.716L135 322.716L133 322.716L133 331.716L135 331.716ZM135 322.716C135 320.164 133.052 318.216 130.5 318.216L130.5 320.216C131.948 320.216 133 321.268 133 322.716L135 322.716ZM130.5 318.216L-37.5 318.216L-37.5 320.216L130.5 320.216L130.5 318.216ZM-37.5 318.216C-39.7558 318.216 -42 320.118 -42 322.716L-40 322.716C-40 321.314 -38.7443 320.216 -37.5 320.216L-37.5 318.216ZM-42 322.716L-42 334.216L-40 334.216L-40 322.716L-42 322.716ZM-42 334.216C-42 335.381 -41.5026 336.423 -40.8058 337.197C-40.1137 337.966 -39.1679 338.535 -38.1644 338.702L-37.8356 336.729C-38.3321 336.647 -38.8864 336.34 -39.3192 335.859C-39.7475 335.383 -40 334.801 -40 334.216L-42 334.216ZM-42 292.868C-42 295.466 -39.7558 297.368 -37.5 297.368L-37.5 295.368C-38.7443 295.368 -40 294.27 -40 292.868L-42 292.868ZM-37.5 297.368L130.5 297.368L130.5 295.368L-37.5 295.368L-37.5 297.368ZM130.5 297.368C133.052 297.368 135 295.42 135 292.868L133 292.868C133 294.316 131.948 295.368 130.5 295.368L130.5 297.368ZM135 292.868L135 281.618L133 281.618L133 292.868L135 292.868ZM135 281.618C135 279.066 133.052 277.118 130.5 277.118L130.5 279.118C131.948 279.118 133 280.17 133 281.618L135 281.618ZM130.5 277.118L57.25 277.118L57.25 279.118L130.5 279.118L130.5 277.118ZM57.25 277.118C56.7002 277.118 56.0667 276.833 55.5508 276.317C55.0349 275.801 54.75 275.168 54.75 274.618L52.75 274.618C52.75 275.818 53.34 276.935 54.1366 277.732C54.9332 278.528 56.0497 279.118 57.25 279.118L57.25 277.118ZM54.75 274.618L54.75 266.118L52.75 266.118L52.75 274.618L54.75 274.618ZM54.75 266.118C54.75 251.822 43.3088 240.118 28.75 240.118L28.75 242.118C42.1912 242.118 52.75 252.914 52.75 266.118L54.75 266.118ZM28.75 240.118L-16 240.118L-16 242.118L28.75 242.118L28.75 240.118ZM-16 240.118C-30.3023 240.118 -42 251.816 -42 266.118L-40 266.118C-40 252.92 -29.1978 242.118 -16 242.118L-16 240.118ZM-42 266.118L-42 292.868L-40 292.868L-40 266.118L-42 266.118ZM38.25 268.618L38.25 274.618L40.25 274.618L40.25 268.618L38.25 268.618ZM38.25 274.618C38.25 275.862 37.1523 277.118 35.75 277.118L35.75 279.118C38.3477 279.118 40.25 276.874 40.25 274.618L38.25 274.618ZM35.75 277.118L-22.75 277.118L-22.75 279.118L35.75 279.118L35.75 277.118ZM-22.75 277.118C-24.1523 277.118 -25.25 275.862 -25.25 274.618L-27.25 274.618C-27.25 276.874 -25.3477 279.118 -22.75 279.118L-22.75 277.118ZM-25.25 274.618L-25.25 268.618L-27.25 268.618L-27.25 274.618L-25.25 274.618ZM-25.25 268.618C-25.25 264.17 -21.6977 260.618 -17.25 260.618L-17.25 258.618C-22.8023 258.618 -27.25 263.066 -27.25 268.618L-25.25 268.618ZM-17.25 260.618L30.25 260.618L30.25 258.618L-17.25 258.618L-17.25 260.618ZM30.25 260.618C34.6977 260.618 38.25 264.17 38.25 268.618L40.25 268.618C40.25 263.066 35.8023 258.618 30.25 258.618L30.25 260.618ZM46.5 170.302L45.7929 171.009L46.5 171.716L47.2071 171.009L46.5 170.302ZM28.75 162.052L-16 162.052L-16 164.052L28.75 164.052L28.75 162.052ZM-16 162.052C-30.3023 162.052 -42 173.749 -42 188.052L-40 188.052C-40 174.854 -29.1978 164.052 -16 164.052L-16 162.052ZM-42 188.052L-42 214.802L-40 214.802L-40 188.052L-42 188.052ZM-42 214.802C-42 217.399 -39.7558 219.302 -37.5 219.302L-37.5 217.302C-38.7443 217.302 -40 216.204 -40 214.802L-42 214.802ZM-37.5 219.302L130.5 219.302L130.5 217.302L-37.5 217.302L-37.5 219.302ZM130.5 219.302C133.052 219.302 135 217.354 135 214.802L133 214.802C133 216.249 131.948 217.302 130.5 217.302L130.5 219.302ZM135 214.802L135 203.552L133 203.552L133 214.802L135 214.802ZM135 203.552C135 200.999 133.052 199.052 130.5 199.052L130.5 201.052C131.948 201.052 133 202.104 133 203.552L135 203.552ZM130.5 199.052L57.25 199.052L57.25 201.052L130.5 201.052L130.5 199.052ZM57.25 199.052C56.7002 199.052 56.0667 198.767 55.5508 198.251C55.0349 197.735 54.75 197.101 54.75 196.552L52.75 196.552C52.75 197.752 53.34 198.869 54.1366 199.665C54.9332 200.462 56.0497 201.052 57.25 201.052L57.25 199.052ZM54.75 196.552L54.75 190.552L52.75 190.552L52.75 196.552L54.75 196.552ZM54.75 190.552C54.75 186.104 58.3023 182.552 62.75 182.552L62.75 180.552C57.1977 180.552 52.75 184.999 52.75 190.552L54.75 190.552ZM62.75 182.552L130.5 182.552L130.5 180.552L62.75 180.552L62.75 182.552ZM130.5 182.552C133.098 182.552 135 180.307 135 178.052L133 178.052C133 179.296 131.902 180.552 130.5 180.552L130.5 182.552ZM135 178.052L135 166.552L133 166.552L133 178.052L135 178.052ZM135 166.552C135 163.999 133.052 162.052 130.5 162.052L130.5 164.052C131.948 164.052 133 165.104 133 166.552L135 166.552ZM130.5 162.052L64.25 162.052L64.25 164.052L130.5 164.052L130.5 162.052ZM64.25 162.052C56.9817 162.052 50.4783 164.909 45.7929 169.595L47.2071 171.009C51.5217 166.694 57.5182 164.052 64.25 164.052L64.25 162.052ZM47.2071 169.595C42.5217 164.909 36.0182 162.052 28.75 162.052L28.75 164.052C35.4817 164.052 41.4782 166.694 45.7929 171.009L47.2071 169.595ZM38.25 196.552C38.25 197.796 37.1523 199.052 35.75 199.052L35.75 201.052C38.3477 201.052 40.25 198.807 40.25 196.552L38.25 196.552ZM35.75 199.052L-22.75 199.052L-22.75 201.052L35.75 201.052L35.75 199.052ZM-22.75 199.052C-24.1523 199.052 -25.25 197.796 -25.25 196.552L-27.25 196.552C-27.25 198.807 -25.3477 201.052 -22.75 201.052L-22.75 199.052ZM-25.25 196.552L-25.25 190.552L-27.25 190.552L-27.25 196.552L-25.25 196.552ZM-25.25 190.552C-25.25 186.104 -21.6977 182.552 -17.25 182.552L-17.25 180.552C-22.8023 180.552 -27.25 184.999 -27.25 190.552L-25.25 190.552ZM-17.25 182.552L30.25 182.552L30.25 180.552L-17.25 180.552L-17.25 182.552ZM30.25 182.552C34.6977 182.552 38.25 186.104 38.25 190.552L40.25 190.552C40.25 184.999 35.8023 180.552 30.25 180.552L30.25 182.552ZM38.25 190.552L38.25 196.552L40.25 196.552L40.25 190.552L38.25 190.552ZM-37.5 141.235L130.5 141.235L130.5 139.235L-37.5 139.235L-37.5 141.235ZM130.5 141.235C133.052 141.235 135 139.288 135 136.735L133 136.735C133 138.183 131.948 139.235 130.5 139.235L130.5 141.235ZM135 136.735L135 125.485L133 125.485L133 136.735L135 136.735ZM135 125.485C135 122.933 133.052 120.985 130.5 120.985L130.5 122.985C131.948 122.985 133 124.038 133 125.485L135 125.485ZM130.5 120.985L-37.5 120.985L-37.5 122.985L130.5 122.985L130.5 120.985ZM-37.5 120.985C-39.7558 120.985 -42 122.888 -42 125.485L-40 125.485C-40 124.083 -38.7443 122.985 -37.5 122.985L-37.5 120.985ZM-42 125.485L-42 136.735L-40 136.735L-40 125.485L-42 125.485ZM-42 136.735C-42 139.333 -39.7558 141.235 -37.5 141.235L-37.5 139.235C-38.7443 139.235 -40 138.138 -40 136.735L-42 136.735ZM7.49995 96.2783L7.84171 97.2181L7.85045 97.2149L7.49995 96.2783ZM89 65.7783L89.3505 66.7149L89.3646 66.7096L89.3786 66.7039L89 65.7783ZM85.5 47.2783L85.8514 48.2146L85.8644 48.2095L85.5 47.2783ZM4.24995 77.7783L4.57847 78.7228L4.58998 78.7188L4.60139 78.7145L4.24995 77.7783ZM14 43.0283L-16 43.0283L-16 45.0283L14 45.0283L14 43.0283ZM-16 43.0283C-30.3023 43.0283 -42 54.726 -42 69.0283L-40 69.0283C-40 55.8306 -29.1978 45.0283 -16 45.0283L-16 43.0283ZM-42 69.0283L-42 74.2783L-40 74.2783L-40 69.0283L-42 69.0283ZM-42 74.2783C-42 88.8371 -30.2958 100.278 -16 100.278L-16 98.2783C-29.2043 98.2783 -40 87.7195 -40 74.2783L-42 74.2783ZM-16 100.278L-10 100.278L-10 98.2783L-16 98.2783L-16 100.278ZM-10 100.278C-3.89146 100.278 2.22493 99.2606 7.8417 97.2181L7.15821 95.3385C1.775 97.2961 -4.10863 98.2783 -10 98.2783L-10 100.278ZM7.85045 97.2149L89.3505 66.7149L88.6495 64.8417L7.14946 95.3417L7.85045 97.2149ZM89.3786 66.7039C94.74 64.5106 100.608 63.5283 106.5 63.5283L106.5 61.5283C100.392 61.5283 94.2599 62.5461 88.6213 64.8528L89.3786 66.7039ZM106.5 63.5283L110.5 63.5283L110.5 61.5283L106.5 61.5283L106.5 63.5283ZM110.5 63.5283C114.948 63.5283 118.5 67.0806 118.5 71.5283L120.5 71.5283C120.5 65.976 116.052 61.5283 110.5 61.5283L110.5 63.5283ZM118.5 71.5283L118.5 72.0283L120.5 72.0283L120.5 71.5283L118.5 71.5283ZM118.5 72.0283C118.5 76.2441 114.93 80.0283 110.5 80.0283L110.5 82.0283C116.07 82.0283 120.5 77.3126 120.5 72.0283L118.5 72.0283ZM110.5 80.0283L79.25 80.0283L79.25 82.0283L110.5 82.0283L110.5 80.0283ZM79.25 80.0283C76.6977 80.0283 74.75 81.976 74.75 84.5283L76.75 84.5283C76.75 83.0806 77.8022 82.0283 79.25 82.0283L79.25 80.0283ZM74.75 84.5283L74.75 95.7783L76.75 95.7783L76.75 84.5283L74.75 84.5283ZM74.75 95.7783C74.75 98.3306 76.6977 100.278 79.25 100.278L79.25 98.2783C77.8022 98.2783 76.75 97.226 76.75 95.7783L74.75 95.7783ZM79.25 100.278L109 100.278L109 98.2783L79.25 98.2783L79.25 100.278ZM109 100.278C123.552 100.278 135 88.8306 135 74.2783L133 74.2783C133 87.726 122.448 98.2783 109 98.2783L109 100.278ZM135 74.2783L135 69.0283L133 69.0283L133 74.2783L135 74.2783ZM135 69.0283C135 54.7325 123.559 43.0283 109 43.0283L109 45.0283C122.441 45.0283 133 55.8241 133 69.0283L135 69.0283ZM109 43.0283L103.25 43.0283L103.25 45.0283L109 45.0283L109 43.0283ZM103.25 43.0283C97.1384 43.0283 91.0133 44.0471 85.1356 46.347L85.8644 48.2095C91.4866 46.0095 97.3615 45.0283 103.25 45.0283L103.25 43.0283ZM85.1485 46.3421L3.89851 76.8421L4.60139 78.7145L85.8514 48.2145L85.1485 46.3421ZM3.92143 76.8338C-1.7555 78.8084 -7.39181 80.0283 -13.25 80.0283L-13.25 82.0283C-7.10826 82.0283 -1.2446 80.7482 4.57847 78.7228L3.92143 76.8338ZM-13.25 80.0283L-17.25 80.0283L-17.25 82.0283L-13.25 82.0283L-13.25 80.0283ZM-17.25 80.0283C-21.6799 80.0283 -25.25 76.2441 -25.25 72.0283L-27.25 72.0283C-27.25 77.3126 -22.8202 82.0283 -17.25 82.0283L-17.25 80.0283ZM-25.25 72.0283L-25.25 71.5283L-27.25 71.5283L-27.25 72.0283L-25.25 72.0283ZM-25.25 71.5283C-25.25 67.0806 -21.6978 63.5283 -17.25 63.5283L-17.25 61.5283C-22.8023 61.5283 -27.25 65.976 -27.25 71.5283L-25.25 71.5283ZM-17.25 63.5283L14 63.5283L14 61.5283L-17.25 61.5283L-17.25 63.5283ZM14 63.5283C15.2002 63.5283 16.3167 62.9383 17.1133 62.1417C17.9099 61.3451 18.5 60.2286 18.5 59.0283L16.5 59.0283C16.5 59.5781 16.215 60.2115 15.6991 60.7275C15.1832 61.2433 14.5497 61.5283 14 61.5283L14 63.5283ZM18.5 59.0283L18.5 47.5283L16.5 47.5283L16.5 59.0283L18.5 59.0283ZM18.5 47.5283C18.5 44.9306 16.2557 43.0283 14 43.0283L14 45.0283C15.2442 45.0283 16.5 46.126 16.5 47.5283L18.5 47.5283Z" fill="#2C2C2C"/>
</g>
</svg>
