<svg width="271" height="702" viewBox="0 0 271 702" fill="none" xmlns="http://www.w3.org/2000/svg">
<mask id="mask0" mask-type="alpha" maskUnits="userSpaceOnUse" x="0" y="0" width="272" height="702">
<rect x="271" y="702" width="271" height="702" transform="rotate(180 271 702)" fill="#C4C4C4"/>
</mask>
<g mask="url(#mask0)">
<path d="M49.6061 639.352L40.6781 639.352L40.6781 641.352L49.6061 641.352L49.6061 639.352ZM40.6781 639.352C38.1563 639.352 35.6461 641.482 35.6461 644.384L37.6461 644.384C37.6461 642.678 39.1678 641.352 40.6781 641.352L40.6781 639.352ZM35.6461 644.384L35.6461 678.656L37.6461 678.656L37.6461 644.384L35.6461 644.384ZM35.6461 678.656C35.6461 681.558 38.1563 683.688 40.6781 683.688L40.6781 681.688C39.1678 681.688 37.6461 680.362 37.6461 678.656L35.6461 678.656ZM40.6781 683.688L234.214 683.688L234.214 681.688L40.6781 681.688L40.6781 683.688ZM234.214 683.688C237.07 683.688 239.246 681.512 239.246 678.656L237.246 678.656C237.246 680.408 235.966 681.688 234.214 681.688L234.214 683.688ZM239.246 678.656L239.246 644.384L237.246 644.384L237.246 678.656L239.246 678.656ZM239.246 644.384C239.246 641.528 237.07 639.352 234.214 639.352L234.214 641.352C235.966 641.352 237.246 642.632 237.246 644.384L239.246 644.384ZM234.214 639.352L225.574 639.352L225.574 641.352L234.214 641.352L234.214 639.352ZM225.574 639.352C222.718 639.352 220.542 641.528 220.542 644.384L222.542 644.384C222.542 642.632 223.822 641.352 225.574 641.352L225.574 639.352ZM220.542 644.384L220.542 657.632L222.542 657.632L222.542 644.384L220.542 644.384ZM220.542 657.632C220.542 659.142 219.216 660.664 217.51 660.664L217.51 662.664C220.412 662.664 222.542 660.154 222.542 657.632L220.542 657.632ZM217.51 660.664L149.83 660.664L149.83 662.664L217.51 662.664L217.51 660.664ZM149.83 660.664C149.147 660.664 148.381 660.312 147.765 659.697C147.15 659.081 146.798 658.315 146.798 657.632L144.798 657.632C144.798 658.965 145.455 660.215 146.351 661.111C147.247 662.007 148.497 662.664 149.83 662.664L149.83 660.664ZM146.798 657.632L146.798 644.384L144.798 644.384L144.798 657.632L146.798 657.632ZM146.798 644.384C146.798 641.528 144.622 639.352 141.766 639.352L141.766 641.352C143.518 641.352 144.798 642.632 144.798 644.384L146.798 644.384ZM141.766 639.352L133.126 639.352L133.126 641.352L141.766 641.352L141.766 639.352ZM133.126 639.352C130.27 639.352 128.094 641.528 128.094 644.384L130.094 644.384C130.094 642.632 131.374 641.352 133.126 641.352L133.126 639.352ZM128.094 644.384L128.094 657.632L130.094 657.632L130.094 644.384L128.094 644.384ZM128.094 657.632C128.094 659.142 126.768 660.664 125.062 660.664L125.062 662.664C127.964 662.664 130.094 660.154 130.094 657.632L128.094 657.632ZM125.062 660.664L57.6701 660.664L57.6701 662.664L125.062 662.664L125.062 660.664ZM57.6701 660.664C55.9638 660.664 54.6381 659.142 54.6381 657.632L52.6381 657.632C52.6381 660.154 54.7684 662.664 57.6701 662.664L57.6701 660.664ZM54.6381 657.632L54.6381 644.384L52.6381 644.384L52.6381 657.632L54.6381 657.632ZM54.6381 644.384C54.6381 641.482 52.1278 639.352 49.6061 639.352L49.6061 641.352C51.1163 641.352 52.6381 642.678 52.6381 644.384L54.6381 644.384ZM40.6781 623.77L49.6061 623.77L49.6061 621.77L40.6781 621.77L40.6781 623.77ZM49.6061 623.77C52.1278 623.77 54.6381 621.64 54.6381 618.738L52.6381 618.738C52.6381 620.445 51.1163 621.77 49.6061 621.77L49.6061 623.77ZM54.6381 618.738L54.6381 605.778L52.6381 605.778L52.6381 618.738L54.6381 618.738ZM54.6381 605.778C54.6381 604.027 55.9184 602.746 57.6701 602.746L57.6701 600.746C54.8138 600.746 52.6381 602.922 52.6381 605.778L54.6381 605.778ZM57.6701 602.746L234.214 602.746L234.214 600.746L57.6701 600.746L57.6701 602.746ZM234.214 602.746C237.116 602.746 239.246 600.236 239.246 597.714L237.246 597.714C237.246 599.225 235.92 600.746 234.214 600.746L234.214 602.746ZM239.246 597.714L239.246 584.466L237.246 584.466L237.246 597.714L239.246 597.714ZM239.246 584.466C239.246 581.61 237.07 579.434 234.214 579.434L234.214 581.434C235.966 581.434 237.246 582.715 237.246 584.466L239.246 584.466ZM234.214 579.434L57.6701 579.434L57.6701 581.434L234.214 581.434L234.214 579.434ZM57.6701 579.434C55.9638 579.434 54.6381 577.913 54.6381 576.402L52.6381 576.402C52.6381 578.924 54.7684 581.434 57.6701 581.434L57.6701 579.434ZM54.6381 576.402L54.6381 563.154L52.6381 563.154L52.6381 576.402L54.6381 576.402ZM54.6381 563.154C54.6381 560.253 52.1278 558.122 49.6061 558.122L49.6061 560.122C51.1163 560.122 52.6381 561.448 52.6381 563.154L54.6381 563.154ZM49.6061 558.122L40.6781 558.122L40.6781 560.122L49.6061 560.122L49.6061 558.122ZM40.6781 558.122C38.1563 558.122 35.6461 560.253 35.6461 563.154L37.6461 563.154C37.6461 561.448 39.1678 560.122 40.6781 560.122L40.6781 558.122ZM35.6461 563.154L35.6461 619.026L37.6461 619.026L37.6461 563.154L35.6461 563.154ZM35.6461 619.026C35.6461 620.375 36.3171 621.565 37.2352 622.396C38.1522 623.226 39.393 623.77 40.6781 623.77L40.6781 621.77C39.9472 621.77 39.1719 621.451 38.577 620.913C37.9831 620.375 37.6461 619.694 37.6461 619.026L35.6461 619.026ZM46.1501 497.472L46.063 496.476L46.0513 496.477L46.0396 496.478L46.1501 497.472ZM46.1501 534.624L46.2372 533.628L46.2214 533.627L46.2055 533.626L46.1501 534.624ZM233.926 551.04L234.05 550.048L234.032 550.046L234.013 550.044L233.926 551.04ZM234.79 531.744L234.932 530.754L234.904 530.75L234.876 530.748L234.79 531.744ZM174.598 526.56L174.457 527.55L174.484 527.554L174.512 527.557L174.598 526.56ZM174.598 505.824L174.598 506.824L174.643 506.824L174.689 506.82L174.598 505.824ZM234.79 500.352L234.79 499.352L234.745 499.352L234.7 499.356L234.79 500.352ZM233.926 481.056L234.013 482.053L234.032 482.051L234.05 482.049L233.926 481.056ZM149.83 524.256L149.954 523.264L149.935 523.262L149.916 523.26L149.83 524.256ZM73.2221 517.632L73.098 518.625L73.1169 518.627L73.1359 518.629L73.2221 517.632ZM73.2221 514.752L73.2221 515.752L73.2671 515.752L73.3119 515.748L73.2221 514.752ZM149.83 507.84L149.83 506.84L149.785 506.84L149.74 506.844L149.83 507.84ZM46.0396 496.478C40.3767 497.108 35.6461 502.12 35.6461 507.84L37.6461 507.84C37.6461 503.193 41.5554 498.989 46.2605 498.466L46.0396 496.478ZM35.6461 507.84L35.6461 524.544L37.6461 524.544L37.6461 507.84L35.6461 507.84ZM35.6461 524.544C35.6461 530.254 40.376 535.305 46.0946 535.623L46.2055 533.626C41.5561 533.368 37.6461 529.202 37.6461 524.544L35.6461 524.544ZM46.063 535.621L233.839 552.037L234.013 550.044L46.2372 533.628L46.063 535.621ZM233.802 552.033C236.732 552.399 239.246 550.172 239.246 547.008L237.246 547.008C237.246 549.028 235.728 550.258 234.05 550.048L233.802 552.033ZM239.246 547.008L239.246 535.776L237.246 535.776L237.246 547.008L239.246 547.008ZM239.246 535.776C239.246 533.28 237.457 531.115 234.932 530.754L234.649 532.734C236.155 532.949 237.246 534.24 237.246 535.776L239.246 535.776ZM234.876 530.748L174.684 525.564L174.512 527.557L234.704 532.741L234.876 530.748ZM174.74 525.57C173.233 525.355 172.142 524.064 172.142 522.528L170.142 522.528C170.142 525.024 171.931 527.189 174.457 527.55L174.74 525.57ZM172.142 522.528L172.142 509.856L170.142 509.856L170.142 522.528L172.142 522.528ZM172.142 509.856C172.142 507.946 173.281 506.824 174.598 506.824L174.598 504.824C171.884 504.824 170.142 507.159 170.142 509.856L172.142 509.856ZM174.689 506.82L234.881 501.348L234.7 499.356L174.508 504.828L174.689 506.82ZM234.79 501.352C237.505 501.352 239.246 499.018 239.246 496.32L237.246 496.32C237.246 498.231 236.108 499.352 234.79 499.352L234.79 501.352ZM239.246 496.32L239.246 485.088L237.246 485.088L237.246 496.32L239.246 496.32ZM239.246 485.088C239.246 482.263 236.779 479.692 233.802 480.064L234.05 482.049C235.681 481.845 237.246 483.306 237.246 485.088L239.246 485.088ZM233.839 480.06L46.063 496.476L46.2372 498.469L234.013 482.053L233.839 480.06ZM153.15 511.872L153.15 520.224L155.15 520.224L155.15 511.872L153.15 511.872ZM153.15 520.224C153.15 522.244 151.632 523.474 149.954 523.264L149.706 525.249C152.636 525.615 155.15 523.388 155.15 520.224L153.15 520.224ZM149.916 523.26L73.3082 516.636L73.1359 518.629L149.744 525.253L149.916 523.26ZM73.2221 517.632C73.3461 516.64 73.3463 516.64 73.3466 516.64C73.3466 516.64 73.3468 516.64 73.347 516.64C73.3472 516.64 73.3474 516.64 73.3476 516.64C73.348 516.64 73.3482 516.64 73.3483 516.64C73.3485 516.64 73.3482 516.64 73.3474 516.64C73.3457 516.64 73.342 516.639 73.3365 516.639C73.3253 516.637 73.3067 516.634 73.2818 516.63C73.2316 516.622 73.1569 516.609 73.066 516.59C72.8805 516.552 72.6457 516.492 72.4212 516.408C72.1859 516.32 72.0238 516.227 71.9366 516.151C71.8622 516.086 71.9181 516.105 71.9181 516.192L69.9181 516.192C69.9181 516.856 70.262 517.343 70.6196 517.656C70.9643 517.958 71.3783 518.153 71.719 518.281C72.0705 518.412 72.4116 518.497 72.6581 518.548C72.7833 518.574 72.8885 518.593 72.9644 518.605C73.0024 518.611 73.0333 518.616 73.0559 518.619C73.0672 518.621 73.0765 518.622 73.0836 518.623C73.0871 518.623 73.0901 518.624 73.0925 518.624C73.0937 518.624 73.0948 518.624 73.0957 518.624C73.0962 518.624 73.0966 518.624 73.097 518.624C73.0972 518.625 73.0974 518.625 73.0975 518.625C73.0978 518.625 73.098 518.625 73.2221 517.632ZM71.9181 516.192C71.9181 516.137 71.926 516.123 71.962 516.089C72.0253 516.03 72.1553 515.953 72.3683 515.887C72.572 515.823 72.7896 515.788 72.9657 515.769C73.0512 515.761 73.1213 515.756 73.1677 515.754C73.1907 515.753 73.2075 515.753 73.217 515.752C73.2218 515.752 73.2247 515.752 73.2255 515.752C73.226 515.752 73.2259 515.752 73.2254 515.752C73.2251 515.752 73.2247 515.752 73.2241 515.752C73.2238 515.752 73.2235 515.752 73.2232 515.752C73.223 515.752 73.2227 515.752 73.2227 515.752C73.2224 515.752 73.2221 515.752 73.2221 514.752C73.2221 513.752 73.2218 513.752 73.2214 513.752C73.2213 513.752 73.221 513.752 73.2207 513.752C73.2203 513.752 73.2197 513.752 73.2192 513.752C73.2181 513.752 73.2168 513.752 73.2154 513.752C73.2127 513.752 73.2093 513.752 73.2054 513.752C73.1976 513.753 73.1875 513.753 73.1754 513.753C73.1511 513.753 73.1184 513.754 73.0785 513.756C72.9988 513.76 72.8889 513.767 72.7585 513.78C72.5025 513.807 72.1441 513.862 71.7718 513.978C71.103 514.187 69.9181 514.771 69.9181 516.192L71.9181 516.192ZM73.3119 515.748L149.92 508.836L149.74 506.844L73.1322 513.756L73.3119 515.748ZM149.83 508.84C151.674 508.84 153.15 510.208 153.15 511.872L155.15 511.872C155.15 508.928 152.595 506.84 149.83 506.84L149.83 508.84ZM140.038 406.523L139.431 405.728L139.378 405.769L139.331 405.816L140.038 406.523ZM134.854 406.523L135.494 405.755L135.478 405.741L135.462 405.728L134.854 406.523ZM116.998 399.475L65.4461 399.475L65.4461 401.475L116.998 401.475L116.998 399.475ZM65.4461 399.475C49.0538 399.475 35.6461 412.883 35.6461 429.275L37.6461 429.275C37.6461 413.987 50.1584 401.475 65.4461 401.475L65.4461 399.475ZM35.6461 429.275L35.6461 460.091L37.6461 460.091L37.6461 429.275L35.6461 429.275ZM35.6461 460.091C35.6461 462.993 38.1563 465.123 40.6781 465.123L40.6781 463.123C39.1678 463.123 37.6461 461.797 37.6461 460.091L35.6461 460.091ZM40.6781 465.123L234.214 465.123L234.214 463.123L40.6781 463.123L40.6781 465.123ZM234.214 465.123C237.07 465.123 239.246 462.947 239.246 460.091L237.246 460.091C237.246 461.843 235.966 463.123 234.214 463.123L234.214 465.123ZM239.246 460.091L239.246 429.275L237.246 429.275L237.246 460.091L239.246 460.091ZM239.246 429.275C239.246 412.889 226.133 399.475 209.446 399.475L209.446 401.475C225.015 401.475 237.246 413.981 237.246 429.275L239.246 429.275ZM209.446 399.475L157.894 399.475L157.894 401.475L209.446 401.475L209.446 399.475ZM157.894 399.475C151.042 399.475 144.494 401.856 139.431 405.728L140.646 407.317C145.374 403.701 151.498 401.475 157.894 401.475L157.894 399.475ZM139.331 405.816C138.785 406.362 138.17 406.603 137.554 406.603C136.928 406.603 136.212 406.353 135.494 405.755L134.214 407.291C135.224 408.133 136.38 408.603 137.554 408.603C138.738 408.603 139.852 408.123 140.745 407.23L139.331 405.816ZM135.462 405.728C130.402 401.86 124.143 399.475 116.998 399.475L116.998 401.475C123.677 401.475 129.514 403.698 134.247 407.317L135.462 405.728ZM64.0061 422.787L118.726 422.787L118.726 420.787L64.0061 420.787L64.0061 422.787ZM118.726 422.787C123.934 422.787 128.094 426.947 128.094 432.155L130.094 432.155C130.094 425.843 125.038 420.787 118.726 420.787L118.726 422.787ZM128.094 432.155L128.094 439.067L130.094 439.067L130.094 432.155L128.094 432.155ZM128.094 439.067C128.094 440.577 126.768 442.099 125.062 442.099L125.062 444.099C127.964 444.099 130.094 441.589 130.094 439.067L128.094 439.067ZM125.062 442.099L57.6701 442.099L57.6701 444.099L125.062 444.099L125.062 442.099ZM57.6701 442.099C55.9638 442.099 54.6381 440.577 54.6381 439.067L52.6381 439.067C52.6381 441.589 54.7684 444.099 57.6701 444.099L57.6701 442.099ZM54.6381 439.067L54.6381 432.155L52.6381 432.155L52.6381 439.067L54.6381 439.067ZM54.6381 432.155C54.6381 426.947 58.7984 422.787 64.0061 422.787L64.0061 420.787C57.6938 420.787 52.6381 425.843 52.6381 432.155L54.6381 432.155ZM220.542 432.155L220.542 439.067L222.542 439.067L222.542 432.155L220.542 432.155ZM220.542 439.067C220.542 440.577 219.216 442.099 217.51 442.099L217.51 444.099C220.412 444.099 222.542 441.589 222.542 439.067L220.542 439.067ZM217.51 442.099L150.118 442.099L150.118 444.099L217.51 444.099L217.51 442.099ZM150.118 442.099C148.412 442.099 147.086 440.577 147.086 439.067L145.086 439.067C145.086 441.589 147.216 444.099 150.118 444.099L150.118 442.099ZM147.086 439.067L147.086 432.155L145.086 432.155L145.086 439.067L147.086 439.067ZM147.086 432.155C147.086 426.947 151.246 422.787 156.454 422.787L156.454 420.787C150.142 420.787 145.086 425.843 145.086 432.155L147.086 432.155ZM156.454 422.787L211.174 422.787L211.174 420.787L156.454 420.787L156.454 422.787ZM211.174 422.787C216.382 422.787 220.542 426.947 220.542 432.155L222.542 432.155C222.542 425.843 217.486 420.787 211.174 420.787L211.174 422.787ZM217.51 360.806L40.6781 360.806L40.6781 362.806L217.51 362.806L217.51 360.806ZM40.6781 360.806C38.1563 360.806 35.6461 362.937 35.6461 365.838L37.6461 365.838C37.6461 364.132 39.1678 362.806 40.6781 362.806L40.6781 360.806ZM35.6461 365.838L35.6461 378.798L37.6461 378.798L37.6461 365.838L35.6461 365.838ZM35.6461 378.798C35.6461 381.7 38.1563 383.83 40.6781 383.83L40.6781 381.83C39.1678 381.83 37.6461 380.505 37.6461 378.798L35.6461 378.798ZM40.6781 383.83L234.214 383.83L234.214 381.83L40.6781 381.83L40.6781 383.83ZM234.214 383.83C237.07 383.83 239.246 381.655 239.246 378.798L237.246 378.798C237.246 380.55 235.966 381.83 234.214 381.83L234.214 383.83ZM239.246 378.798L239.246 344.526L237.246 344.526L237.246 378.798L239.246 378.798ZM239.246 344.526C239.246 341.67 237.07 339.494 234.214 339.494L234.214 341.494C235.966 341.494 237.246 342.775 237.246 344.526L239.246 344.526ZM234.214 339.494L225.574 339.494L225.574 341.494L234.214 341.494L234.214 339.494ZM225.574 339.494C222.718 339.494 220.542 341.67 220.542 344.526L222.542 344.526C222.542 342.775 223.822 341.494 225.574 341.494L225.574 339.494ZM220.542 344.526L220.542 357.774L222.542 357.774L222.542 344.526L220.542 344.526ZM220.542 357.774C220.542 359.285 219.216 360.806 217.51 360.806L217.51 362.806C220.412 362.806 222.542 360.296 222.542 357.774L220.542 357.774ZM40.6781 323.913L234.214 323.913L234.214 321.913L40.6781 321.913L40.6781 323.913ZM234.214 323.913C237.07 323.913 239.246 321.737 239.246 318.881L237.246 318.881C237.246 320.633 235.966 321.913 234.214 321.913L234.214 323.913ZM239.246 318.881L239.246 305.921L237.246 305.921L237.246 318.881L239.246 318.881ZM239.246 305.921C239.246 303.065 237.07 300.889 234.214 300.889L234.214 302.889C235.966 302.889 237.246 304.169 237.246 305.921L239.246 305.921ZM234.214 300.889L40.6781 300.889L40.6781 302.889L234.214 302.889L234.214 300.889ZM40.6781 300.889C38.1563 300.889 35.6461 303.019 35.6461 305.921L37.6461 305.921C37.6461 304.215 39.1678 302.889 40.6781 302.889L40.6781 300.889ZM35.6461 305.921L35.6461 318.881L37.6461 318.881L37.6461 305.921L35.6461 305.921ZM35.6461 318.881C35.6461 321.783 38.1563 323.913 40.6781 323.913L40.6781 321.913C39.1678 321.913 37.6461 320.587 37.6461 318.881L35.6461 318.881ZM92.5181 280.914L92.8598 281.854L92.8686 281.851L92.5181 280.914ZM186.406 245.778L186.757 246.715L186.771 246.71L186.785 246.704L186.406 245.778ZM182.374 224.466L182.726 225.403L182.738 225.398L182.374 224.466ZM88.7741 259.602L89.1026 260.547L89.1141 260.543L89.1255 260.539L88.7741 259.602ZM100.006 219.722L65.4461 219.722L65.4461 221.722L100.006 221.722L100.006 219.722ZM65.4461 219.722C49.0538 219.722 35.6461 233.13 35.6461 249.522L37.6461 249.522C37.6461 234.235 50.1583 221.722 65.4461 221.722L65.4461 219.722ZM35.6461 249.522L35.6461 255.57L37.6461 255.57L37.6461 249.522L35.6461 249.522ZM35.6461 255.57C35.6461 272.257 49.0603 285.37 65.4461 285.37L65.4461 283.37C50.1518 283.37 37.6461 271.14 37.6461 255.57L35.6461 255.57ZM65.4461 285.37L72.3581 285.37L72.3581 283.37L65.4461 283.37L65.4461 285.37ZM72.3581 285.37C79.3786 285.37 86.407 284.201 92.8598 281.854L92.1763 279.975C85.9571 282.236 79.1615 283.37 72.3581 283.37L72.3581 285.37ZM92.8686 281.851L186.757 246.715L186.056 244.842L92.1676 279.978L92.8686 281.851ZM186.785 246.704C192.982 244.169 199.762 243.034 206.566 243.034L206.566 241.034C199.546 241.034 192.502 242.204 186.027 244.853L186.785 246.704ZM206.566 243.034L211.174 243.034L211.174 241.034L206.566 241.034L206.566 243.034ZM211.174 243.034C216.382 243.034 220.542 247.195 220.542 252.402L222.542 252.402C222.542 246.09 217.486 241.034 211.174 241.034L211.174 243.034ZM220.542 252.402L220.542 252.978L222.542 252.978L222.542 252.402L220.542 252.402ZM220.542 252.978C220.542 257.916 216.364 262.346 211.174 262.346L211.174 264.346C217.504 264.346 222.542 258.985 222.542 252.978L220.542 252.978ZM211.174 262.346L175.174 262.346L175.174 264.346L211.174 264.346L211.174 262.346ZM175.174 262.346C172.318 262.346 170.142 264.522 170.142 267.378L172.142 267.378C172.142 265.627 173.422 264.346 175.174 264.346L175.174 262.346ZM170.142 267.378L170.142 280.338L172.142 280.338L172.142 267.378L170.142 267.378ZM170.142 280.338C170.142 283.195 172.318 285.37 175.174 285.37L175.174 283.37C173.422 283.37 172.142 282.09 172.142 280.338L170.142 280.338ZM175.174 285.37L209.446 285.37L209.446 283.37L175.174 283.37L175.174 285.37ZM209.446 285.37C226.126 285.37 239.246 272.251 239.246 255.57L237.246 255.57C237.246 271.146 225.022 283.37 209.446 283.37L209.446 285.37ZM239.246 255.57L239.246 249.522L237.246 249.522L237.246 255.57L239.246 255.57ZM239.246 249.522C239.246 233.137 226.133 219.722 209.446 219.722L209.446 221.722C225.015 221.722 237.246 234.228 237.246 249.522L239.246 249.522ZM209.446 219.722L202.822 219.722L202.822 221.722L209.446 221.722L209.446 219.722ZM202.822 219.722C195.798 219.722 188.761 220.893 182.01 223.535L182.738 225.398C189.235 222.856 196.022 221.722 202.822 221.722L202.822 219.722ZM182.023 223.53L88.4226 258.666L89.1255 260.539L182.725 225.403L182.023 223.53ZM88.4455 258.658C81.8946 260.936 75.3843 262.346 68.6141 262.346L68.6141 264.346C75.6678 264.346 82.4055 262.876 89.1026 260.547L88.4455 258.658ZM68.6141 262.346L64.0061 262.346L64.0061 264.346L68.6141 264.346L68.6141 262.346ZM64.0061 262.346C58.8162 262.346 54.6381 257.916 54.6381 252.978L52.6381 252.978C52.6381 258.985 57.6759 264.346 64.0061 264.346L64.0061 262.346ZM54.6381 252.978L54.6381 252.402L52.6381 252.402L52.6381 252.978L54.6381 252.978ZM54.6381 252.402C54.6381 247.195 58.7984 243.034 64.0061 243.034L64.0061 241.034C57.6938 241.034 52.6381 246.09 52.6381 252.402L54.6381 252.402ZM64.0061 243.034L100.006 243.034L100.006 241.034L64.0061 241.034L64.0061 243.034ZM100.006 243.034C101.339 243.034 102.589 242.378 103.485 241.481C104.382 240.585 105.038 239.336 105.038 238.002L103.038 238.002C103.038 238.685 102.687 239.452 102.071 240.067C101.455 240.683 100.689 241.034 100.006 241.034L100.006 243.034ZM105.038 238.002L105.038 224.754L103.038 224.754L103.038 238.002L105.038 238.002ZM105.038 224.754C105.038 221.853 102.528 219.722 100.006 219.722L100.006 221.722C101.516 221.722 103.038 223.048 103.038 224.754L105.038 224.754ZM92.5181 199.622L92.8598 200.562L92.8685 200.558L92.5181 199.622ZM186.406 164.486L186.757 165.422L186.771 165.417L186.785 165.411L186.406 164.486ZM182.374 143.174L182.726 144.11L182.738 144.105L182.374 143.174ZM88.774 178.31L89.1026 179.254L89.1141 179.25L89.1255 179.246L88.774 178.31ZM100.006 138.43L65.4461 138.43L65.4461 140.43L100.006 140.43L100.006 138.43ZM65.4461 138.43C49.0538 138.43 35.646 151.838 35.6461 168.23L37.6461 168.23C37.646 152.942 50.1583 140.43 65.4461 140.43L65.4461 138.43ZM35.6461 168.23L35.6461 174.278L37.6461 174.278L37.6461 168.23L35.6461 168.23ZM35.6461 174.278C35.6461 190.965 49.0603 204.078 65.4461 204.078L65.4461 202.078C50.1518 202.078 37.6461 189.847 37.6461 174.278L35.6461 174.278ZM65.4461 204.078L72.3581 204.078L72.3581 202.078L65.4461 202.078L65.4461 204.078ZM72.3581 204.078C79.3786 204.078 86.407 202.908 92.8598 200.562L92.1763 198.682C85.9571 200.944 79.1615 202.078 72.3581 202.078L72.3581 204.078ZM92.8685 200.558L186.757 165.422L186.056 163.549L92.1676 198.685L92.8685 200.558ZM186.785 165.411C192.982 162.876 199.762 161.742 206.566 161.742L206.566 159.742C199.546 159.742 192.502 160.912 186.027 163.56L186.785 165.411ZM206.566 161.742L211.174 161.742L211.174 159.742L206.566 159.742L206.566 161.742ZM211.174 161.742C216.382 161.742 220.542 165.902 220.542 171.11L222.542 171.11C222.542 164.798 217.486 159.742 211.174 159.742L211.174 161.742ZM220.542 171.11L220.542 171.686L222.542 171.686L222.542 171.11L220.542 171.11ZM220.542 171.686C220.542 176.624 216.364 181.054 211.174 181.054L211.174 183.054C217.504 183.054 222.542 177.692 222.542 171.686L220.542 171.686ZM211.174 181.054L175.174 181.054L175.174 183.054L211.174 183.054L211.174 181.054ZM175.174 181.054C172.318 181.054 170.142 183.23 170.142 186.086L172.142 186.086C172.142 184.334 173.422 183.054 175.174 183.054L175.174 181.054ZM170.142 186.086L170.142 199.046L172.142 199.046L172.142 186.086L170.142 186.086ZM170.142 199.046C170.142 201.902 172.318 204.078 175.174 204.078L175.174 202.078C173.422 202.078 172.142 200.798 172.142 199.046L170.142 199.046ZM175.174 204.078L209.446 204.078L209.446 202.078L175.174 202.078L175.174 204.078ZM209.446 204.078C226.126 204.078 239.246 190.958 239.246 174.278L237.246 174.278C237.246 189.854 225.022 202.078 209.446 202.078L209.446 204.078ZM239.246 174.278L239.246 168.23L237.246 168.23L237.246 174.278L239.246 174.278ZM239.246 168.23C239.246 151.844 226.133 138.43 209.446 138.43L209.446 140.43C225.015 140.43 237.246 152.936 237.246 168.23L239.246 168.23ZM209.446 138.43L202.822 138.43L202.822 140.43L209.446 140.43L209.446 138.43ZM202.822 138.43C195.798 138.43 188.761 139.601 182.01 142.243L182.738 144.105C189.235 141.563 196.022 140.43 202.822 140.43L202.822 138.43ZM182.023 142.238L88.4226 177.374L89.1255 179.246L182.725 144.11L182.023 142.238ZM88.4455 177.365C81.8946 179.644 75.3843 181.054 68.6141 181.054L68.6141 183.054C75.6678 183.054 82.4055 181.584 89.1026 179.254L88.4455 177.365ZM68.6141 181.054L64.0061 181.054L64.0061 183.054L68.6141 183.054L68.6141 181.054ZM64.0061 181.054C58.8162 181.054 54.6381 176.624 54.6381 171.686L52.6381 171.686C52.6381 177.692 57.6759 183.054 64.0061 183.054L64.0061 181.054ZM54.6381 171.686L54.6381 171.11L52.6381 171.11L52.6381 171.686L54.6381 171.686ZM54.6381 171.11C54.6381 165.902 58.7983 161.742 64.0061 161.742L64.0061 159.742C57.6938 159.742 52.6381 164.798 52.6381 171.11L54.6381 171.11ZM64.0061 161.742L100.006 161.742L100.006 159.742L64.0061 159.742L64.0061 161.742ZM100.006 161.742C101.339 161.742 102.589 161.085 103.485 160.189C104.382 159.293 105.038 158.043 105.038 156.71L103.038 156.71C103.038 157.393 102.687 158.159 102.071 158.775C101.455 159.39 100.689 159.742 100.006 159.742L100.006 161.742ZM105.038 156.71L105.038 143.462L103.038 143.462L103.038 156.71L105.038 156.71ZM105.038 143.462C105.038 140.56 102.528 138.43 100.006 138.43L100.006 140.43C101.516 140.43 103.038 141.756 103.038 143.462L105.038 143.462ZM49.6061 78.4493L40.678 78.4493L40.678 80.4493L49.6061 80.4493L49.6061 78.4493ZM40.678 78.4493C38.1563 78.4493 35.646 80.5797 35.646 83.4814L37.646 83.4814C37.646 81.7751 39.1678 80.4493 40.678 80.4493L40.678 78.4493ZM35.646 83.4814L35.646 117.753L37.646 117.753L37.646 83.4814L35.646 83.4814ZM35.646 117.753C35.646 120.655 38.1563 122.785 40.678 122.785L40.678 120.785C39.1678 120.785 37.646 119.46 37.646 117.753L35.646 117.753ZM40.678 122.785L234.214 122.785L234.214 120.785L40.678 120.785L40.678 122.785ZM234.214 122.785C237.07 122.785 239.246 120.61 239.246 117.753L237.246 117.753C237.246 119.505 235.966 120.785 234.214 120.785L234.214 122.785ZM239.246 117.753L239.246 83.4814L237.246 83.4814L237.246 117.753L239.246 117.753ZM239.246 83.4814C239.246 80.6251 237.07 78.4493 234.214 78.4493L234.214 80.4493C235.966 80.4493 237.246 81.7296 237.246 83.4814L239.246 83.4814ZM234.214 78.4493L225.574 78.4493L225.574 80.4493L234.214 80.4493L234.214 78.4493ZM225.574 78.4493C222.718 78.4493 220.542 80.6251 220.542 83.4814L222.542 83.4814C222.542 81.7296 223.822 80.4493 225.574 80.4493L225.574 78.4493ZM220.542 83.4814L220.542 96.7294L222.542 96.7294L222.542 83.4814L220.542 83.4814ZM220.542 96.7294C220.542 98.2396 219.216 99.7613 217.51 99.7613L217.51 101.761C220.412 101.761 222.542 99.2511 222.542 96.7294L220.542 96.7294ZM217.51 99.7613L149.83 99.7613L149.83 101.761L217.51 101.761L217.51 99.7613ZM149.83 99.7613C149.147 99.7613 148.381 99.4099 147.765 98.7942C147.15 98.1786 146.798 97.4121 146.798 96.7294L144.798 96.7294C144.798 98.0626 145.455 99.3121 146.351 100.208C147.247 101.105 148.497 101.761 149.83 101.761L149.83 99.7613ZM146.798 96.7294L146.798 83.4814L144.798 83.4814L144.798 96.7294L146.798 96.7294ZM146.798 83.4814C146.798 80.6251 144.622 78.4493 141.766 78.4493L141.766 80.4493C143.518 80.4493 144.798 81.7297 144.798 83.4814L146.798 83.4814ZM141.766 78.4493L133.126 78.4493L133.126 80.4493L141.766 80.4493L141.766 78.4493ZM133.126 78.4493C130.27 78.4493 128.094 80.6251 128.094 83.4814L130.094 83.4814C130.094 81.7296 131.374 80.4493 133.126 80.4493L133.126 78.4493ZM128.094 83.4814L128.094 96.7294L130.094 96.7294L130.094 83.4814L128.094 83.4814ZM128.094 96.7294C128.094 98.2396 126.768 99.7613 125.062 99.7613L125.062 101.761C127.964 101.761 130.094 99.2511 130.094 96.7294L128.094 96.7294ZM125.062 99.7613L57.67 99.7614L57.67 101.761L125.062 101.761L125.062 99.7613ZM57.67 99.7614C55.9638 99.7614 54.6381 98.2396 54.6381 96.7294L52.6381 96.7294C52.6381 99.2511 54.7683 101.761 57.67 101.761L57.67 99.7614ZM54.6381 96.7294L54.6381 83.4814L52.6381 83.4814L52.6381 96.7294L54.6381 96.7294ZM54.6381 83.4814C54.6381 80.5796 52.1278 78.4493 49.6061 78.4493L49.6061 80.4493C51.1163 80.4493 52.6381 81.7751 52.6381 83.4814L54.6381 83.4814ZM40.102 -2.93219L39.9376 -1.9458L39.9506 -1.9436L39.9636 -1.94183L40.102 -2.93219ZM190.438 18.0918L190.754 17.1431L190.667 17.1141L190.577 17.1014L190.438 18.0918ZM190.438 19.5318L190.438 18.5318L190.368 18.5318L190.3 18.5414L190.438 19.5318ZM40.1021 40.5558L39.9636 39.5654L39.9506 39.5673L39.9377 39.5694L40.1021 40.5558ZM115.846 43.4358L115.707 42.4456L115.846 44.4358L115.846 43.4358ZM218.086 29.0358L218.226 30.0261L218.227 30.0257L218.086 29.0358ZM218.086 8.58782L218.227 7.59783L218.224 7.5974L218.086 8.58782ZM114.982 -5.8122L114.982 -6.8122L114.844 -4.82178L114.982 -5.8122ZM39.9636 -1.94183L190.3 19.0821L190.577 17.1014L40.2405 -3.92255L39.9636 -1.94183ZM190.122 19.0405C190.152 19.0506 190.086 19.0333 190.086 18.9198C190.086 18.8627 190.107 18.7549 190.203 18.6548C190.309 18.5445 190.421 18.5318 190.438 18.5318L190.438 20.5318C190.888 20.5318 191.324 20.3751 191.645 20.0398C191.958 19.7148 192.086 19.301 192.086 18.9198C192.086 18.1584 191.588 17.421 190.754 17.1431L190.122 19.0405ZM190.3 18.5414L39.9636 39.5654L40.2405 41.5462L190.577 20.5221L190.3 18.5414ZM39.9377 39.5694C38.8202 39.7557 37.7604 40.3908 36.9828 41.2549C36.2005 42.124 35.646 43.29 35.646 44.5878L37.646 44.5878C37.646 43.8696 37.9556 43.1636 38.4693 42.5928C38.9877 42.0168 39.6559 41.644 40.2665 41.5422L39.9377 39.5694ZM35.646 44.5878L35.646 57.8358L37.646 57.8358L37.646 44.5878L35.646 44.5878ZM35.646 57.8358C35.646 60.7375 38.1563 62.8678 40.678 62.8678L40.678 60.8678C39.1678 60.8678 37.646 59.5421 37.646 57.8358L35.646 57.8358ZM40.678 62.8678L234.214 62.8678L234.214 60.8678L40.678 60.8678L40.678 62.8678ZM234.214 62.8678C237.07 62.8678 239.246 60.6921 239.246 57.8358L237.246 57.8358C237.246 59.5875 235.966 60.8678 234.214 60.8678L234.214 62.8678ZM239.246 57.8358L239.246 47.4678L237.246 47.4678L237.246 57.8358L239.246 57.8358ZM239.246 47.4678C239.246 44.6115 237.07 42.4358 234.214 42.4358L234.214 44.4358C235.966 44.4358 237.246 45.7161 237.246 47.4678L239.246 47.4678ZM234.214 42.4358L115.846 42.4358L115.846 44.4358L234.214 44.4358L234.214 42.4358ZM115.986 44.426L218.226 30.0261L217.947 28.0456L115.707 42.4456L115.986 44.426ZM218.227 30.0257C220.753 29.6649 222.542 27.4998 222.542 25.0038L220.542 25.0038C220.542 26.5398 219.451 27.8307 217.945 28.0459L218.227 30.0257ZM222.542 25.0038L222.542 12.6198L220.542 12.6198L220.542 25.0038L222.542 25.0038ZM222.542 12.6198C222.542 10.1238 220.753 7.95873 218.227 7.59783L217.945 9.57775C219.451 9.7929 220.542 11.0838 220.542 12.6198L222.542 12.6198ZM218.224 7.5974L115.12 -6.80255L114.844 -4.82178L217.948 9.57818L218.224 7.5974ZM114.982 -4.8122L234.214 -4.8122L234.214 -6.8122L114.982 -6.8122L114.982 -4.8122ZM234.214 -4.8122C237.07 -4.8122 239.246 -6.98792 239.246 -9.84419L237.246 -9.84419C237.246 -8.09248 235.966 -6.8122 234.214 -6.8122L234.214 -4.8122ZM239.246 -9.84419L239.246 -20.2122L237.246 -20.2122L237.246 -9.84419L239.246 -9.84419ZM239.246 -20.2122C239.246 -23.0685 237.07 -25.2442 234.214 -25.2442L234.214 -23.2442C235.966 -23.2442 237.246 -21.9639 237.246 -20.2122L239.246 -20.2122ZM234.214 -25.2442L40.678 -25.2442L40.678 -23.2442L234.214 -23.2442L234.214 -25.2442ZM40.678 -25.2442C38.1563 -25.2442 35.646 -23.1139 35.646 -20.2122L37.646 -20.2122C37.646 -21.9185 39.1678 -23.2442 40.678 -23.2442L40.678 -25.2442ZM35.646 -20.2122L35.646 -6.96417L37.646 -6.96417L37.646 -20.2122L35.646 -20.2122ZM35.646 -6.96417C35.646 -5.66638 36.2005 -4.50037 36.9828 -3.63123C37.7604 -2.76715 38.8202 -2.13202 39.9376 -1.9458L40.2665 -3.91858C39.6559 -4.02033 38.9877 -4.39325 38.4693 -4.96918C37.9556 -5.53998 37.646 -6.24597 37.646 -6.96417L35.646 -6.96417ZM49.606 -85.2607L40.678 -85.2607L40.678 -83.2607L49.606 -83.2607L49.606 -85.2607ZM40.678 -85.2607C38.1563 -85.2607 35.646 -83.1304 35.646 -80.2286L37.646 -80.2286C37.646 -81.9349 39.1678 -83.2607 40.678 -83.2607L40.678 -85.2607ZM35.646 -80.2286L35.646 -45.9567L37.646 -45.9567L37.646 -80.2286L35.646 -80.2286ZM35.646 -45.9567C35.646 -43.0549 38.1563 -40.9247 40.678 -40.9247L40.678 -42.9247C39.1678 -42.9247 37.646 -44.2504 37.646 -45.9567L35.646 -45.9567ZM40.678 -40.9247L234.214 -40.9247L234.214 -42.9247L40.678 -42.9247L40.678 -40.9247ZM234.214 -40.9247C237.07 -40.9247 239.246 -43.1004 239.246 -45.9567L237.246 -45.9567C237.246 -44.205 235.966 -42.9247 234.214 -42.9247L234.214 -40.9247ZM239.246 -45.9567L239.246 -80.2286L237.246 -80.2286L237.246 -45.9567L239.246 -45.9567ZM239.246 -80.2286C239.246 -83.085 237.07 -85.2607 234.214 -85.2607L234.214 -83.2607C235.966 -83.2607 237.246 -81.9804 237.246 -80.2286L239.246 -80.2286ZM234.214 -85.2607L225.574 -85.2607L225.574 -83.2607L234.214 -83.2607L234.214 -85.2607ZM225.574 -85.2607C222.718 -85.2607 220.542 -83.085 220.542 -80.2286L222.542 -80.2286C222.542 -81.9804 223.822 -83.2607 225.574 -83.2607L225.574 -85.2607ZM220.542 -80.2286L220.542 -66.9807L222.542 -66.9807L222.542 -80.2286L220.542 -80.2286ZM220.542 -66.9807C220.542 -65.4704 219.216 -63.9487 217.51 -63.9487L217.51 -61.9487C220.412 -61.9487 222.542 -64.4589 222.542 -66.9807L220.542 -66.9807ZM217.51 -63.9487L149.83 -63.9487L149.83 -61.9487L217.51 -61.9487L217.51 -63.9487ZM149.83 -63.9487C149.147 -63.9487 148.381 -64.3001 147.765 -64.9158C147.15 -65.5314 146.798 -66.2979 146.798 -66.9807L144.798 -66.9807C144.798 -65.6474 145.455 -64.3979 146.351 -63.5015C147.247 -62.6052 148.497 -61.9487 149.83 -61.9487L149.83 -63.9487ZM146.798 -66.9807L146.798 -80.2286L144.798 -80.2286L144.798 -66.9807L146.798 -66.9807ZM146.798 -80.2286C146.798 -83.085 144.622 -85.2607 141.766 -85.2607L141.766 -83.2607C143.518 -83.2607 144.798 -81.9804 144.798 -80.2286L146.798 -80.2286ZM141.766 -85.2607L133.126 -85.2607L133.126 -83.2607L141.766 -83.2607L141.766 -85.2607ZM133.126 -85.2607C130.27 -85.2607 128.094 -83.085 128.094 -80.2286L130.094 -80.2286C130.094 -81.9804 131.374 -83.2607 133.126 -83.2607L133.126 -85.2607ZM128.094 -80.2286L128.094 -66.9807L130.094 -66.9807L130.094 -80.2286L128.094 -80.2286ZM128.094 -66.9807C128.094 -65.4704 126.768 -63.9487 125.062 -63.9487L125.062 -61.9487C127.964 -61.9487 130.094 -64.4589 130.094 -66.9807L128.094 -66.9807ZM125.062 -63.9487L57.67 -63.9487L57.67 -61.9487L125.062 -61.9487L125.062 -63.9487ZM57.67 -63.9487C55.9637 -63.9487 54.638 -65.4704 54.638 -66.9807L52.638 -66.9807C52.638 -64.4589 54.7683 -61.9487 57.67 -61.9487L57.67 -63.9487ZM54.638 -66.9807L54.638 -80.2286L52.638 -80.2286L52.638 -66.9807L54.638 -66.9807ZM54.638 -80.2286C54.638 -83.1304 52.1278 -85.2607 49.606 -85.2607L49.606 -83.2607C51.1163 -83.2607 52.638 -81.9349 52.638 -80.2286L54.638 -80.2286ZM175.75 -148.21L175.934 -147.227L176.238 -147.284L176.457 -147.503L175.75 -148.21ZM40.102 -122.866L40.2435 -121.876L40.2647 -121.879L40.2857 -121.883L40.102 -122.866ZM102.886 -120.562L102.886 -119.562L102.979 -119.562L103.07 -119.579L102.886 -120.562ZM235.078 -145.33L235.262 -144.347L235.329 -144.36L235.394 -144.381L235.078 -145.33ZM40.678 -147.786L175.75 -147.786L175.75 -149.786L40.678 -149.786L40.678 -147.786ZM175.75 -147.786C175.666 -147.786 175.456 -147.807 175.254 -147.984C175.034 -148.176 174.966 -148.428 174.966 -148.606C174.966 -148.765 175.015 -148.865 175.03 -148.892C175.048 -148.927 175.059 -148.933 175.043 -148.917L176.457 -147.503C176.678 -147.724 176.966 -148.109 176.966 -148.606C176.966 -148.893 176.862 -149.234 176.571 -149.489C176.296 -149.729 175.978 -149.786 175.75 -149.786L175.75 -147.786ZM175.566 -149.193L39.9184 -123.849L40.2857 -121.883L175.934 -147.227L175.566 -149.193ZM39.9606 -123.856C37.4347 -123.495 35.646 -121.33 35.646 -118.834L37.646 -118.834C37.646 -120.37 38.7374 -121.661 40.2435 -121.876L39.9606 -123.856ZM35.646 -118.834L35.646 -105.874L37.646 -105.874L37.646 -118.834L35.646 -118.834ZM35.646 -105.874C35.646 -102.972 38.1563 -100.842 40.678 -100.842L40.678 -102.842C39.1678 -102.842 37.646 -104.168 37.646 -105.874L35.646 -105.874ZM40.678 -100.842L234.214 -100.842L234.214 -102.842L40.678 -102.842L40.678 -100.842ZM234.214 -100.842C237.07 -100.842 239.246 -103.018 239.246 -105.874L237.246 -105.874C237.246 -104.122 235.966 -102.842 234.214 -102.842L234.214 -100.842ZM239.246 -105.874L239.246 -116.242L237.246 -116.242L237.246 -105.874L239.246 -105.874ZM239.246 -116.242C239.246 -118.764 237.116 -121.274 234.214 -121.274L234.214 -119.274C235.92 -119.274 237.246 -117.752 237.246 -116.242L239.246 -116.242ZM234.214 -121.274L102.886 -121.274L102.886 -119.274L234.214 -119.274L234.214 -121.274ZM102.886 -121.274C103.009 -121.274 103.67 -121.146 103.67 -120.418C103.67 -119.69 103.009 -119.562 102.886 -119.562L102.886 -121.562C102.475 -121.562 101.67 -121.29 101.67 -120.418C101.67 -119.546 102.475 -119.274 102.886 -119.274L102.886 -121.274ZM103.07 -119.579L235.262 -144.347L234.894 -146.313L102.702 -121.545L103.07 -119.579ZM235.394 -144.381C237.407 -145.052 239.246 -146.798 239.246 -149.362L237.246 -149.362C237.246 -147.894 236.205 -146.76 234.762 -146.279L235.394 -144.381ZM239.246 -149.362L239.246 -163.186L237.246 -163.186L237.246 -149.362L239.246 -149.362ZM239.246 -163.186C239.246 -166.042 237.07 -168.218 234.214 -168.218L234.214 -166.218C235.966 -166.218 237.246 -164.938 237.246 -163.186L239.246 -163.186ZM234.214 -168.218L40.678 -168.218L40.678 -166.218L234.214 -166.218L234.214 -168.218ZM40.678 -168.218C38.1563 -168.218 35.646 -166.088 35.646 -163.186L37.646 -163.186C37.646 -164.892 39.1678 -166.218 40.678 -166.218L40.678 -168.218ZM35.646 -163.186L35.646 -152.818L37.646 -152.818L37.646 -163.186L35.646 -163.186ZM35.646 -152.818C35.646 -149.916 38.1563 -147.786 40.678 -147.786L40.678 -149.786C39.1678 -149.786 37.646 -151.112 37.646 -152.818L35.646 -152.818ZM40.678 -183.26L49.606 -183.26L49.606 -185.26L40.678 -185.26L40.678 -183.26ZM49.606 -183.26C52.1278 -183.26 54.638 -185.39 54.638 -188.292L52.638 -188.292C52.638 -186.585 51.1163 -185.26 49.606 -185.26L49.606 -183.26ZM54.638 -188.292L54.638 -201.252L52.638 -201.252L52.638 -188.292L54.638 -188.292ZM54.638 -201.252C54.638 -203.003 55.9183 -204.284 57.67 -204.284L57.67 -206.284C54.8137 -206.284 52.638 -204.108 52.638 -201.252L54.638 -201.252ZM57.67 -204.284L234.214 -204.284L234.214 -206.284L57.67 -206.284L57.67 -204.284ZM234.214 -204.284C237.116 -204.284 239.246 -206.794 239.246 -209.316L237.246 -209.316C237.246 -207.805 235.92 -206.284 234.214 -206.284L234.214 -204.284ZM239.246 -209.316L239.246 -222.564L237.246 -222.564L237.246 -209.316L239.246 -209.316ZM239.246 -222.564C239.246 -225.42 237.07 -227.596 234.214 -227.596L234.214 -225.596C235.966 -225.596 237.246 -224.315 237.246 -222.564L239.246 -222.564ZM234.214 -227.596L57.67 -227.596L57.67 -225.596L234.214 -225.596L234.214 -227.596ZM57.67 -227.596C55.9637 -227.596 54.638 -229.117 54.638 -230.628L52.638 -230.628C52.638 -228.106 54.7683 -225.596 57.67 -225.596L57.67 -227.596ZM54.638 -230.628L54.638 -243.876L52.638 -243.876L52.638 -230.628L54.638 -230.628ZM54.638 -243.876C54.638 -246.777 52.1278 -248.908 49.606 -248.908L49.606 -246.908C51.1163 -246.908 52.638 -245.582 52.638 -243.876L54.638 -243.876ZM49.606 -248.908L40.678 -248.908L40.678 -246.908L49.606 -246.908L49.606 -248.908ZM40.678 -248.908C38.1563 -248.908 35.646 -246.777 35.646 -243.876L37.646 -243.876C37.646 -245.582 39.1678 -246.908 40.678 -246.908L40.678 -248.908ZM35.646 -243.876L35.646 -188.004L37.646 -188.004L37.646 -243.876L35.646 -243.876ZM35.646 -188.004C35.646 -186.655 36.3171 -185.465 37.2351 -184.634C38.1522 -183.804 39.3929 -183.26 40.678 -183.26L40.678 -185.26C39.9471 -185.26 39.1719 -185.579 38.5769 -186.117C37.983 -186.655 37.646 -187.336 37.646 -188.004L35.646 -188.004ZM92.518 -269.008L92.8598 -268.068L92.8685 -268.072L92.518 -269.008ZM186.406 -304.144L186.757 -303.208L186.771 -303.213L186.785 -303.219L186.406 -304.144ZM182.374 -325.456L182.726 -324.52L182.738 -324.525L182.374 -325.456ZM88.774 -290.32L89.1025 -289.376L89.1141 -289.38L89.1255 -289.384L88.774 -290.32ZM100.006 -330.2L65.446 -330.2L65.446 -328.2L100.006 -328.2L100.006 -330.2ZM65.446 -330.2C49.0537 -330.2 35.646 -316.792 35.646 -300.4L37.646 -300.4C37.646 -315.688 50.1583 -328.2 65.446 -328.2L65.446 -330.2ZM35.646 -300.4L35.646 -294.352L37.646 -294.352L37.646 -300.4L35.646 -300.4ZM35.646 -294.352C35.646 -277.665 49.0603 -264.552 65.446 -264.552L65.446 -266.552C50.1518 -266.552 37.646 -278.783 37.646 -294.352L35.646 -294.352ZM65.446 -264.552L72.358 -264.552L72.358 -266.552L65.446 -266.552L65.446 -264.552ZM72.358 -264.552C79.3786 -264.552 86.407 -265.722 92.8598 -268.068L92.1763 -269.948C85.9571 -267.686 79.1614 -266.552 72.358 -266.552L72.358 -264.552ZM92.8685 -268.072L186.757 -303.208L186.056 -305.081L92.1675 -269.945L92.8685 -268.072ZM186.785 -303.219C192.982 -305.754 199.762 -306.888 206.566 -306.888L206.566 -308.888C199.546 -308.888 192.502 -307.718 186.027 -305.07L186.785 -303.219ZM206.566 -306.888L211.174 -306.888L211.174 -308.888L206.566 -308.888L206.566 -306.888ZM211.174 -306.888C216.382 -306.888 220.542 -302.728 220.542 -297.52L222.542 -297.52C222.542 -303.832 217.486 -308.888 211.174 -308.888L211.174 -306.888ZM220.542 -297.52L220.542 -296.944L222.542 -296.944L222.542 -297.52L220.542 -297.52ZM220.542 -296.944C220.542 -292.006 216.364 -287.576 211.174 -287.576L211.174 -285.576C217.504 -285.576 222.542 -290.938 222.542 -296.944L220.542 -296.944ZM211.174 -287.576L175.174 -287.576L175.174 -285.576L211.174 -285.576L211.174 -287.576ZM175.174 -287.576C172.318 -287.576 170.142 -285.4 170.142 -282.544L172.142 -282.544C172.142 -284.296 173.422 -285.576 175.174 -285.576L175.174 -287.576ZM170.142 -282.544L170.142 -269.584L172.142 -269.584L172.142 -282.544L170.142 -282.544ZM170.142 -269.584C170.142 -266.728 172.318 -264.552 175.174 -264.552L175.174 -266.552C173.422 -266.552 172.142 -267.832 172.142 -269.584L170.142 -269.584ZM175.174 -264.552L209.446 -264.552L209.446 -266.552L175.174 -266.552L175.174 -264.552ZM209.446 -264.552C226.126 -264.552 239.246 -277.672 239.246 -294.352L237.246 -294.352C237.246 -278.776 225.022 -266.552 209.446 -266.552L209.446 -264.552ZM239.246 -294.352L239.246 -300.4L237.246 -300.4L237.246 -294.352L239.246 -294.352ZM239.246 -300.4C239.246 -316.786 226.133 -330.2 209.446 -330.2L209.446 -328.2C225.015 -328.2 237.246 -315.694 237.246 -300.4L239.246 -300.4ZM209.446 -330.2L202.822 -330.2L202.822 -328.2L209.446 -328.2L209.446 -330.2ZM202.822 -330.2C195.798 -330.2 188.761 -329.029 182.01 -326.387L182.738 -324.525C189.235 -327.067 196.022 -328.2 202.822 -328.2L202.822 -330.2ZM182.023 -326.392L88.4226 -291.256L89.1255 -289.384L182.725 -324.52L182.023 -326.392ZM88.4455 -291.265C81.8946 -288.986 75.3843 -287.576 68.614 -287.576L68.614 -285.576C75.6678 -285.576 82.4055 -287.046 89.1025 -289.376L88.4455 -291.265ZM68.614 -287.576L64.006 -287.576L64.006 -285.576L68.614 -285.576L68.614 -287.576ZM64.006 -287.576C58.8162 -287.576 54.638 -292.006 54.638 -296.944L52.638 -296.944C52.638 -290.938 57.6759 -285.576 64.006 -285.576L64.006 -287.576ZM54.638 -296.944L54.638 -297.52L52.638 -297.52L52.638 -296.944L54.638 -296.944ZM54.638 -297.52C54.638 -302.728 58.7983 -306.888 64.006 -306.888L64.006 -308.888C57.6938 -308.888 52.638 -303.832 52.638 -297.52L54.638 -297.52ZM64.006 -306.888L100.006 -306.888L100.006 -308.888L64.006 -308.888L64.006 -306.888ZM100.006 -306.888C101.339 -306.888 102.589 -307.545 103.485 -308.441C104.381 -309.337 105.038 -310.587 105.038 -311.92L103.038 -311.92C103.038 -311.237 102.687 -310.471 102.071 -309.855C101.455 -309.24 100.689 -308.888 100.006 -308.888L100.006 -306.888ZM105.038 -311.92L105.038 -325.168L103.038 -325.168L103.038 -311.92L105.038 -311.92ZM105.038 -325.168C105.038 -328.07 102.528 -330.2 100.006 -330.2L100.006 -328.2C101.516 -328.2 103.038 -326.874 103.038 -325.168L105.038 -325.168Z" fill="#606060"/>
</g>
</svg>
