<svg width="80" height="18" viewBox="0 0 80 18" fill="none" xmlns="http://www.w3.org/2000/svg">
<path d="M1.41953 12.75C1.41953 12.75 3.01953 13.65 4.81953 13.65C7.39453 13.65 8.51953 12.775 8.56953 10.4V3.525H1.24453V1.275H10.9445V10.7C10.8445 14.8 7.76953 16.025 4.86953 16.025C2.89453 16.025 0.569531 14.9 0.569531 14.9L1.41953 12.75ZM27.6598 18L31.1598 0.924999H28.8848L25.3848 18H27.6598ZM55.325 16L57.45 1.25H55.025L53.425 12.875L52.075 7.05H49.425L48.1 12.875L46.5 1.25H44.075L46.225 16H49.525L50.775 9.875L52.025 16H55.325ZM79.7152 5.6C79.7152 2.325 77.8902 0.924999 73.1152 0.924999C68.0652 0.924999 66.6652 2.7 66.6652 5.5C66.6652 8.8 69.1152 9.6 73.1402 9.775C76.3902 9.925 77.2652 10.225 77.2652 11.725C77.2652 13.5 76.2402 13.95 73.2152 13.95C70.8152 13.95 69.2902 13.675 69.2902 11.95H66.7902C66.7902 15 68.7402 16.325 73.2152 16.325C78.1902 16.325 79.7902 15.025 79.7652 11.725C79.7402 8.725 78.1652 7.55 73.4652 7.4C70.0652 7.3 69.1652 7 69.1652 5.425C69.1652 4 69.5902 3.3 73.1152 3.3C75.8902 3.3 77.2152 3.675 77.2152 5.6H79.7152Z" fill="#FFFDFB"/>
</svg>
