<svg width="112" height="25" viewBox="0 0 112 25" fill="none" xmlns="http://www.w3.org/2000/svg">
<path d="M1.41 17.45C1.41 17.45 3.65 18.71 6.17 18.71C9.775 18.71 11.35 17.485 11.42 14.16V4.535H1.165V1.385H14.745V14.58C14.605 20.32 10.3 22.035 6.24 22.035C3.475 22.035 0.22 20.46 0.22 20.46L1.41 17.45ZM38.1463 24.8L43.0463 0.894998H39.8613L34.9613 24.8H38.1463ZM76.8777 22L79.8527 1.35H76.4577L74.2177 17.625L72.3277 9.47H68.6177L66.7627 17.625L64.5227 1.35H61.1277L64.1377 22H68.7577L70.5077 13.425L72.2577 22H76.8777ZM111.024 7.44C111.024 2.855 108.469 0.894998 101.784 0.894998C94.714 0.894998 92.754 3.38 92.754 7.3C92.754 11.92 96.184 13.04 101.819 13.285C106.369 13.495 107.594 13.915 107.594 16.015C107.594 18.5 106.159 19.13 101.924 19.13C98.564 19.13 96.429 18.745 96.429 16.33H92.929C92.929 20.6 95.659 22.455 101.924 22.455C108.889 22.455 111.129 20.635 111.094 16.015C111.059 11.815 108.854 10.17 102.274 9.96C97.514 9.82 96.254 9.4 96.254 7.195C96.254 5.2 96.849 4.22 101.784 4.22C105.669 4.22 107.524 4.745 107.524 7.44H111.024Z" fill="#2C2C2C"/>
</svg>
